M48
; DRILL file {KiCad 7.0.11-7.0.11~ubuntu22.04.1} date Sat 19 Apr 2025 23:19:46 CET
; FORMAT={-:-/ absolute / metric / decimal}
; #@! TF.CreationDate,2025-04-19T23:19:46+01:00
; #@! TF.GenerationSoftware,Kicad,Pcbnew,7.0.11-7.0.11~ubuntu22.04.1
; #@! TF.FileFunction,Plated,1,4,PTH
FMAT,2
METRIC
; #@! TA.AperFunction,Plated,PTH,ViaDrill
T1C0.200
; #@! TA.AperFunction,Plated,PTH,ComponentDrill
T2C1.000
; #@! TA.AperFunction,Plated,PTH,ComponentDrill
T3C2.200
%
G90
G05
T1
X118.745Y-112.014
X121.793Y-102.489
X121.793Y-103.759
X122.301Y-93.726
X123.317Y-88.646
X125.73Y-88.646
X128.27Y-116.078
X128.397Y-93.091
X128.397Y-94.742
X128.397Y-118.745
X129.413Y-119.253
X130.048Y-94.742
X130.048Y-109.22
X131.699Y-94.742
X131.699Y-107.061
X133.223Y-94.742
X133.731Y-101.6
X133.731Y-103.886
X133.731Y-106.299
X136.652Y-101.473
X136.652Y-103.632
X136.652Y-105.918
X136.652Y-110.744
X137.287Y-119.253
X138.43Y-95.123
X138.43Y-96.393
X138.557Y-101.346
X139.192Y-88.519
X139.192Y-123.444
X139.192Y-125.222
X139.827Y-106.172
X140.589Y-106.172
X140.716Y-108.331
X140.716Y-125.222
X141.478Y-95.25
X141.478Y-96.266
X141.986Y-108.839
X143.002Y-120.65
X143.383Y-95.758
X143.891Y-125.476
X144.018Y-100.838
X144.78Y-88.519
X145.669Y-99.314
X146.685Y-104.775
X146.685Y-105.664
X146.685Y-106.426
X146.685Y-109.601
X146.812Y-103.251
X146.939Y-123.317
X147.193Y-102.489
X147.447Y-101.092
X147.574Y-110.236
X147.701Y-115.316
X147.955Y-117.729
X147.955Y-119.761
X148.463Y-110.871
X149.098Y-111.76
X149.86Y-112.649
X149.987Y-101.473
X151.003Y-88.646
X153.797Y-125.476
X155.448Y-107.696
X155.702Y-89.281
X155.702Y-90.805
X156.21Y-96.012
X157.099Y-89.281
X157.099Y-90.805
X157.48Y-107.696
X157.48Y-124.079
X158.369Y-89.281
X158.369Y-90.805
X158.877Y-103.886
X160.147Y-123.19
X160.274Y-125.095
T2
X118.745Y-95.377
X118.745Y-97.917
X118.745Y-100.457
X118.745Y-102.997
X118.745Y-105.537
X118.745Y-108.077
X164.846Y-99.695
X164.846Y-102.235
X164.846Y-104.775
X164.846Y-107.315
X164.846Y-109.855
X164.846Y-112.395
X164.846Y-114.935
X164.846Y-117.475
T3
X119.126Y-89.789
X132.588Y-116.459
X165.735Y-89.662
X165.735Y-123.317
T2
G00X117.42Y-120.662
M15
G01X117.42Y-122.162
M16
G05
G00X120.92Y-114.412
M15
G01X122.92Y-114.412
M16
G05
G00X121.27Y-120.412
M15
G01X122.57Y-120.412
M16
G05
G00X126.42Y-120.662
M15
G01X126.42Y-122.162
M16
G05
M30
