%TF.GenerationSoftware,KiCad,Pcbnew,7.0.11-7.0.11~ubuntu22.04.1*%
%TF.CreationDate,2025-04-19T23:19:39+01:00*%
%TF.ProjectId,Mixed_Signal_Design,4d697865-645f-4536-9967-6e616c5f4465,rev?*%
%TF.SameCoordinates,Original*%
%TF.FileFunction,Drillmap*%
%TF.FilePolarity,Positive*%
%FSLAX45Y45*%
G04 Gerber Fmt 4.5, Leading zero omitted, Abs format (unit mm)*
G04 Created by KiCad (PCBNEW 7.0.11-7.0.11~ubuntu22.04.1) date 2025-04-19 23:19:39*
%MOMM*%
%LPD*%
G01*
G04 APERTURE LIST*
%ADD10C,0.050000*%
%ADD11C,0.200000*%
%ADD12C,0.160000*%
G04 APERTURE END LIST*
D10*
X11557000Y-8686800D02*
X16903700Y-8686800D01*
X16903700Y-12661900D01*
X11557000Y-12661900D01*
X11557000Y-8686800D01*
D11*
D12*
X12112000Y-12261200D02*
X12272000Y-12421200D01*
X12272000Y-12261200D02*
X12112000Y-12421200D01*
D11*
X11815277Y-12975884D02*
X11815277Y-12775884D01*
X11815277Y-12775884D02*
X11862896Y-12775884D01*
X11862896Y-12775884D02*
X11891467Y-12785408D01*
X11891467Y-12785408D02*
X11910515Y-12804455D01*
X11910515Y-12804455D02*
X11920039Y-12823503D01*
X11920039Y-12823503D02*
X11929562Y-12861598D01*
X11929562Y-12861598D02*
X11929562Y-12890169D01*
X11929562Y-12890169D02*
X11920039Y-12928265D01*
X11920039Y-12928265D02*
X11910515Y-12947312D01*
X11910515Y-12947312D02*
X11891467Y-12966360D01*
X11891467Y-12966360D02*
X11862896Y-12975884D01*
X11862896Y-12975884D02*
X11815277Y-12975884D01*
X12015277Y-12975884D02*
X12015277Y-12842550D01*
X12015277Y-12880646D02*
X12024801Y-12861598D01*
X12024801Y-12861598D02*
X12034324Y-12852074D01*
X12034324Y-12852074D02*
X12053372Y-12842550D01*
X12053372Y-12842550D02*
X12072420Y-12842550D01*
X12139086Y-12975884D02*
X12139086Y-12842550D01*
X12139086Y-12775884D02*
X12129562Y-12785408D01*
X12129562Y-12785408D02*
X12139086Y-12794931D01*
X12139086Y-12794931D02*
X12148610Y-12785408D01*
X12148610Y-12785408D02*
X12139086Y-12775884D01*
X12139086Y-12775884D02*
X12139086Y-12794931D01*
X12262896Y-12975884D02*
X12243848Y-12966360D01*
X12243848Y-12966360D02*
X12234324Y-12947312D01*
X12234324Y-12947312D02*
X12234324Y-12775884D01*
X12367658Y-12975884D02*
X12348610Y-12966360D01*
X12348610Y-12966360D02*
X12339086Y-12947312D01*
X12339086Y-12947312D02*
X12339086Y-12775884D01*
X12596229Y-12975884D02*
X12596229Y-12775884D01*
X12596229Y-12775884D02*
X12662896Y-12918741D01*
X12662896Y-12918741D02*
X12729562Y-12775884D01*
X12729562Y-12775884D02*
X12729562Y-12975884D01*
X12910515Y-12975884D02*
X12910515Y-12871122D01*
X12910515Y-12871122D02*
X12900991Y-12852074D01*
X12900991Y-12852074D02*
X12881943Y-12842550D01*
X12881943Y-12842550D02*
X12843848Y-12842550D01*
X12843848Y-12842550D02*
X12824801Y-12852074D01*
X12910515Y-12966360D02*
X12891467Y-12975884D01*
X12891467Y-12975884D02*
X12843848Y-12975884D01*
X12843848Y-12975884D02*
X12824801Y-12966360D01*
X12824801Y-12966360D02*
X12815277Y-12947312D01*
X12815277Y-12947312D02*
X12815277Y-12928265D01*
X12815277Y-12928265D02*
X12824801Y-12909217D01*
X12824801Y-12909217D02*
X12843848Y-12899693D01*
X12843848Y-12899693D02*
X12891467Y-12899693D01*
X12891467Y-12899693D02*
X12910515Y-12890169D01*
X13005753Y-12842550D02*
X13005753Y-13042550D01*
X13005753Y-12852074D02*
X13024801Y-12842550D01*
X13024801Y-12842550D02*
X13062896Y-12842550D01*
X13062896Y-12842550D02*
X13081943Y-12852074D01*
X13081943Y-12852074D02*
X13091467Y-12861598D01*
X13091467Y-12861598D02*
X13100991Y-12880646D01*
X13100991Y-12880646D02*
X13100991Y-12937788D01*
X13100991Y-12937788D02*
X13091467Y-12956836D01*
X13091467Y-12956836D02*
X13081943Y-12966360D01*
X13081943Y-12966360D02*
X13062896Y-12975884D01*
X13062896Y-12975884D02*
X13024801Y-12975884D01*
X13024801Y-12975884D02*
X13005753Y-12966360D01*
X13186705Y-12956836D02*
X13196229Y-12966360D01*
X13196229Y-12966360D02*
X13186705Y-12975884D01*
X13186705Y-12975884D02*
X13177182Y-12966360D01*
X13177182Y-12966360D02*
X13186705Y-12956836D01*
X13186705Y-12956836D02*
X13186705Y-12975884D01*
X13186705Y-12852074D02*
X13196229Y-12861598D01*
X13196229Y-12861598D02*
X13186705Y-12871122D01*
X13186705Y-12871122D02*
X13177182Y-12861598D01*
X13177182Y-12861598D02*
X13186705Y-12852074D01*
X13186705Y-12852074D02*
X13186705Y-12871122D01*
D12*
X11394500Y-13224400D02*
X11554500Y-13384400D01*
X11554500Y-13224400D02*
X11394500Y-13384400D01*
D11*
X11920039Y-13395884D02*
X11805753Y-13395884D01*
X11862896Y-13395884D02*
X11862896Y-13195884D01*
X11862896Y-13195884D02*
X11843848Y-13224455D01*
X11843848Y-13224455D02*
X11824801Y-13243503D01*
X11824801Y-13243503D02*
X11805753Y-13253027D01*
X12005753Y-13376836D02*
X12015277Y-13386360D01*
X12015277Y-13386360D02*
X12005753Y-13395884D01*
X12005753Y-13395884D02*
X11996229Y-13386360D01*
X11996229Y-13386360D02*
X12005753Y-13376836D01*
X12005753Y-13376836D02*
X12005753Y-13395884D01*
X12186705Y-13195884D02*
X12148610Y-13195884D01*
X12148610Y-13195884D02*
X12129562Y-13205408D01*
X12129562Y-13205408D02*
X12120039Y-13214931D01*
X12120039Y-13214931D02*
X12100991Y-13243503D01*
X12100991Y-13243503D02*
X12091467Y-13281598D01*
X12091467Y-13281598D02*
X12091467Y-13357788D01*
X12091467Y-13357788D02*
X12100991Y-13376836D01*
X12100991Y-13376836D02*
X12110515Y-13386360D01*
X12110515Y-13386360D02*
X12129562Y-13395884D01*
X12129562Y-13395884D02*
X12167658Y-13395884D01*
X12167658Y-13395884D02*
X12186705Y-13386360D01*
X12186705Y-13386360D02*
X12196229Y-13376836D01*
X12196229Y-13376836D02*
X12205753Y-13357788D01*
X12205753Y-13357788D02*
X12205753Y-13310169D01*
X12205753Y-13310169D02*
X12196229Y-13291122D01*
X12196229Y-13291122D02*
X12186705Y-13281598D01*
X12186705Y-13281598D02*
X12167658Y-13272074D01*
X12167658Y-13272074D02*
X12129562Y-13272074D01*
X12129562Y-13272074D02*
X12110515Y-13281598D01*
X12110515Y-13281598D02*
X12100991Y-13291122D01*
X12100991Y-13291122D02*
X12091467Y-13310169D01*
X12329562Y-13195884D02*
X12348610Y-13195884D01*
X12348610Y-13195884D02*
X12367658Y-13205408D01*
X12367658Y-13205408D02*
X12377182Y-13214931D01*
X12377182Y-13214931D02*
X12386705Y-13233979D01*
X12386705Y-13233979D02*
X12396229Y-13272074D01*
X12396229Y-13272074D02*
X12396229Y-13319693D01*
X12396229Y-13319693D02*
X12386705Y-13357788D01*
X12386705Y-13357788D02*
X12377182Y-13376836D01*
X12377182Y-13376836D02*
X12367658Y-13386360D01*
X12367658Y-13386360D02*
X12348610Y-13395884D01*
X12348610Y-13395884D02*
X12329562Y-13395884D01*
X12329562Y-13395884D02*
X12310515Y-13386360D01*
X12310515Y-13386360D02*
X12300991Y-13376836D01*
X12300991Y-13376836D02*
X12291467Y-13357788D01*
X12291467Y-13357788D02*
X12281943Y-13319693D01*
X12281943Y-13319693D02*
X12281943Y-13272074D01*
X12281943Y-13272074D02*
X12291467Y-13233979D01*
X12291467Y-13233979D02*
X12300991Y-13214931D01*
X12300991Y-13214931D02*
X12310515Y-13205408D01*
X12310515Y-13205408D02*
X12329562Y-13195884D01*
X12520039Y-13195884D02*
X12539086Y-13195884D01*
X12539086Y-13195884D02*
X12558134Y-13205408D01*
X12558134Y-13205408D02*
X12567658Y-13214931D01*
X12567658Y-13214931D02*
X12577182Y-13233979D01*
X12577182Y-13233979D02*
X12586705Y-13272074D01*
X12586705Y-13272074D02*
X12586705Y-13319693D01*
X12586705Y-13319693D02*
X12577182Y-13357788D01*
X12577182Y-13357788D02*
X12567658Y-13376836D01*
X12567658Y-13376836D02*
X12558134Y-13386360D01*
X12558134Y-13386360D02*
X12539086Y-13395884D01*
X12539086Y-13395884D02*
X12520039Y-13395884D01*
X12520039Y-13395884D02*
X12500991Y-13386360D01*
X12500991Y-13386360D02*
X12491467Y-13376836D01*
X12491467Y-13376836D02*
X12481943Y-13357788D01*
X12481943Y-13357788D02*
X12472420Y-13319693D01*
X12472420Y-13319693D02*
X12472420Y-13272074D01*
X12472420Y-13272074D02*
X12481943Y-13233979D01*
X12481943Y-13233979D02*
X12491467Y-13214931D01*
X12491467Y-13214931D02*
X12500991Y-13205408D01*
X12500991Y-13205408D02*
X12520039Y-13195884D01*
X12672420Y-13395884D02*
X12672420Y-13262550D01*
X12672420Y-13281598D02*
X12681943Y-13272074D01*
X12681943Y-13272074D02*
X12700991Y-13262550D01*
X12700991Y-13262550D02*
X12729563Y-13262550D01*
X12729563Y-13262550D02*
X12748610Y-13272074D01*
X12748610Y-13272074D02*
X12758134Y-13291122D01*
X12758134Y-13291122D02*
X12758134Y-13395884D01*
X12758134Y-13291122D02*
X12767658Y-13272074D01*
X12767658Y-13272074D02*
X12786705Y-13262550D01*
X12786705Y-13262550D02*
X12815277Y-13262550D01*
X12815277Y-13262550D02*
X12834324Y-13272074D01*
X12834324Y-13272074D02*
X12843848Y-13291122D01*
X12843848Y-13291122D02*
X12843848Y-13395884D01*
X12939086Y-13395884D02*
X12939086Y-13262550D01*
X12939086Y-13281598D02*
X12948610Y-13272074D01*
X12948610Y-13272074D02*
X12967658Y-13262550D01*
X12967658Y-13262550D02*
X12996229Y-13262550D01*
X12996229Y-13262550D02*
X13015277Y-13272074D01*
X13015277Y-13272074D02*
X13024801Y-13291122D01*
X13024801Y-13291122D02*
X13024801Y-13395884D01*
X13024801Y-13291122D02*
X13034324Y-13272074D01*
X13034324Y-13272074D02*
X13053372Y-13262550D01*
X13053372Y-13262550D02*
X13081943Y-13262550D01*
X13081943Y-13262550D02*
X13100991Y-13272074D01*
X13100991Y-13272074D02*
X13110515Y-13291122D01*
X13110515Y-13291122D02*
X13110515Y-13395884D01*
X13500991Y-13186360D02*
X13329563Y-13443503D01*
X13758134Y-13195884D02*
X13777182Y-13195884D01*
X13777182Y-13195884D02*
X13796229Y-13205408D01*
X13796229Y-13205408D02*
X13805753Y-13214931D01*
X13805753Y-13214931D02*
X13815277Y-13233979D01*
X13815277Y-13233979D02*
X13824801Y-13272074D01*
X13824801Y-13272074D02*
X13824801Y-13319693D01*
X13824801Y-13319693D02*
X13815277Y-13357788D01*
X13815277Y-13357788D02*
X13805753Y-13376836D01*
X13805753Y-13376836D02*
X13796229Y-13386360D01*
X13796229Y-13386360D02*
X13777182Y-13395884D01*
X13777182Y-13395884D02*
X13758134Y-13395884D01*
X13758134Y-13395884D02*
X13739086Y-13386360D01*
X13739086Y-13386360D02*
X13729563Y-13376836D01*
X13729563Y-13376836D02*
X13720039Y-13357788D01*
X13720039Y-13357788D02*
X13710515Y-13319693D01*
X13710515Y-13319693D02*
X13710515Y-13272074D01*
X13710515Y-13272074D02*
X13720039Y-13233979D01*
X13720039Y-13233979D02*
X13729563Y-13214931D01*
X13729563Y-13214931D02*
X13739086Y-13205408D01*
X13739086Y-13205408D02*
X13758134Y-13195884D01*
X13910515Y-13376836D02*
X13920039Y-13386360D01*
X13920039Y-13386360D02*
X13910515Y-13395884D01*
X13910515Y-13395884D02*
X13900991Y-13386360D01*
X13900991Y-13386360D02*
X13910515Y-13376836D01*
X13910515Y-13376836D02*
X13910515Y-13395884D01*
X14043848Y-13195884D02*
X14062896Y-13195884D01*
X14062896Y-13195884D02*
X14081944Y-13205408D01*
X14081944Y-13205408D02*
X14091467Y-13214931D01*
X14091467Y-13214931D02*
X14100991Y-13233979D01*
X14100991Y-13233979D02*
X14110515Y-13272074D01*
X14110515Y-13272074D02*
X14110515Y-13319693D01*
X14110515Y-13319693D02*
X14100991Y-13357788D01*
X14100991Y-13357788D02*
X14091467Y-13376836D01*
X14091467Y-13376836D02*
X14081944Y-13386360D01*
X14081944Y-13386360D02*
X14062896Y-13395884D01*
X14062896Y-13395884D02*
X14043848Y-13395884D01*
X14043848Y-13395884D02*
X14024801Y-13386360D01*
X14024801Y-13386360D02*
X14015277Y-13376836D01*
X14015277Y-13376836D02*
X14005753Y-13357788D01*
X14005753Y-13357788D02*
X13996229Y-13319693D01*
X13996229Y-13319693D02*
X13996229Y-13272074D01*
X13996229Y-13272074D02*
X14005753Y-13233979D01*
X14005753Y-13233979D02*
X14015277Y-13214931D01*
X14015277Y-13214931D02*
X14024801Y-13205408D01*
X14024801Y-13205408D02*
X14043848Y-13195884D01*
X14281944Y-13195884D02*
X14243848Y-13195884D01*
X14243848Y-13195884D02*
X14224801Y-13205408D01*
X14224801Y-13205408D02*
X14215277Y-13214931D01*
X14215277Y-13214931D02*
X14196229Y-13243503D01*
X14196229Y-13243503D02*
X14186706Y-13281598D01*
X14186706Y-13281598D02*
X14186706Y-13357788D01*
X14186706Y-13357788D02*
X14196229Y-13376836D01*
X14196229Y-13376836D02*
X14205753Y-13386360D01*
X14205753Y-13386360D02*
X14224801Y-13395884D01*
X14224801Y-13395884D02*
X14262896Y-13395884D01*
X14262896Y-13395884D02*
X14281944Y-13386360D01*
X14281944Y-13386360D02*
X14291467Y-13376836D01*
X14291467Y-13376836D02*
X14300991Y-13357788D01*
X14300991Y-13357788D02*
X14300991Y-13310169D01*
X14300991Y-13310169D02*
X14291467Y-13291122D01*
X14291467Y-13291122D02*
X14281944Y-13281598D01*
X14281944Y-13281598D02*
X14262896Y-13272074D01*
X14262896Y-13272074D02*
X14224801Y-13272074D01*
X14224801Y-13272074D02*
X14205753Y-13281598D01*
X14205753Y-13281598D02*
X14196229Y-13291122D01*
X14196229Y-13291122D02*
X14186706Y-13310169D01*
X14367658Y-13195884D02*
X14491467Y-13195884D01*
X14491467Y-13195884D02*
X14424801Y-13272074D01*
X14424801Y-13272074D02*
X14453372Y-13272074D01*
X14453372Y-13272074D02*
X14472420Y-13281598D01*
X14472420Y-13281598D02*
X14481944Y-13291122D01*
X14481944Y-13291122D02*
X14491467Y-13310169D01*
X14491467Y-13310169D02*
X14491467Y-13357788D01*
X14491467Y-13357788D02*
X14481944Y-13376836D01*
X14481944Y-13376836D02*
X14472420Y-13386360D01*
X14472420Y-13386360D02*
X14453372Y-13395884D01*
X14453372Y-13395884D02*
X14396229Y-13395884D01*
X14396229Y-13395884D02*
X14377182Y-13386360D01*
X14377182Y-13386360D02*
X14367658Y-13376836D01*
X14615277Y-13195884D02*
X14634325Y-13195884D01*
X14634325Y-13195884D02*
X14653372Y-13205408D01*
X14653372Y-13205408D02*
X14662896Y-13214931D01*
X14662896Y-13214931D02*
X14672420Y-13233979D01*
X14672420Y-13233979D02*
X14681944Y-13272074D01*
X14681944Y-13272074D02*
X14681944Y-13319693D01*
X14681944Y-13319693D02*
X14672420Y-13357788D01*
X14672420Y-13357788D02*
X14662896Y-13376836D01*
X14662896Y-13376836D02*
X14653372Y-13386360D01*
X14653372Y-13386360D02*
X14634325Y-13395884D01*
X14634325Y-13395884D02*
X14615277Y-13395884D01*
X14615277Y-13395884D02*
X14596229Y-13386360D01*
X14596229Y-13386360D02*
X14586706Y-13376836D01*
X14586706Y-13376836D02*
X14577182Y-13357788D01*
X14577182Y-13357788D02*
X14567658Y-13319693D01*
X14567658Y-13319693D02*
X14567658Y-13272074D01*
X14567658Y-13272074D02*
X14577182Y-13233979D01*
X14577182Y-13233979D02*
X14586706Y-13214931D01*
X14586706Y-13214931D02*
X14596229Y-13205408D01*
X14596229Y-13205408D02*
X14615277Y-13195884D01*
X14758134Y-13195884D02*
X14758134Y-13233979D01*
X14834325Y-13195884D02*
X14834325Y-13233979D01*
X15129563Y-13472074D02*
X15120039Y-13462550D01*
X15120039Y-13462550D02*
X15100991Y-13433979D01*
X15100991Y-13433979D02*
X15091468Y-13414931D01*
X15091468Y-13414931D02*
X15081944Y-13386360D01*
X15081944Y-13386360D02*
X15072420Y-13338741D01*
X15072420Y-13338741D02*
X15072420Y-13300646D01*
X15072420Y-13300646D02*
X15081944Y-13253027D01*
X15081944Y-13253027D02*
X15091468Y-13224455D01*
X15091468Y-13224455D02*
X15100991Y-13205408D01*
X15100991Y-13205408D02*
X15120039Y-13176836D01*
X15120039Y-13176836D02*
X15129563Y-13167312D01*
X15310515Y-13395884D02*
X15196229Y-13395884D01*
X15253372Y-13395884D02*
X15253372Y-13195884D01*
X15253372Y-13195884D02*
X15234325Y-13224455D01*
X15234325Y-13224455D02*
X15215277Y-13243503D01*
X15215277Y-13243503D02*
X15196229Y-13253027D01*
X15548610Y-13395884D02*
X15548610Y-13195884D01*
X15634325Y-13395884D02*
X15634325Y-13291122D01*
X15634325Y-13291122D02*
X15624801Y-13272074D01*
X15624801Y-13272074D02*
X15605753Y-13262550D01*
X15605753Y-13262550D02*
X15577182Y-13262550D01*
X15577182Y-13262550D02*
X15558134Y-13272074D01*
X15558134Y-13272074D02*
X15548610Y-13281598D01*
X15758134Y-13395884D02*
X15739087Y-13386360D01*
X15739087Y-13386360D02*
X15729563Y-13376836D01*
X15729563Y-13376836D02*
X15720039Y-13357788D01*
X15720039Y-13357788D02*
X15720039Y-13300646D01*
X15720039Y-13300646D02*
X15729563Y-13281598D01*
X15729563Y-13281598D02*
X15739087Y-13272074D01*
X15739087Y-13272074D02*
X15758134Y-13262550D01*
X15758134Y-13262550D02*
X15786706Y-13262550D01*
X15786706Y-13262550D02*
X15805753Y-13272074D01*
X15805753Y-13272074D02*
X15815277Y-13281598D01*
X15815277Y-13281598D02*
X15824801Y-13300646D01*
X15824801Y-13300646D02*
X15824801Y-13357788D01*
X15824801Y-13357788D02*
X15815277Y-13376836D01*
X15815277Y-13376836D02*
X15805753Y-13386360D01*
X15805753Y-13386360D02*
X15786706Y-13395884D01*
X15786706Y-13395884D02*
X15758134Y-13395884D01*
X15939087Y-13395884D02*
X15920039Y-13386360D01*
X15920039Y-13386360D02*
X15910515Y-13367312D01*
X15910515Y-13367312D02*
X15910515Y-13195884D01*
X16091468Y-13386360D02*
X16072420Y-13395884D01*
X16072420Y-13395884D02*
X16034325Y-13395884D01*
X16034325Y-13395884D02*
X16015277Y-13386360D01*
X16015277Y-13386360D02*
X16005753Y-13367312D01*
X16005753Y-13367312D02*
X16005753Y-13291122D01*
X16005753Y-13291122D02*
X16015277Y-13272074D01*
X16015277Y-13272074D02*
X16034325Y-13262550D01*
X16034325Y-13262550D02*
X16072420Y-13262550D01*
X16072420Y-13262550D02*
X16091468Y-13272074D01*
X16091468Y-13272074D02*
X16100991Y-13291122D01*
X16100991Y-13291122D02*
X16100991Y-13310169D01*
X16100991Y-13310169D02*
X16005753Y-13329217D01*
X16167658Y-13472074D02*
X16177182Y-13462550D01*
X16177182Y-13462550D02*
X16196230Y-13433979D01*
X16196230Y-13433979D02*
X16205753Y-13414931D01*
X16205753Y-13414931D02*
X16215277Y-13386360D01*
X16215277Y-13386360D02*
X16224801Y-13338741D01*
X16224801Y-13338741D02*
X16224801Y-13300646D01*
X16224801Y-13300646D02*
X16215277Y-13253027D01*
X16215277Y-13253027D02*
X16205753Y-13224455D01*
X16205753Y-13224455D02*
X16196230Y-13205408D01*
X16196230Y-13205408D02*
X16177182Y-13176836D01*
X16177182Y-13176836D02*
X16167658Y-13167312D01*
X16529563Y-13472074D02*
X16520039Y-13462550D01*
X16520039Y-13462550D02*
X16500991Y-13433979D01*
X16500991Y-13433979D02*
X16491468Y-13414931D01*
X16491468Y-13414931D02*
X16481944Y-13386360D01*
X16481944Y-13386360D02*
X16472420Y-13338741D01*
X16472420Y-13338741D02*
X16472420Y-13300646D01*
X16472420Y-13300646D02*
X16481944Y-13253027D01*
X16481944Y-13253027D02*
X16491468Y-13224455D01*
X16491468Y-13224455D02*
X16500991Y-13205408D01*
X16500991Y-13205408D02*
X16520039Y-13176836D01*
X16520039Y-13176836D02*
X16529563Y-13167312D01*
X16605753Y-13262550D02*
X16605753Y-13395884D01*
X16605753Y-13281598D02*
X16615277Y-13272074D01*
X16615277Y-13272074D02*
X16634325Y-13262550D01*
X16634325Y-13262550D02*
X16662896Y-13262550D01*
X16662896Y-13262550D02*
X16681944Y-13272074D01*
X16681944Y-13272074D02*
X16691468Y-13291122D01*
X16691468Y-13291122D02*
X16691468Y-13395884D01*
X16815277Y-13395884D02*
X16796230Y-13386360D01*
X16796230Y-13386360D02*
X16786706Y-13376836D01*
X16786706Y-13376836D02*
X16777182Y-13357788D01*
X16777182Y-13357788D02*
X16777182Y-13300646D01*
X16777182Y-13300646D02*
X16786706Y-13281598D01*
X16786706Y-13281598D02*
X16796230Y-13272074D01*
X16796230Y-13272074D02*
X16815277Y-13262550D01*
X16815277Y-13262550D02*
X16843849Y-13262550D01*
X16843849Y-13262550D02*
X16862896Y-13272074D01*
X16862896Y-13272074D02*
X16872420Y-13281598D01*
X16872420Y-13281598D02*
X16881944Y-13300646D01*
X16881944Y-13300646D02*
X16881944Y-13357788D01*
X16881944Y-13357788D02*
X16872420Y-13376836D01*
X16872420Y-13376836D02*
X16862896Y-13386360D01*
X16862896Y-13386360D02*
X16843849Y-13395884D01*
X16843849Y-13395884D02*
X16815277Y-13395884D01*
X16939087Y-13262550D02*
X17015277Y-13262550D01*
X16967658Y-13195884D02*
X16967658Y-13367312D01*
X16967658Y-13367312D02*
X16977182Y-13386360D01*
X16977182Y-13386360D02*
X16996230Y-13395884D01*
X16996230Y-13395884D02*
X17015277Y-13395884D01*
X17234325Y-13262550D02*
X17234325Y-13462550D01*
X17234325Y-13272074D02*
X17253373Y-13262550D01*
X17253373Y-13262550D02*
X17291468Y-13262550D01*
X17291468Y-13262550D02*
X17310515Y-13272074D01*
X17310515Y-13272074D02*
X17320039Y-13281598D01*
X17320039Y-13281598D02*
X17329563Y-13300646D01*
X17329563Y-13300646D02*
X17329563Y-13357788D01*
X17329563Y-13357788D02*
X17320039Y-13376836D01*
X17320039Y-13376836D02*
X17310515Y-13386360D01*
X17310515Y-13386360D02*
X17291468Y-13395884D01*
X17291468Y-13395884D02*
X17253373Y-13395884D01*
X17253373Y-13395884D02*
X17234325Y-13386360D01*
X17443849Y-13395884D02*
X17424801Y-13386360D01*
X17424801Y-13386360D02*
X17415277Y-13367312D01*
X17415277Y-13367312D02*
X17415277Y-13195884D01*
X17605754Y-13395884D02*
X17605754Y-13291122D01*
X17605754Y-13291122D02*
X17596230Y-13272074D01*
X17596230Y-13272074D02*
X17577182Y-13262550D01*
X17577182Y-13262550D02*
X17539087Y-13262550D01*
X17539087Y-13262550D02*
X17520039Y-13272074D01*
X17605754Y-13386360D02*
X17586706Y-13395884D01*
X17586706Y-13395884D02*
X17539087Y-13395884D01*
X17539087Y-13395884D02*
X17520039Y-13386360D01*
X17520039Y-13386360D02*
X17510515Y-13367312D01*
X17510515Y-13367312D02*
X17510515Y-13348265D01*
X17510515Y-13348265D02*
X17520039Y-13329217D01*
X17520039Y-13329217D02*
X17539087Y-13319693D01*
X17539087Y-13319693D02*
X17586706Y-13319693D01*
X17586706Y-13319693D02*
X17605754Y-13310169D01*
X17672420Y-13262550D02*
X17748611Y-13262550D01*
X17700992Y-13195884D02*
X17700992Y-13367312D01*
X17700992Y-13367312D02*
X17710515Y-13386360D01*
X17710515Y-13386360D02*
X17729563Y-13395884D01*
X17729563Y-13395884D02*
X17748611Y-13395884D01*
X17891468Y-13386360D02*
X17872420Y-13395884D01*
X17872420Y-13395884D02*
X17834325Y-13395884D01*
X17834325Y-13395884D02*
X17815277Y-13386360D01*
X17815277Y-13386360D02*
X17805754Y-13367312D01*
X17805754Y-13367312D02*
X17805754Y-13291122D01*
X17805754Y-13291122D02*
X17815277Y-13272074D01*
X17815277Y-13272074D02*
X17834325Y-13262550D01*
X17834325Y-13262550D02*
X17872420Y-13262550D01*
X17872420Y-13262550D02*
X17891468Y-13272074D01*
X17891468Y-13272074D02*
X17900992Y-13291122D01*
X17900992Y-13291122D02*
X17900992Y-13310169D01*
X17900992Y-13310169D02*
X17805754Y-13329217D01*
X18072420Y-13395884D02*
X18072420Y-13195884D01*
X18072420Y-13386360D02*
X18053373Y-13395884D01*
X18053373Y-13395884D02*
X18015277Y-13395884D01*
X18015277Y-13395884D02*
X17996230Y-13386360D01*
X17996230Y-13386360D02*
X17986706Y-13376836D01*
X17986706Y-13376836D02*
X17977182Y-13357788D01*
X17977182Y-13357788D02*
X17977182Y-13300646D01*
X17977182Y-13300646D02*
X17986706Y-13281598D01*
X17986706Y-13281598D02*
X17996230Y-13272074D01*
X17996230Y-13272074D02*
X18015277Y-13262550D01*
X18015277Y-13262550D02*
X18053373Y-13262550D01*
X18053373Y-13262550D02*
X18072420Y-13272074D01*
X18148611Y-13472074D02*
X18158135Y-13462550D01*
X18158135Y-13462550D02*
X18177182Y-13433979D01*
X18177182Y-13433979D02*
X18186706Y-13414931D01*
X18186706Y-13414931D02*
X18196230Y-13386360D01*
X18196230Y-13386360D02*
X18205754Y-13338741D01*
X18205754Y-13338741D02*
X18205754Y-13300646D01*
X18205754Y-13300646D02*
X18196230Y-13253027D01*
X18196230Y-13253027D02*
X18186706Y-13224455D01*
X18186706Y-13224455D02*
X18177182Y-13205408D01*
X18177182Y-13205408D02*
X18158135Y-13176836D01*
X18158135Y-13176836D02*
X18148611Y-13167312D01*
M02*
