%TF.GenerationSoftware,KiCad,Pcbnew,7.0.11-7.0.11~ubuntu22.04.1*%
%TF.CreationDate,2025-04-19T23:19:54+01:00*%
%TF.ProjectId,Mixed_Signal_Design,4d697865-645f-4536-9967-6e616c5f4465,rev?*%
%TF.SameCoordinates,Original*%
%TF.FileFunction,Copper,L3,Inr*%
%TF.FilePolarity,Positive*%
%FSLAX46Y46*%
G04 Gerber Fmt 4.6, Leading zero omitted, Abs format (unit mm)*
G04 Created by KiCad (PCBNEW 7.0.11-7.0.11~ubuntu22.04.1) date 2025-04-19 23:19:54*
%MOMM*%
%LPD*%
G01*
G04 APERTURE LIST*
%TA.AperFunction,ComponentPad*%
%ADD10R,1.700000X1.700000*%
%TD*%
%TA.AperFunction,ComponentPad*%
%ADD11O,1.700000X1.700000*%
%TD*%
%TA.AperFunction,ComponentPad*%
%ADD12C,3.500000*%
%TD*%
%TA.AperFunction,ComponentPad*%
%ADD13R,4.000000X2.000000*%
%TD*%
%TA.AperFunction,ComponentPad*%
%ADD14O,3.300000X2.000000*%
%TD*%
%TA.AperFunction,ComponentPad*%
%ADD15O,2.000000X3.500000*%
%TD*%
%TA.AperFunction,ViaPad*%
%ADD16C,0.400000*%
%TD*%
G04 APERTURE END LIST*
D10*
%TO.N,ADC1*%
%TO.C,J4*%
X164846000Y-99695000D03*
D11*
%TO.N,ADC2*%
X164846000Y-102235000D03*
%TO.N,PC0*%
X164846000Y-104775000D03*
%TO.N,PC1*%
X164846000Y-107315000D03*
%TO.N,PC2*%
X164846000Y-109855000D03*
%TO.N,PC3*%
X164846000Y-112395000D03*
%TO.N,PC4*%
X164846000Y-114935000D03*
%TO.N,PC5*%
X164846000Y-117475000D03*
%TD*%
D12*
%TO.N,GNDD*%
%TO.C,H1*%
X165735000Y-123317000D03*
%TD*%
D10*
%TO.N,PB4*%
%TO.C,J2*%
X118745000Y-95377000D03*
D11*
%TO.N,+3V3D*%
X118745000Y-97917000D03*
%TO.N,PB5*%
X118745000Y-100457000D03*
%TO.N,PB3*%
X118745000Y-102997000D03*
%TO.N,RST*%
X118745000Y-105537000D03*
%TO.N,GNDD*%
X118745000Y-108077000D03*
%TD*%
D12*
%TO.N,GNDD*%
%TO.C,H3*%
X119126000Y-89789000D03*
%TD*%
D13*
%TO.N,+9VD*%
%TO.C,J1*%
X121920000Y-114412000D03*
D14*
%TO.N,GNDD*%
X121920000Y-120412000D03*
D15*
%TO.N,N/C*%
X117420000Y-121412000D03*
X126420000Y-121412000D03*
%TD*%
D12*
%TO.N,GNDD*%
%TO.C,H4*%
X132588000Y-116459000D03*
%TD*%
%TO.N,GNDD*%
%TO.C,H2*%
X165735000Y-89662000D03*
%TD*%
D16*
%TO.N,GNDD*%
X151003000Y-88646000D03*
X139192000Y-88519000D03*
X144780000Y-88519000D03*
X122301000Y-93726000D03*
X125730000Y-88646000D03*
X123317000Y-88646000D03*
X158369000Y-90805000D03*
X157099000Y-90805000D03*
X155702000Y-90805000D03*
X158369000Y-89281000D03*
X157099000Y-89281000D03*
X155702000Y-89281000D03*
%TO.N,Net-(D2-K)*%
X130048000Y-109220000D03*
X146939000Y-123317000D03*
X141986000Y-108839000D03*
%TO.N,GNDA*%
X149987000Y-101473000D03*
X156210000Y-96012000D03*
%TO.N,+5VD*%
X136652000Y-110744000D03*
X143891000Y-125476000D03*
X136652000Y-101473000D03*
X136652000Y-103632000D03*
X143002000Y-120650000D03*
X131699000Y-107061000D03*
X153797000Y-125476000D03*
X136652000Y-105918000D03*
%TO.N,PB5*%
X144018000Y-100838000D03*
%TO.N,RST*%
X137287000Y-119253000D03*
X149860000Y-112649000D03*
%TO.N,PC0*%
X146685000Y-105664000D03*
%TO.N,PC1*%
X146685000Y-106426000D03*
%TO.N,PC2*%
X146685000Y-109601000D03*
%TO.N,PC3*%
X147574000Y-110236000D03*
%TO.N,PC4*%
X148463000Y-110871000D03*
%TO.N,PC5*%
X149098000Y-111760000D03*
%TO.N,PB3*%
X147447000Y-101092000D03*
%TO.N,PB4*%
X145669000Y-99314000D03*
%TO.N,GNDD*%
X147955000Y-119761000D03*
X140716000Y-108331000D03*
X155448000Y-107696000D03*
X129413000Y-119253000D03*
X133223000Y-94742000D03*
X118745000Y-112014000D03*
X141478000Y-95250000D03*
X147955000Y-117729000D03*
X138430000Y-96393000D03*
X138430000Y-95123000D03*
X131699000Y-94742000D03*
X140589000Y-106172000D03*
X128270000Y-116078000D03*
X141478000Y-96266000D03*
X133731000Y-101600000D03*
X157480000Y-124079000D03*
X121793000Y-103759000D03*
X139827000Y-106172000D03*
X140716000Y-125222000D03*
X133731000Y-103886000D03*
X133731000Y-106299000D03*
X143383000Y-95758000D03*
X139192000Y-123444000D03*
X121793000Y-102489000D03*
X147701000Y-115316000D03*
X160147000Y-123190000D03*
X128397000Y-94742000D03*
X139192000Y-125222000D03*
X160274000Y-125095000D03*
X128397000Y-118745000D03*
X157480000Y-107696000D03*
X130048000Y-94742000D03*
X128397000Y-93091000D03*
X138557000Y-101346000D03*
%TO.N,ADC1*%
X147193000Y-102489000D03*
%TO.N,Net-(U4-AREF)*%
X146812000Y-103251000D03*
X158877000Y-103886000D03*
%TO.N,ADC2*%
X146685000Y-104775000D03*
%TD*%
%TA.AperFunction,Conductor*%
%TO.N,+5VD*%
G36*
X118549131Y-87395685D02*
G01*
X118594886Y-87448489D01*
X118604830Y-87517647D01*
X118575805Y-87581203D01*
X118521951Y-87617419D01*
X118262919Y-87705349D01*
X117998334Y-87835828D01*
X117753041Y-87999728D01*
X117531241Y-88194241D01*
X117336728Y-88416041D01*
X117172828Y-88661334D01*
X117042349Y-88925919D01*
X116947521Y-89205269D01*
X116947518Y-89205283D01*
X116889968Y-89494609D01*
X116889964Y-89494636D01*
X116870671Y-89788992D01*
X116870671Y-89789007D01*
X116889964Y-90083363D01*
X116889965Y-90083373D01*
X116889966Y-90083380D01*
X116922257Y-90245722D01*
X116947518Y-90372716D01*
X116947521Y-90372730D01*
X117042349Y-90652080D01*
X117172825Y-90916660D01*
X117172829Y-90916667D01*
X117336725Y-91161955D01*
X117531241Y-91383758D01*
X117753043Y-91578273D01*
X117998335Y-91742172D01*
X118262923Y-91872652D01*
X118542278Y-91967481D01*
X118831620Y-92025034D01*
X118859888Y-92026886D01*
X119125993Y-92044329D01*
X119126000Y-92044329D01*
X119126007Y-92044329D01*
X119361675Y-92028881D01*
X119420380Y-92025034D01*
X119709722Y-91967481D01*
X119989077Y-91872652D01*
X120253665Y-91742172D01*
X120498957Y-91578273D01*
X120720758Y-91383758D01*
X120915273Y-91161957D01*
X121079172Y-90916665D01*
X121134239Y-90805000D01*
X154996355Y-90805000D01*
X155016859Y-90973869D01*
X155016860Y-90973874D01*
X155077182Y-91132931D01*
X155097218Y-91161957D01*
X155173817Y-91272929D01*
X155279505Y-91366560D01*
X155301150Y-91385736D01*
X155451773Y-91464789D01*
X155451775Y-91464790D01*
X155616944Y-91505500D01*
X155787056Y-91505500D01*
X155952225Y-91464790D01*
X156031692Y-91423081D01*
X156102849Y-91385736D01*
X156102850Y-91385734D01*
X156102852Y-91385734D01*
X156230183Y-91272929D01*
X156298451Y-91174025D01*
X156352733Y-91130037D01*
X156422181Y-91122377D01*
X156484746Y-91153480D01*
X156502547Y-91174023D01*
X156530398Y-91214372D01*
X156570816Y-91272928D01*
X156698150Y-91385736D01*
X156848773Y-91464789D01*
X156848775Y-91464790D01*
X157013944Y-91505500D01*
X157184056Y-91505500D01*
X157349225Y-91464790D01*
X157428692Y-91423081D01*
X157499849Y-91385736D01*
X157499850Y-91385734D01*
X157499852Y-91385734D01*
X157627183Y-91272929D01*
X157631950Y-91266021D01*
X157686230Y-91222033D01*
X157755678Y-91214372D01*
X157818244Y-91245473D01*
X157836046Y-91266017D01*
X157840817Y-91272929D01*
X157942072Y-91362633D01*
X157968150Y-91385736D01*
X158118773Y-91464789D01*
X158118775Y-91464790D01*
X158283944Y-91505500D01*
X158454056Y-91505500D01*
X158619225Y-91464790D01*
X158698692Y-91423081D01*
X158769849Y-91385736D01*
X158769850Y-91385734D01*
X158769852Y-91385734D01*
X158897183Y-91272929D01*
X158993818Y-91132930D01*
X159054140Y-90973872D01*
X159074645Y-90805000D01*
X159054140Y-90636128D01*
X158993818Y-90477070D01*
X158897183Y-90337071D01*
X158769852Y-90224266D01*
X158769850Y-90224265D01*
X158769849Y-90224264D01*
X158633679Y-90152796D01*
X158583467Y-90104212D01*
X158567492Y-90036193D01*
X158590827Y-89970335D01*
X158633679Y-89933204D01*
X158658195Y-89920336D01*
X158769852Y-89861734D01*
X158897183Y-89748929D01*
X158993818Y-89608930D01*
X159054140Y-89449872D01*
X159074645Y-89281000D01*
X159054140Y-89112128D01*
X159049440Y-89099736D01*
X158993817Y-88953068D01*
X158959476Y-88903318D01*
X158897183Y-88813071D01*
X158769852Y-88700266D01*
X158769849Y-88700263D01*
X158619226Y-88621210D01*
X158454056Y-88580500D01*
X158283944Y-88580500D01*
X158118773Y-88621210D01*
X157968150Y-88700263D01*
X157840815Y-88813072D01*
X157836049Y-88819978D01*
X157781766Y-88863968D01*
X157712317Y-88871627D01*
X157649753Y-88840523D01*
X157631951Y-88819978D01*
X157627184Y-88813072D01*
X157499849Y-88700263D01*
X157349226Y-88621210D01*
X157184056Y-88580500D01*
X157013944Y-88580500D01*
X156848773Y-88621210D01*
X156698150Y-88700263D01*
X156570816Y-88813072D01*
X156502550Y-88911972D01*
X156448267Y-88955963D01*
X156378818Y-88963622D01*
X156316253Y-88932518D01*
X156298450Y-88911972D01*
X156290028Y-88899772D01*
X156230183Y-88813071D01*
X156102852Y-88700266D01*
X156102849Y-88700263D01*
X155952226Y-88621210D01*
X155787056Y-88580500D01*
X155616944Y-88580500D01*
X155451773Y-88621210D01*
X155301150Y-88700263D01*
X155173816Y-88813072D01*
X155077182Y-88953068D01*
X155016860Y-89112125D01*
X155016859Y-89112130D01*
X154996355Y-89281000D01*
X155016859Y-89449869D01*
X155016860Y-89449874D01*
X155077182Y-89608931D01*
X155133398Y-89690372D01*
X155173817Y-89748929D01*
X155279505Y-89842560D01*
X155301150Y-89861736D01*
X155437320Y-89933204D01*
X155487533Y-89981789D01*
X155503507Y-90049808D01*
X155480172Y-90115665D01*
X155437320Y-90152796D01*
X155301150Y-90224263D01*
X155173816Y-90337072D01*
X155077182Y-90477068D01*
X155016860Y-90636125D01*
X155016859Y-90636130D01*
X154996355Y-90805000D01*
X121134239Y-90805000D01*
X121209652Y-90652077D01*
X121304481Y-90372722D01*
X121362034Y-90083380D01*
X121368712Y-89981500D01*
X121381329Y-89789007D01*
X121381329Y-89788992D01*
X121362035Y-89494636D01*
X121362034Y-89494620D01*
X121304481Y-89205278D01*
X121209652Y-88925923D01*
X121079172Y-88661336D01*
X121068925Y-88646000D01*
X122611355Y-88646000D01*
X122631859Y-88814869D01*
X122631860Y-88814874D01*
X122692182Y-88973931D01*
X122754475Y-89064177D01*
X122788817Y-89113929D01*
X122891919Y-89205269D01*
X122916150Y-89226736D01*
X123066773Y-89305789D01*
X123066775Y-89305790D01*
X123231944Y-89346500D01*
X123402056Y-89346500D01*
X123567225Y-89305790D01*
X123646692Y-89264081D01*
X123717849Y-89226736D01*
X123717850Y-89226734D01*
X123717852Y-89226734D01*
X123845183Y-89113929D01*
X123941818Y-88973930D01*
X124002140Y-88814872D01*
X124022645Y-88646000D01*
X125024355Y-88646000D01*
X125044859Y-88814869D01*
X125044860Y-88814874D01*
X125105182Y-88973931D01*
X125167475Y-89064177D01*
X125201817Y-89113929D01*
X125304919Y-89205269D01*
X125329150Y-89226736D01*
X125479773Y-89305789D01*
X125479775Y-89305790D01*
X125644944Y-89346500D01*
X125815056Y-89346500D01*
X125980225Y-89305790D01*
X126059692Y-89264081D01*
X126130849Y-89226736D01*
X126130850Y-89226734D01*
X126130852Y-89226734D01*
X126258183Y-89113929D01*
X126354818Y-88973930D01*
X126415140Y-88814872D01*
X126435645Y-88646000D01*
X126420224Y-88519000D01*
X138486355Y-88519000D01*
X138506859Y-88687869D01*
X138506860Y-88687874D01*
X138567182Y-88846931D01*
X138621707Y-88925923D01*
X138663817Y-88986929D01*
X138766919Y-89078269D01*
X138791150Y-89099736D01*
X138941773Y-89178789D01*
X138941775Y-89178790D01*
X139106944Y-89219500D01*
X139277056Y-89219500D01*
X139442225Y-89178790D01*
X139569234Y-89112130D01*
X139592849Y-89099736D01*
X139592850Y-89099734D01*
X139592852Y-89099734D01*
X139720183Y-88986929D01*
X139816818Y-88846930D01*
X139877140Y-88687872D01*
X139897645Y-88519000D01*
X144074355Y-88519000D01*
X144094859Y-88687869D01*
X144094860Y-88687874D01*
X144155182Y-88846931D01*
X144209707Y-88925923D01*
X144251817Y-88986929D01*
X144354919Y-89078269D01*
X144379150Y-89099736D01*
X144529773Y-89178789D01*
X144529775Y-89178790D01*
X144694944Y-89219500D01*
X144865056Y-89219500D01*
X145030225Y-89178790D01*
X145157234Y-89112130D01*
X145180849Y-89099736D01*
X145180850Y-89099734D01*
X145180852Y-89099734D01*
X145308183Y-88986929D01*
X145404818Y-88846930D01*
X145465140Y-88687872D01*
X145470224Y-88646000D01*
X150297355Y-88646000D01*
X150317859Y-88814869D01*
X150317860Y-88814874D01*
X150378182Y-88973931D01*
X150440475Y-89064177D01*
X150474817Y-89113929D01*
X150577919Y-89205269D01*
X150602150Y-89226736D01*
X150752773Y-89305789D01*
X150752775Y-89305790D01*
X150917944Y-89346500D01*
X151088056Y-89346500D01*
X151253225Y-89305790D01*
X151332692Y-89264081D01*
X151403849Y-89226736D01*
X151403850Y-89226734D01*
X151403852Y-89226734D01*
X151531183Y-89113929D01*
X151627818Y-88973930D01*
X151688140Y-88814872D01*
X151708645Y-88646000D01*
X151688140Y-88477128D01*
X151627818Y-88318070D01*
X151531183Y-88178071D01*
X151436316Y-88094026D01*
X151403849Y-88065263D01*
X151253226Y-87986210D01*
X151088056Y-87945500D01*
X150917944Y-87945500D01*
X150752773Y-87986210D01*
X150602150Y-88065263D01*
X150474816Y-88178072D01*
X150378182Y-88318068D01*
X150317860Y-88477125D01*
X150317859Y-88477130D01*
X150297355Y-88646000D01*
X145470224Y-88646000D01*
X145485645Y-88519000D01*
X145465140Y-88350128D01*
X145404818Y-88191070D01*
X145395845Y-88178071D01*
X145317979Y-88065263D01*
X145308183Y-88051071D01*
X145180852Y-87938266D01*
X145180849Y-87938263D01*
X145030226Y-87859210D01*
X144865056Y-87818500D01*
X144694944Y-87818500D01*
X144529773Y-87859210D01*
X144379150Y-87938263D01*
X144251816Y-88051072D01*
X144155182Y-88191068D01*
X144094860Y-88350125D01*
X144094859Y-88350130D01*
X144074355Y-88519000D01*
X139897645Y-88519000D01*
X139877140Y-88350128D01*
X139816818Y-88191070D01*
X139807845Y-88178071D01*
X139729979Y-88065263D01*
X139720183Y-88051071D01*
X139592852Y-87938266D01*
X139592849Y-87938263D01*
X139442226Y-87859210D01*
X139277056Y-87818500D01*
X139106944Y-87818500D01*
X138941773Y-87859210D01*
X138791150Y-87938263D01*
X138663816Y-88051072D01*
X138567182Y-88191068D01*
X138506860Y-88350125D01*
X138506859Y-88350130D01*
X138486355Y-88519000D01*
X126420224Y-88519000D01*
X126415140Y-88477128D01*
X126354818Y-88318070D01*
X126258183Y-88178071D01*
X126163316Y-88094026D01*
X126130849Y-88065263D01*
X125980226Y-87986210D01*
X125815056Y-87945500D01*
X125644944Y-87945500D01*
X125479773Y-87986210D01*
X125329150Y-88065263D01*
X125201816Y-88178072D01*
X125105182Y-88318068D01*
X125044860Y-88477125D01*
X125044859Y-88477130D01*
X125024355Y-88646000D01*
X124022645Y-88646000D01*
X124002140Y-88477128D01*
X123941818Y-88318070D01*
X123845183Y-88178071D01*
X123750316Y-88094026D01*
X123717849Y-88065263D01*
X123567226Y-87986210D01*
X123402056Y-87945500D01*
X123231944Y-87945500D01*
X123066773Y-87986210D01*
X122916150Y-88065263D01*
X122788816Y-88178072D01*
X122692182Y-88318068D01*
X122631860Y-88477125D01*
X122631859Y-88477130D01*
X122611355Y-88646000D01*
X121068925Y-88646000D01*
X120915273Y-88416043D01*
X120803895Y-88289041D01*
X120720758Y-88194241D01*
X120498955Y-87999725D01*
X120253667Y-87835829D01*
X120253660Y-87835825D01*
X119989080Y-87705349D01*
X119730049Y-87617419D01*
X119672895Y-87577230D01*
X119646542Y-87512521D01*
X119659356Y-87443836D01*
X119707271Y-87392983D01*
X119769908Y-87376000D01*
X164750437Y-87376000D01*
X164817476Y-87395685D01*
X164863231Y-87448489D01*
X164873175Y-87517647D01*
X164844150Y-87581203D01*
X164805281Y-87611212D01*
X164607334Y-87708828D01*
X164362041Y-87872728D01*
X164140241Y-88067241D01*
X163945728Y-88289041D01*
X163781828Y-88534334D01*
X163651349Y-88798919D01*
X163556521Y-89078269D01*
X163556518Y-89078283D01*
X163498968Y-89367609D01*
X163498964Y-89367636D01*
X163479671Y-89661992D01*
X163479671Y-89662007D01*
X163498964Y-89956363D01*
X163498965Y-89956373D01*
X163498966Y-89956380D01*
X163498968Y-89956390D01*
X163556518Y-90245716D01*
X163556521Y-90245730D01*
X163651349Y-90525080D01*
X163781825Y-90789660D01*
X163781829Y-90789667D01*
X163945725Y-91034955D01*
X164140241Y-91256758D01*
X164362044Y-91451274D01*
X164443199Y-91505500D01*
X164607335Y-91615172D01*
X164871923Y-91745652D01*
X165151278Y-91840481D01*
X165440620Y-91898034D01*
X165468888Y-91899886D01*
X165734993Y-91917329D01*
X165735000Y-91917329D01*
X165735007Y-91917329D01*
X165970675Y-91901881D01*
X166029380Y-91898034D01*
X166318722Y-91840481D01*
X166598077Y-91745652D01*
X166862665Y-91615172D01*
X167107957Y-91451273D01*
X167329758Y-91256758D01*
X167524273Y-91034957D01*
X167688172Y-90789665D01*
X167818652Y-90525077D01*
X167913481Y-90245722D01*
X167971034Y-89956380D01*
X167977237Y-89861736D01*
X167990329Y-89662007D01*
X167990329Y-89661992D01*
X167971035Y-89367636D01*
X167971034Y-89367620D01*
X167913481Y-89078278D01*
X167818652Y-88798923D01*
X167688172Y-88534336D01*
X167524273Y-88289043D01*
X167481655Y-88240447D01*
X167329758Y-88067241D01*
X167107955Y-87872725D01*
X166862667Y-87708829D01*
X166862660Y-87708825D01*
X166664720Y-87611212D01*
X166613301Y-87563907D01*
X166595619Y-87496311D01*
X166617289Y-87429887D01*
X166671431Y-87385723D01*
X166719564Y-87376000D01*
X168151813Y-87376000D01*
X168218852Y-87395685D01*
X168264607Y-87448489D01*
X168275810Y-87499184D01*
X168440913Y-112594736D01*
X168525409Y-125438221D01*
X168528179Y-125859184D01*
X168508936Y-125926352D01*
X168456434Y-125972453D01*
X168404182Y-125984000D01*
X160590590Y-125984000D01*
X160523551Y-125964315D01*
X160477796Y-125911511D01*
X160467852Y-125842353D01*
X160496877Y-125778797D01*
X160532964Y-125750204D01*
X160674849Y-125675736D01*
X160674850Y-125675734D01*
X160674852Y-125675734D01*
X160802183Y-125562929D01*
X160898818Y-125422930D01*
X160959140Y-125263872D01*
X160979645Y-125095000D01*
X160959140Y-124926128D01*
X160898818Y-124767070D01*
X160889845Y-124754071D01*
X160824730Y-124659736D01*
X160802183Y-124627071D01*
X160674852Y-124514266D01*
X160674849Y-124514263D01*
X160524226Y-124435210D01*
X160359056Y-124394500D01*
X160188944Y-124394500D01*
X160023773Y-124435210D01*
X159873150Y-124514263D01*
X159745816Y-124627072D01*
X159649182Y-124767068D01*
X159588860Y-124926125D01*
X159588859Y-124926130D01*
X159568355Y-125095000D01*
X159588859Y-125263869D01*
X159588860Y-125263874D01*
X159649182Y-125422931D01*
X159699261Y-125495481D01*
X159745817Y-125562929D01*
X159851505Y-125656560D01*
X159873150Y-125675736D01*
X160015036Y-125750204D01*
X160065249Y-125798789D01*
X160081223Y-125866808D01*
X160057888Y-125932665D01*
X160002651Y-125975452D01*
X159957410Y-125984000D01*
X141239206Y-125984000D01*
X141172167Y-125964315D01*
X141126412Y-125911511D01*
X141116468Y-125842353D01*
X141145493Y-125778797D01*
X141156973Y-125767189D01*
X141244183Y-125689929D01*
X141340818Y-125549930D01*
X141401140Y-125390872D01*
X141421645Y-125222000D01*
X141401140Y-125053128D01*
X141340818Y-124894070D01*
X141244183Y-124754071D01*
X141149316Y-124670026D01*
X141116849Y-124641263D01*
X140966226Y-124562210D01*
X140801056Y-124521500D01*
X140630944Y-124521500D01*
X140465773Y-124562210D01*
X140315150Y-124641263D01*
X140187816Y-124754072D01*
X140091182Y-124894068D01*
X140091182Y-124894069D01*
X140069942Y-124950076D01*
X140027764Y-125005779D01*
X139962167Y-125029836D01*
X139893976Y-125014609D01*
X139844843Y-124964933D01*
X139838058Y-124950076D01*
X139816818Y-124894070D01*
X139720183Y-124754071D01*
X139625316Y-124670026D01*
X139592849Y-124641263D01*
X139442226Y-124562210D01*
X139277056Y-124521500D01*
X139106944Y-124521500D01*
X138941773Y-124562210D01*
X138791150Y-124641263D01*
X138663816Y-124754072D01*
X138567182Y-124894068D01*
X138506860Y-125053125D01*
X138506859Y-125053130D01*
X138486355Y-125222000D01*
X138506859Y-125390869D01*
X138506860Y-125390874D01*
X138567182Y-125549931D01*
X138582643Y-125572329D01*
X138663817Y-125689929D01*
X138751022Y-125767185D01*
X138788148Y-125826374D01*
X138787380Y-125896239D01*
X138748963Y-125954599D01*
X138685092Y-125982924D01*
X138668794Y-125984000D01*
X116327782Y-125984000D01*
X116260743Y-125964315D01*
X116214988Y-125911511D01*
X116203788Y-125861224D01*
X116202860Y-125767184D01*
X116178990Y-123348378D01*
X116198012Y-123281150D01*
X116250362Y-123234876D01*
X116319419Y-123224251D01*
X116383258Y-123252647D01*
X116394213Y-123263174D01*
X116400256Y-123269738D01*
X116596491Y-123422474D01*
X116815190Y-123540828D01*
X117050386Y-123621571D01*
X117295665Y-123662500D01*
X117544335Y-123662500D01*
X117789614Y-123621571D01*
X118024810Y-123540828D01*
X118243509Y-123422474D01*
X118256966Y-123412000D01*
X120864417Y-123412000D01*
X120884699Y-123617932D01*
X120896832Y-123657929D01*
X120944768Y-123815954D01*
X121042315Y-123998450D01*
X121042317Y-123998452D01*
X121173589Y-124158410D01*
X121270209Y-124237702D01*
X121333550Y-124289685D01*
X121516046Y-124387232D01*
X121714066Y-124447300D01*
X121714065Y-124447300D01*
X121752647Y-124451100D01*
X121868392Y-124462500D01*
X121868395Y-124462500D01*
X121971605Y-124462500D01*
X121971608Y-124462500D01*
X122125934Y-124447300D01*
X122323954Y-124387232D01*
X122506450Y-124289685D01*
X122666410Y-124158410D01*
X122797685Y-123998450D01*
X122895232Y-123815954D01*
X122955300Y-123617934D01*
X122975583Y-123412000D01*
X122955300Y-123206066D01*
X122895232Y-123008046D01*
X122797685Y-122825550D01*
X122724412Y-122736266D01*
X122666410Y-122665589D01*
X122506452Y-122534317D01*
X122506453Y-122534317D01*
X122506450Y-122534315D01*
X122323954Y-122436768D01*
X122125934Y-122376700D01*
X122125932Y-122376699D01*
X122125934Y-122376699D01*
X122006805Y-122364966D01*
X121971608Y-122361500D01*
X121868392Y-122361500D01*
X121830298Y-122365251D01*
X121714067Y-122376699D01*
X121516043Y-122436769D01*
X121417392Y-122489500D01*
X121333550Y-122534315D01*
X121333548Y-122534316D01*
X121333547Y-122534317D01*
X121173589Y-122665589D01*
X121046158Y-122820867D01*
X121042315Y-122825550D01*
X121022157Y-122863263D01*
X120944769Y-123008043D01*
X120884699Y-123206067D01*
X120864417Y-123412000D01*
X118256966Y-123412000D01*
X118439744Y-123269738D01*
X118608164Y-123086785D01*
X118744173Y-122878607D01*
X118844063Y-122650881D01*
X118905108Y-122409821D01*
X118907853Y-122376700D01*
X118920499Y-122224077D01*
X124919500Y-122224077D01*
X124934890Y-122409813D01*
X124934892Y-122409824D01*
X124995936Y-122650881D01*
X125095826Y-122878606D01*
X125231833Y-123086782D01*
X125231836Y-123086785D01*
X125400256Y-123269738D01*
X125596491Y-123422474D01*
X125815190Y-123540828D01*
X126050386Y-123621571D01*
X126295665Y-123662500D01*
X126544335Y-123662500D01*
X126789614Y-123621571D01*
X127024810Y-123540828D01*
X127203732Y-123444000D01*
X138486355Y-123444000D01*
X138506859Y-123612869D01*
X138506860Y-123612874D01*
X138567182Y-123771931D01*
X138620925Y-123849790D01*
X138663817Y-123911929D01*
X138761479Y-123998450D01*
X138791150Y-124024736D01*
X138941773Y-124103789D01*
X138941775Y-124103790D01*
X139106944Y-124144500D01*
X139277056Y-124144500D01*
X139442225Y-124103790D01*
X139489457Y-124079000D01*
X156774355Y-124079000D01*
X156794859Y-124247869D01*
X156794860Y-124247874D01*
X156855182Y-124406931D01*
X156893539Y-124462500D01*
X156951817Y-124546929D01*
X157042279Y-124627071D01*
X157079150Y-124659736D01*
X157229773Y-124738789D01*
X157229775Y-124738790D01*
X157394944Y-124779500D01*
X157565056Y-124779500D01*
X157730225Y-124738790D01*
X157823271Y-124689955D01*
X157880849Y-124659736D01*
X157880850Y-124659734D01*
X157880852Y-124659734D01*
X158008183Y-124546929D01*
X158104818Y-124406930D01*
X158165140Y-124247872D01*
X158185645Y-124079000D01*
X158165140Y-123910128D01*
X158160440Y-123897736D01*
X158104817Y-123751068D01*
X158040527Y-123657929D01*
X158008183Y-123611071D01*
X157880852Y-123498266D01*
X157880849Y-123498263D01*
X157730226Y-123419210D01*
X157565056Y-123378500D01*
X157394944Y-123378500D01*
X157229773Y-123419210D01*
X157079150Y-123498263D01*
X156951816Y-123611072D01*
X156855182Y-123751068D01*
X156794860Y-123910125D01*
X156794859Y-123910130D01*
X156774355Y-124079000D01*
X139489457Y-124079000D01*
X139521692Y-124062081D01*
X139592849Y-124024736D01*
X139592850Y-124024734D01*
X139592852Y-124024734D01*
X139720183Y-123911929D01*
X139816818Y-123771930D01*
X139877140Y-123612872D01*
X139897645Y-123444000D01*
X139882224Y-123317000D01*
X146233355Y-123317000D01*
X146253859Y-123485869D01*
X146253860Y-123485874D01*
X146314182Y-123644931D01*
X146376475Y-123735177D01*
X146410817Y-123784929D01*
X146516505Y-123878560D01*
X146538150Y-123897736D01*
X146688773Y-123976789D01*
X146688775Y-123976790D01*
X146853944Y-124017500D01*
X147024056Y-124017500D01*
X147189225Y-123976790D01*
X147316234Y-123910130D01*
X147339849Y-123897736D01*
X147339850Y-123897734D01*
X147339852Y-123897734D01*
X147467183Y-123784929D01*
X147563818Y-123644930D01*
X147624140Y-123485872D01*
X147644645Y-123317000D01*
X147629224Y-123190000D01*
X159441355Y-123190000D01*
X159461859Y-123358869D01*
X159461860Y-123358874D01*
X159522182Y-123517931D01*
X159584475Y-123608177D01*
X159618817Y-123657929D01*
X159723950Y-123751068D01*
X159746150Y-123770736D01*
X159832310Y-123815956D01*
X159896775Y-123849790D01*
X160061944Y-123890500D01*
X160232056Y-123890500D01*
X160397225Y-123849790D01*
X160520810Y-123784927D01*
X160547849Y-123770736D01*
X160547850Y-123770734D01*
X160547852Y-123770734D01*
X160675183Y-123657929D01*
X160771818Y-123517930D01*
X160832140Y-123358872D01*
X160837223Y-123317007D01*
X163479671Y-123317007D01*
X163498964Y-123611363D01*
X163498965Y-123611373D01*
X163498966Y-123611380D01*
X163530663Y-123770736D01*
X163556518Y-123900716D01*
X163556521Y-123900730D01*
X163651349Y-124180080D01*
X163781825Y-124444660D01*
X163781829Y-124444667D01*
X163945725Y-124689955D01*
X164140241Y-124911758D01*
X164362044Y-125106274D01*
X164597902Y-125263869D01*
X164607335Y-125270172D01*
X164871923Y-125400652D01*
X165151278Y-125495481D01*
X165440620Y-125553034D01*
X165468888Y-125554886D01*
X165734993Y-125572329D01*
X165735000Y-125572329D01*
X165735007Y-125572329D01*
X165970675Y-125556881D01*
X166029380Y-125553034D01*
X166318722Y-125495481D01*
X166598077Y-125400652D01*
X166862665Y-125270172D01*
X167107957Y-125106273D01*
X167329758Y-124911758D01*
X167524273Y-124689957D01*
X167688172Y-124444665D01*
X167818652Y-124180077D01*
X167913481Y-123900722D01*
X167971034Y-123611380D01*
X167983630Y-123419210D01*
X167990329Y-123317007D01*
X167990329Y-123316992D01*
X167971035Y-123022636D01*
X167971034Y-123022620D01*
X167913481Y-122733278D01*
X167818652Y-122453923D01*
X167688172Y-122189336D01*
X167524273Y-121944043D01*
X167429577Y-121836063D01*
X167329758Y-121722241D01*
X167107955Y-121527725D01*
X166862667Y-121363829D01*
X166862660Y-121363825D01*
X166598080Y-121233349D01*
X166318730Y-121138521D01*
X166318724Y-121138519D01*
X166318722Y-121138519D01*
X166029380Y-121080966D01*
X166029373Y-121080965D01*
X166029363Y-121080964D01*
X165735007Y-121061671D01*
X165734993Y-121061671D01*
X165440636Y-121080964D01*
X165440624Y-121080965D01*
X165440620Y-121080966D01*
X165440612Y-121080967D01*
X165440609Y-121080968D01*
X165151283Y-121138518D01*
X165151269Y-121138521D01*
X164871919Y-121233349D01*
X164607334Y-121363828D01*
X164362041Y-121527728D01*
X164140241Y-121722241D01*
X163945728Y-121944041D01*
X163781828Y-122189334D01*
X163651349Y-122453919D01*
X163556521Y-122733269D01*
X163556518Y-122733283D01*
X163498968Y-123022609D01*
X163498964Y-123022636D01*
X163479671Y-123316992D01*
X163479671Y-123317007D01*
X160837223Y-123317007D01*
X160852645Y-123190000D01*
X160832140Y-123021128D01*
X160771818Y-122862070D01*
X160762845Y-122849071D01*
X160682922Y-122733283D01*
X160675183Y-122722071D01*
X160547852Y-122609266D01*
X160547849Y-122609263D01*
X160397226Y-122530210D01*
X160232056Y-122489500D01*
X160061944Y-122489500D01*
X159896773Y-122530210D01*
X159746150Y-122609263D01*
X159618816Y-122722072D01*
X159522182Y-122862068D01*
X159461860Y-123021125D01*
X159461859Y-123021130D01*
X159441355Y-123190000D01*
X147629224Y-123190000D01*
X147624140Y-123148128D01*
X147563818Y-122989070D01*
X147554845Y-122976071D01*
X147487570Y-122878607D01*
X147467183Y-122849071D01*
X147339852Y-122736266D01*
X147339849Y-122736263D01*
X147189226Y-122657210D01*
X147024056Y-122616500D01*
X146853944Y-122616500D01*
X146688773Y-122657210D01*
X146538150Y-122736263D01*
X146410816Y-122849072D01*
X146314182Y-122989068D01*
X146253860Y-123148125D01*
X146253859Y-123148130D01*
X146233355Y-123317000D01*
X139882224Y-123317000D01*
X139877140Y-123275128D01*
X139875095Y-123269737D01*
X139844856Y-123190000D01*
X139816818Y-123116070D01*
X139720183Y-122976071D01*
X139625316Y-122892026D01*
X139592849Y-122863263D01*
X139442226Y-122784210D01*
X139277056Y-122743500D01*
X139106944Y-122743500D01*
X138941773Y-122784210D01*
X138791150Y-122863263D01*
X138663816Y-122976072D01*
X138567182Y-123116068D01*
X138506860Y-123275125D01*
X138506859Y-123275130D01*
X138486355Y-123444000D01*
X127203732Y-123444000D01*
X127243509Y-123422474D01*
X127439744Y-123269738D01*
X127608164Y-123086785D01*
X127744173Y-122878607D01*
X127844063Y-122650881D01*
X127905108Y-122409821D01*
X127907853Y-122376700D01*
X127920499Y-122224077D01*
X127920500Y-122224063D01*
X127920500Y-120599937D01*
X127920499Y-120599922D01*
X127905109Y-120414186D01*
X127905107Y-120414175D01*
X127844063Y-120173118D01*
X127744173Y-119945393D01*
X127608166Y-119737217D01*
X127586557Y-119713744D01*
X127439744Y-119554262D01*
X127243509Y-119401526D01*
X127243507Y-119401525D01*
X127243506Y-119401524D01*
X127024811Y-119283172D01*
X127024802Y-119283169D01*
X126789616Y-119202429D01*
X126544335Y-119161500D01*
X126295665Y-119161500D01*
X126050383Y-119202429D01*
X125815197Y-119283169D01*
X125815188Y-119283172D01*
X125596493Y-119401524D01*
X125400257Y-119554261D01*
X125231833Y-119737217D01*
X125095826Y-119945393D01*
X124995936Y-120173118D01*
X124934892Y-120414175D01*
X124934890Y-120414186D01*
X124919500Y-120599922D01*
X124919500Y-122224077D01*
X118920499Y-122224077D01*
X118920500Y-122224063D01*
X118920500Y-120599937D01*
X118920499Y-120599922D01*
X118915230Y-120536334D01*
X119769500Y-120536334D01*
X119810429Y-120781616D01*
X119891169Y-121016802D01*
X119891172Y-121016811D01*
X120008357Y-121233349D01*
X120009526Y-121235509D01*
X120162262Y-121431744D01*
X120321744Y-121578557D01*
X120345217Y-121600166D01*
X120553393Y-121736173D01*
X120781118Y-121836063D01*
X121022175Y-121897107D01*
X121022179Y-121897108D01*
X121022181Y-121897108D01*
X121022186Y-121897109D01*
X121175589Y-121909819D01*
X121207933Y-121912500D01*
X121207937Y-121912500D01*
X122632063Y-121912500D01*
X122632067Y-121912500D01*
X122694677Y-121907311D01*
X122817813Y-121897109D01*
X122817816Y-121897108D01*
X122817821Y-121897108D01*
X123058881Y-121836063D01*
X123286607Y-121736173D01*
X123494785Y-121600164D01*
X123677738Y-121431744D01*
X123830474Y-121235509D01*
X123948828Y-121016810D01*
X124029571Y-120781614D01*
X124070500Y-120536335D01*
X124070500Y-120287665D01*
X124029571Y-120042386D01*
X123948828Y-119807190D01*
X123910960Y-119737217D01*
X123837718Y-119601876D01*
X123830474Y-119588491D01*
X123677738Y-119392256D01*
X123494785Y-119223836D01*
X123494782Y-119223833D01*
X123286606Y-119087826D01*
X123058881Y-118987936D01*
X122817824Y-118926892D01*
X122817813Y-118926890D01*
X122632077Y-118911500D01*
X122632067Y-118911500D01*
X121207933Y-118911500D01*
X121207922Y-118911500D01*
X121022186Y-118926890D01*
X121022175Y-118926892D01*
X120781118Y-118987936D01*
X120553393Y-119087826D01*
X120345217Y-119223833D01*
X120162261Y-119392257D01*
X120009524Y-119588493D01*
X119891172Y-119807188D01*
X119891169Y-119807197D01*
X119810429Y-120042383D01*
X119769500Y-120287665D01*
X119769500Y-120536334D01*
X118915230Y-120536334D01*
X118905109Y-120414186D01*
X118905107Y-120414175D01*
X118844063Y-120173118D01*
X118744173Y-119945393D01*
X118608166Y-119737217D01*
X118586557Y-119713744D01*
X118439744Y-119554262D01*
X118243509Y-119401526D01*
X118243507Y-119401525D01*
X118243506Y-119401524D01*
X118024811Y-119283172D01*
X118024802Y-119283169D01*
X117789616Y-119202429D01*
X117544335Y-119161500D01*
X117295665Y-119161500D01*
X117050383Y-119202429D01*
X116815197Y-119283169D01*
X116815188Y-119283172D01*
X116596493Y-119401524D01*
X116400256Y-119554261D01*
X116356424Y-119601876D01*
X116296537Y-119637866D01*
X116226699Y-119635765D01*
X116169083Y-119596240D01*
X116141982Y-119531841D01*
X116141201Y-119519131D01*
X116133562Y-118745000D01*
X127691355Y-118745000D01*
X127711859Y-118913869D01*
X127711860Y-118913874D01*
X127772182Y-119072931D01*
X127791702Y-119101210D01*
X127868817Y-119212929D01*
X127959279Y-119293071D01*
X127996150Y-119325736D01*
X128140552Y-119401524D01*
X128146775Y-119404790D01*
X128311944Y-119445500D01*
X128482056Y-119445500D01*
X128608380Y-119414364D01*
X128678181Y-119417433D01*
X128735243Y-119457753D01*
X128753996Y-119490789D01*
X128788182Y-119580930D01*
X128884817Y-119720929D01*
X128982184Y-119807188D01*
X129012150Y-119833736D01*
X129162773Y-119912789D01*
X129162775Y-119912790D01*
X129327944Y-119953500D01*
X129498056Y-119953500D01*
X129663225Y-119912790D01*
X129742692Y-119871081D01*
X129813849Y-119833736D01*
X129813850Y-119833734D01*
X129813852Y-119833734D01*
X129941183Y-119720929D01*
X130037818Y-119580930D01*
X130098140Y-119421872D01*
X130118645Y-119253000D01*
X136581355Y-119253000D01*
X136601859Y-119421869D01*
X136601860Y-119421874D01*
X136662182Y-119580931D01*
X136676640Y-119601876D01*
X136758817Y-119720929D01*
X136856184Y-119807188D01*
X136886150Y-119833736D01*
X137036773Y-119912789D01*
X137036775Y-119912790D01*
X137201944Y-119953500D01*
X137372056Y-119953500D01*
X137537225Y-119912790D01*
X137616692Y-119871081D01*
X137687849Y-119833736D01*
X137687850Y-119833734D01*
X137687852Y-119833734D01*
X137769952Y-119761000D01*
X147249355Y-119761000D01*
X147269859Y-119929869D01*
X147269860Y-119929874D01*
X147330182Y-120088931D01*
X147388293Y-120173118D01*
X147426817Y-120228929D01*
X147532505Y-120322560D01*
X147554150Y-120341736D01*
X147692171Y-120414175D01*
X147704775Y-120420790D01*
X147869944Y-120461500D01*
X148040056Y-120461500D01*
X148205225Y-120420790D01*
X148284692Y-120379081D01*
X148355849Y-120341736D01*
X148355850Y-120341734D01*
X148355852Y-120341734D01*
X148483183Y-120228929D01*
X148579818Y-120088930D01*
X148640140Y-119929872D01*
X148660645Y-119761000D01*
X148640140Y-119592128D01*
X148638761Y-119588493D01*
X148579817Y-119433068D01*
X148505730Y-119325736D01*
X148483183Y-119293071D01*
X148355852Y-119180266D01*
X148355849Y-119180263D01*
X148205226Y-119101210D01*
X148040056Y-119060500D01*
X147869944Y-119060500D01*
X147704773Y-119101210D01*
X147554150Y-119180263D01*
X147426816Y-119293072D01*
X147330182Y-119433068D01*
X147269860Y-119592125D01*
X147269859Y-119592130D01*
X147249355Y-119761000D01*
X137769952Y-119761000D01*
X137815183Y-119720929D01*
X137911818Y-119580930D01*
X137972140Y-119421872D01*
X137992645Y-119253000D01*
X137972140Y-119084128D01*
X137911818Y-118925070D01*
X137904086Y-118913869D01*
X137846650Y-118830659D01*
X137815183Y-118785071D01*
X137713552Y-118695034D01*
X137687849Y-118672263D01*
X137537226Y-118593210D01*
X137372056Y-118552500D01*
X137201944Y-118552500D01*
X137036773Y-118593210D01*
X136886150Y-118672263D01*
X136758816Y-118785072D01*
X136662182Y-118925068D01*
X136601860Y-119084125D01*
X136601859Y-119084130D01*
X136581355Y-119253000D01*
X130118645Y-119253000D01*
X130098140Y-119084128D01*
X130037818Y-118925070D01*
X130030086Y-118913869D01*
X129972650Y-118830659D01*
X129941183Y-118785071D01*
X129839552Y-118695034D01*
X129813849Y-118672263D01*
X129663226Y-118593210D01*
X129498056Y-118552500D01*
X129327944Y-118552500D01*
X129327942Y-118552500D01*
X129201618Y-118583635D01*
X129131816Y-118580565D01*
X129074754Y-118540245D01*
X129056002Y-118507208D01*
X129021818Y-118417071D01*
X129021817Y-118417068D01*
X128947730Y-118309736D01*
X128925183Y-118277071D01*
X128797852Y-118164266D01*
X128797849Y-118164263D01*
X128647226Y-118085210D01*
X128482056Y-118044500D01*
X128311944Y-118044500D01*
X128146773Y-118085210D01*
X127996150Y-118164263D01*
X127868816Y-118277072D01*
X127772182Y-118417068D01*
X127711860Y-118576125D01*
X127711859Y-118576130D01*
X127691355Y-118745000D01*
X116133562Y-118745000D01*
X116107243Y-116078000D01*
X127564355Y-116078000D01*
X127584859Y-116246869D01*
X127584860Y-116246874D01*
X127645182Y-116405931D01*
X127707475Y-116496177D01*
X127741817Y-116545929D01*
X127847505Y-116639560D01*
X127869150Y-116658736D01*
X128019773Y-116737789D01*
X128019775Y-116737790D01*
X128184944Y-116778500D01*
X128355056Y-116778500D01*
X128520225Y-116737790D01*
X128599692Y-116696081D01*
X128670849Y-116658736D01*
X128670850Y-116658734D01*
X128670852Y-116658734D01*
X128798183Y-116545929D01*
X128858181Y-116459007D01*
X130332671Y-116459007D01*
X130351964Y-116753363D01*
X130351965Y-116753373D01*
X130351966Y-116753380D01*
X130360676Y-116797171D01*
X130409518Y-117042716D01*
X130409521Y-117042730D01*
X130504349Y-117322080D01*
X130634825Y-117586660D01*
X130634829Y-117586667D01*
X130798725Y-117831955D01*
X130993241Y-118053758D01*
X131215044Y-118248274D01*
X131361893Y-118346395D01*
X131460335Y-118412172D01*
X131724923Y-118542652D01*
X132004278Y-118637481D01*
X132293620Y-118695034D01*
X132321888Y-118696886D01*
X132587993Y-118714329D01*
X132588000Y-118714329D01*
X132588007Y-118714329D01*
X132823675Y-118698881D01*
X132882380Y-118695034D01*
X133171722Y-118637481D01*
X133451077Y-118542652D01*
X133715665Y-118412172D01*
X133960957Y-118248273D01*
X134182758Y-118053758D01*
X134377273Y-117831957D01*
X134446067Y-117729000D01*
X147249355Y-117729000D01*
X147269859Y-117897869D01*
X147269860Y-117897874D01*
X147330182Y-118056931D01*
X147349702Y-118085210D01*
X147426817Y-118196929D01*
X147484773Y-118248273D01*
X147554150Y-118309736D01*
X147704773Y-118388789D01*
X147704775Y-118388790D01*
X147869944Y-118429500D01*
X148040056Y-118429500D01*
X148205225Y-118388790D01*
X148286001Y-118346395D01*
X148355849Y-118309736D01*
X148355850Y-118309734D01*
X148355852Y-118309734D01*
X148483183Y-118196929D01*
X148579818Y-118056930D01*
X148640140Y-117897872D01*
X148660645Y-117729000D01*
X148640140Y-117560128D01*
X148607856Y-117475000D01*
X163490341Y-117475000D01*
X163510936Y-117710403D01*
X163510938Y-117710413D01*
X163572094Y-117938655D01*
X163572096Y-117938659D01*
X163572097Y-117938663D01*
X163640433Y-118085210D01*
X163671965Y-118152830D01*
X163671967Y-118152834D01*
X163758960Y-118277072D01*
X163807505Y-118346401D01*
X163974599Y-118513495D01*
X164030304Y-118552500D01*
X164168165Y-118649032D01*
X164168167Y-118649033D01*
X164168170Y-118649035D01*
X164382337Y-118748903D01*
X164610592Y-118810063D01*
X164798918Y-118826539D01*
X164845999Y-118830659D01*
X164846000Y-118830659D01*
X164846001Y-118830659D01*
X164885234Y-118827226D01*
X165081408Y-118810063D01*
X165309663Y-118748903D01*
X165523830Y-118649035D01*
X165717401Y-118513495D01*
X165884495Y-118346401D01*
X166020035Y-118152830D01*
X166119903Y-117938663D01*
X166181063Y-117710408D01*
X166201659Y-117475000D01*
X166181063Y-117239592D01*
X166128315Y-117042730D01*
X166119905Y-117011344D01*
X166119904Y-117011343D01*
X166119903Y-117011337D01*
X166020035Y-116797171D01*
X166006962Y-116778500D01*
X165884494Y-116603597D01*
X165717402Y-116436506D01*
X165717396Y-116436501D01*
X165531842Y-116306575D01*
X165488217Y-116251998D01*
X165481023Y-116182500D01*
X165512546Y-116120145D01*
X165531842Y-116103425D01*
X165554026Y-116087891D01*
X165717401Y-115973495D01*
X165884495Y-115806401D01*
X166020035Y-115612830D01*
X166119903Y-115398663D01*
X166181063Y-115170408D01*
X166201659Y-114935000D01*
X166181063Y-114699592D01*
X166119903Y-114471337D01*
X166020035Y-114257171D01*
X165996084Y-114222964D01*
X165884494Y-114063597D01*
X165717402Y-113896506D01*
X165717396Y-113896501D01*
X165531842Y-113766575D01*
X165488217Y-113711998D01*
X165481023Y-113642500D01*
X165512546Y-113580145D01*
X165531842Y-113563425D01*
X165554026Y-113547891D01*
X165717401Y-113433495D01*
X165884495Y-113266401D01*
X166020035Y-113072830D01*
X166119903Y-112858663D01*
X166181063Y-112630408D01*
X166201659Y-112395000D01*
X166181063Y-112159592D01*
X166119903Y-111931337D01*
X166020035Y-111717171D01*
X166000645Y-111689478D01*
X165884494Y-111523597D01*
X165717402Y-111356506D01*
X165717396Y-111356501D01*
X165531842Y-111226575D01*
X165488217Y-111171998D01*
X165481023Y-111102500D01*
X165512546Y-111040145D01*
X165531842Y-111023425D01*
X165627870Y-110956185D01*
X165717401Y-110893495D01*
X165884495Y-110726401D01*
X166020035Y-110532830D01*
X166119903Y-110318663D01*
X166181063Y-110090408D01*
X166201659Y-109855000D01*
X166181063Y-109619592D01*
X166127512Y-109419734D01*
X166119905Y-109391344D01*
X166119904Y-109391343D01*
X166119903Y-109391337D01*
X166020035Y-109177171D01*
X166012865Y-109166930D01*
X165884494Y-108983597D01*
X165717402Y-108816506D01*
X165717396Y-108816501D01*
X165531842Y-108686575D01*
X165488217Y-108631998D01*
X165481023Y-108562500D01*
X165512546Y-108500145D01*
X165531842Y-108483425D01*
X165589269Y-108443214D01*
X165717401Y-108353495D01*
X165884495Y-108186401D01*
X166020035Y-107992830D01*
X166119903Y-107778663D01*
X166181063Y-107550408D01*
X166201659Y-107315000D01*
X166181063Y-107079592D01*
X166119903Y-106851337D01*
X166020035Y-106637171D01*
X166012865Y-106626930D01*
X165884494Y-106443597D01*
X165717402Y-106276506D01*
X165717396Y-106276501D01*
X165531842Y-106146575D01*
X165488217Y-106091998D01*
X165481023Y-106022500D01*
X165512546Y-105960145D01*
X165531842Y-105943425D01*
X165673738Y-105844068D01*
X165717401Y-105813495D01*
X165884495Y-105646401D01*
X166020035Y-105452830D01*
X166119903Y-105238663D01*
X166181063Y-105010408D01*
X166201659Y-104775000D01*
X166181063Y-104539592D01*
X166119903Y-104311337D01*
X166020035Y-104097171D01*
X166012865Y-104086930D01*
X165884494Y-103903597D01*
X165717402Y-103736506D01*
X165717396Y-103736501D01*
X165531842Y-103606575D01*
X165488217Y-103551998D01*
X165481023Y-103482500D01*
X165512546Y-103420145D01*
X165531842Y-103403425D01*
X165672027Y-103305266D01*
X165717401Y-103273495D01*
X165884495Y-103106401D01*
X166020035Y-102912830D01*
X166119903Y-102698663D01*
X166181063Y-102470408D01*
X166201659Y-102235000D01*
X166181063Y-101999592D01*
X166119903Y-101771337D01*
X166020035Y-101557171D01*
X166006961Y-101538500D01*
X165884496Y-101363600D01*
X165825021Y-101304125D01*
X165762567Y-101241671D01*
X165729084Y-101180351D01*
X165734068Y-101110659D01*
X165775939Y-101054725D01*
X165806915Y-101037810D01*
X165938331Y-100988796D01*
X166053546Y-100902546D01*
X166139796Y-100787331D01*
X166190091Y-100652483D01*
X166196500Y-100592873D01*
X166196499Y-98797128D01*
X166190091Y-98737517D01*
X166188505Y-98733266D01*
X166139797Y-98602671D01*
X166139793Y-98602664D01*
X166053547Y-98487455D01*
X166053544Y-98487452D01*
X165938335Y-98401206D01*
X165938328Y-98401202D01*
X165803482Y-98350908D01*
X165803483Y-98350908D01*
X165743883Y-98344501D01*
X165743881Y-98344500D01*
X165743873Y-98344500D01*
X165743864Y-98344500D01*
X163948129Y-98344500D01*
X163948123Y-98344501D01*
X163888516Y-98350908D01*
X163753671Y-98401202D01*
X163753664Y-98401206D01*
X163638455Y-98487452D01*
X163638452Y-98487455D01*
X163552206Y-98602664D01*
X163552202Y-98602671D01*
X163501908Y-98737517D01*
X163496439Y-98788395D01*
X163495501Y-98797123D01*
X163495500Y-98797135D01*
X163495500Y-100592870D01*
X163495501Y-100592876D01*
X163501908Y-100652483D01*
X163552202Y-100787328D01*
X163552206Y-100787335D01*
X163638452Y-100902544D01*
X163638455Y-100902547D01*
X163753664Y-100988793D01*
X163753671Y-100988797D01*
X163885081Y-101037810D01*
X163941015Y-101079681D01*
X163965432Y-101145145D01*
X163950580Y-101213418D01*
X163929430Y-101241673D01*
X163807503Y-101363600D01*
X163671965Y-101557169D01*
X163671964Y-101557171D01*
X163603264Y-101704500D01*
X163573247Y-101768872D01*
X163572098Y-101771335D01*
X163572094Y-101771344D01*
X163510938Y-101999586D01*
X163510936Y-101999596D01*
X163490341Y-102234999D01*
X163490341Y-102235000D01*
X163510936Y-102470403D01*
X163510938Y-102470413D01*
X163572094Y-102698655D01*
X163572096Y-102698659D01*
X163572097Y-102698663D01*
X163671965Y-102912830D01*
X163671967Y-102912834D01*
X163807501Y-103106395D01*
X163807506Y-103106402D01*
X163974597Y-103273493D01*
X163974603Y-103273498D01*
X164160158Y-103403425D01*
X164203783Y-103458002D01*
X164210977Y-103527500D01*
X164179454Y-103589855D01*
X164160158Y-103606575D01*
X163974597Y-103736505D01*
X163807505Y-103903597D01*
X163671965Y-104097169D01*
X163671964Y-104097171D01*
X163572098Y-104311335D01*
X163572094Y-104311344D01*
X163510938Y-104539586D01*
X163510936Y-104539596D01*
X163490341Y-104774999D01*
X163490341Y-104775000D01*
X163510936Y-105010403D01*
X163510938Y-105010413D01*
X163572094Y-105238655D01*
X163572096Y-105238659D01*
X163572097Y-105238663D01*
X163671965Y-105452830D01*
X163671967Y-105452834D01*
X163807501Y-105646395D01*
X163807506Y-105646402D01*
X163974597Y-105813493D01*
X163974603Y-105813498D01*
X164160158Y-105943425D01*
X164203783Y-105998002D01*
X164210977Y-106067500D01*
X164179454Y-106129855D01*
X164160158Y-106146575D01*
X163974597Y-106276505D01*
X163807505Y-106443597D01*
X163671965Y-106637169D01*
X163671964Y-106637171D01*
X163572098Y-106851335D01*
X163572094Y-106851344D01*
X163510938Y-107079586D01*
X163510936Y-107079596D01*
X163490341Y-107314999D01*
X163490341Y-107315000D01*
X163510936Y-107550403D01*
X163510938Y-107550413D01*
X163572094Y-107778655D01*
X163572096Y-107778659D01*
X163572097Y-107778663D01*
X163611458Y-107863072D01*
X163671965Y-107992830D01*
X163671967Y-107992834D01*
X163807501Y-108186395D01*
X163807506Y-108186402D01*
X163974597Y-108353493D01*
X163974603Y-108353498D01*
X164160158Y-108483425D01*
X164203783Y-108538002D01*
X164210977Y-108607500D01*
X164179454Y-108669855D01*
X164160158Y-108686575D01*
X163974597Y-108816505D01*
X163807505Y-108983597D01*
X163671965Y-109177169D01*
X163671964Y-109177171D01*
X163637521Y-109251035D01*
X163573247Y-109388872D01*
X163572098Y-109391335D01*
X163572094Y-109391344D01*
X163510938Y-109619586D01*
X163510936Y-109619596D01*
X163490341Y-109854999D01*
X163490341Y-109855000D01*
X163510936Y-110090403D01*
X163510938Y-110090413D01*
X163572094Y-110318655D01*
X163572096Y-110318659D01*
X163572097Y-110318663D01*
X163671965Y-110532830D01*
X163671967Y-110532834D01*
X163807501Y-110726395D01*
X163807506Y-110726402D01*
X163974597Y-110893493D01*
X163974603Y-110893498D01*
X164160158Y-111023425D01*
X164203783Y-111078002D01*
X164210977Y-111147500D01*
X164179454Y-111209855D01*
X164160158Y-111226575D01*
X163974597Y-111356505D01*
X163807505Y-111523597D01*
X163671965Y-111717169D01*
X163671964Y-111717171D01*
X163612297Y-111845128D01*
X163573247Y-111928872D01*
X163572098Y-111931335D01*
X163572094Y-111931344D01*
X163510938Y-112159586D01*
X163510936Y-112159596D01*
X163490341Y-112394999D01*
X163490341Y-112395000D01*
X163510936Y-112630403D01*
X163510938Y-112630413D01*
X163572094Y-112858655D01*
X163572096Y-112858659D01*
X163572097Y-112858663D01*
X163663395Y-113054452D01*
X163671965Y-113072830D01*
X163671967Y-113072834D01*
X163807501Y-113266395D01*
X163807506Y-113266402D01*
X163974597Y-113433493D01*
X163974603Y-113433498D01*
X164160158Y-113563425D01*
X164203783Y-113618002D01*
X164210977Y-113687500D01*
X164179454Y-113749855D01*
X164160158Y-113766575D01*
X163974597Y-113896505D01*
X163807505Y-114063597D01*
X163671965Y-114257169D01*
X163671964Y-114257171D01*
X163572098Y-114471335D01*
X163572094Y-114471344D01*
X163510938Y-114699586D01*
X163510936Y-114699596D01*
X163490341Y-114934999D01*
X163490341Y-114935000D01*
X163510936Y-115170403D01*
X163510938Y-115170413D01*
X163572094Y-115398655D01*
X163572096Y-115398659D01*
X163572097Y-115398663D01*
X163664079Y-115595919D01*
X163671965Y-115612830D01*
X163671967Y-115612834D01*
X163807501Y-115806395D01*
X163807506Y-115806402D01*
X163974597Y-115973493D01*
X163974603Y-115973498D01*
X164160158Y-116103425D01*
X164203783Y-116158002D01*
X164210977Y-116227500D01*
X164179454Y-116289855D01*
X164160158Y-116306575D01*
X163974597Y-116436505D01*
X163807505Y-116603597D01*
X163671965Y-116797169D01*
X163671964Y-116797171D01*
X163572098Y-117011335D01*
X163572094Y-117011344D01*
X163510938Y-117239586D01*
X163510936Y-117239596D01*
X163490341Y-117474999D01*
X163490341Y-117475000D01*
X148607856Y-117475000D01*
X148579818Y-117401070D01*
X148483183Y-117261071D01*
X148355852Y-117148266D01*
X148355849Y-117148263D01*
X148205226Y-117069210D01*
X148040056Y-117028500D01*
X147869944Y-117028500D01*
X147704773Y-117069210D01*
X147554150Y-117148263D01*
X147426816Y-117261072D01*
X147330182Y-117401068D01*
X147269860Y-117560125D01*
X147269859Y-117560130D01*
X147249355Y-117729000D01*
X134446067Y-117729000D01*
X134541172Y-117586665D01*
X134671652Y-117322077D01*
X134766481Y-117042722D01*
X134824034Y-116753380D01*
X134830238Y-116658734D01*
X134843329Y-116459007D01*
X134843329Y-116458992D01*
X134824035Y-116164636D01*
X134824034Y-116164620D01*
X134766481Y-115875278D01*
X134671652Y-115595923D01*
X134541172Y-115331336D01*
X134530925Y-115316000D01*
X146995355Y-115316000D01*
X147015859Y-115484869D01*
X147015860Y-115484874D01*
X147076182Y-115643931D01*
X147138475Y-115734177D01*
X147172817Y-115783929D01*
X147253940Y-115855797D01*
X147300150Y-115896736D01*
X147446398Y-115973493D01*
X147450775Y-115975790D01*
X147615944Y-116016500D01*
X147786056Y-116016500D01*
X147951225Y-115975790D01*
X148078234Y-115909130D01*
X148101849Y-115896736D01*
X148101850Y-115896734D01*
X148101852Y-115896734D01*
X148229183Y-115783929D01*
X148325818Y-115643930D01*
X148386140Y-115484872D01*
X148406645Y-115316000D01*
X148386140Y-115147128D01*
X148325818Y-114988070D01*
X148229183Y-114848071D01*
X148101852Y-114735266D01*
X148101849Y-114735263D01*
X147951226Y-114656210D01*
X147786056Y-114615500D01*
X147615944Y-114615500D01*
X147450773Y-114656210D01*
X147300150Y-114735263D01*
X147172816Y-114848072D01*
X147076182Y-114988068D01*
X147015860Y-115147125D01*
X147015859Y-115147130D01*
X146995355Y-115316000D01*
X134530925Y-115316000D01*
X134377273Y-115086043D01*
X134291351Y-114988068D01*
X134182758Y-114864241D01*
X133960955Y-114669725D01*
X133715667Y-114505829D01*
X133715660Y-114505825D01*
X133451080Y-114375349D01*
X133171730Y-114280521D01*
X133171724Y-114280519D01*
X133171722Y-114280519D01*
X132882380Y-114222966D01*
X132882373Y-114222965D01*
X132882363Y-114222964D01*
X132588007Y-114203671D01*
X132587993Y-114203671D01*
X132293636Y-114222964D01*
X132293624Y-114222965D01*
X132293620Y-114222966D01*
X132293612Y-114222967D01*
X132293609Y-114222968D01*
X132004283Y-114280518D01*
X132004269Y-114280521D01*
X131724919Y-114375349D01*
X131460334Y-114505828D01*
X131215041Y-114669728D01*
X130993241Y-114864241D01*
X130798728Y-115086041D01*
X130634828Y-115331334D01*
X130504349Y-115595919D01*
X130409521Y-115875269D01*
X130409518Y-115875283D01*
X130351968Y-116164609D01*
X130351964Y-116164636D01*
X130332671Y-116458992D01*
X130332671Y-116459007D01*
X128858181Y-116459007D01*
X128894818Y-116405930D01*
X128955140Y-116246872D01*
X128975645Y-116078000D01*
X128955140Y-115909128D01*
X128950440Y-115896736D01*
X128907658Y-115783927D01*
X128894818Y-115750070D01*
X128798183Y-115610071D01*
X128670852Y-115497266D01*
X128670849Y-115497263D01*
X128520226Y-115418210D01*
X128355056Y-115377500D01*
X128184944Y-115377500D01*
X128019773Y-115418210D01*
X127869150Y-115497263D01*
X127741816Y-115610072D01*
X127645182Y-115750068D01*
X127584860Y-115909125D01*
X127584859Y-115909130D01*
X127564355Y-116078000D01*
X116107243Y-116078000D01*
X116101143Y-115459870D01*
X119419500Y-115459870D01*
X119419501Y-115459876D01*
X119425908Y-115519483D01*
X119476202Y-115654328D01*
X119476206Y-115654335D01*
X119562452Y-115769544D01*
X119562455Y-115769547D01*
X119677664Y-115855793D01*
X119677671Y-115855797D01*
X119812517Y-115906091D01*
X119812516Y-115906091D01*
X119819444Y-115906835D01*
X119872127Y-115912500D01*
X123967872Y-115912499D01*
X124027483Y-115906091D01*
X124162331Y-115855796D01*
X124277546Y-115769546D01*
X124363796Y-115654331D01*
X124414091Y-115519483D01*
X124420500Y-115459873D01*
X124420499Y-113364128D01*
X124414091Y-113304517D01*
X124399872Y-113266395D01*
X124363797Y-113169671D01*
X124363793Y-113169664D01*
X124277547Y-113054455D01*
X124277544Y-113054452D01*
X124162335Y-112968206D01*
X124162328Y-112968202D01*
X124027482Y-112917908D01*
X124027483Y-112917908D01*
X123967883Y-112911501D01*
X123967881Y-112911500D01*
X123967873Y-112911500D01*
X123967864Y-112911500D01*
X119872129Y-112911500D01*
X119872123Y-112911501D01*
X119812516Y-112917908D01*
X119677671Y-112968202D01*
X119677664Y-112968206D01*
X119562455Y-113054452D01*
X119562452Y-113054455D01*
X119476206Y-113169664D01*
X119476202Y-113169671D01*
X119425908Y-113304517D01*
X119419501Y-113364116D01*
X119419501Y-113364123D01*
X119419500Y-113364135D01*
X119419500Y-115459870D01*
X116101143Y-115459870D01*
X116070506Y-112355274D01*
X116070500Y-112354050D01*
X116070500Y-112014000D01*
X118039355Y-112014000D01*
X118059859Y-112182869D01*
X118059860Y-112182874D01*
X118120182Y-112341931D01*
X118173925Y-112419790D01*
X118216817Y-112481929D01*
X118322505Y-112575560D01*
X118344150Y-112594736D01*
X118494773Y-112673789D01*
X118494775Y-112673790D01*
X118659944Y-112714500D01*
X118830056Y-112714500D01*
X118995225Y-112673790D01*
X119077891Y-112630403D01*
X119145849Y-112594736D01*
X119145850Y-112594734D01*
X119145852Y-112594734D01*
X119273183Y-112481929D01*
X119369818Y-112341930D01*
X119430140Y-112182872D01*
X119450645Y-112014000D01*
X119430140Y-111845128D01*
X119369818Y-111686070D01*
X119345963Y-111651511D01*
X119304285Y-111591130D01*
X119273183Y-111546071D01*
X119178316Y-111462026D01*
X119145849Y-111433263D01*
X118995226Y-111354210D01*
X118830056Y-111313500D01*
X118659944Y-111313500D01*
X118494773Y-111354210D01*
X118344150Y-111433263D01*
X118216816Y-111546072D01*
X118120182Y-111686068D01*
X118059860Y-111845125D01*
X118059859Y-111845130D01*
X118039355Y-112014000D01*
X116070500Y-112014000D01*
X116070500Y-108077000D01*
X117389341Y-108077000D01*
X117409936Y-108312403D01*
X117409938Y-108312413D01*
X117471094Y-108540655D01*
X117471096Y-108540659D01*
X117471097Y-108540663D01*
X117531468Y-108670128D01*
X117570965Y-108754830D01*
X117570967Y-108754834D01*
X117670138Y-108896464D01*
X117706505Y-108948401D01*
X117873599Y-109115495D01*
X117898702Y-109133072D01*
X118067165Y-109251032D01*
X118067167Y-109251033D01*
X118067170Y-109251035D01*
X118281337Y-109350903D01*
X118509592Y-109412063D01*
X118697918Y-109428539D01*
X118744999Y-109432659D01*
X118745000Y-109432659D01*
X118745001Y-109432659D01*
X118784234Y-109429226D01*
X118980408Y-109412063D01*
X119208663Y-109350903D01*
X119422830Y-109251035D01*
X119467153Y-109220000D01*
X129342355Y-109220000D01*
X129362859Y-109388869D01*
X129362860Y-109388874D01*
X129423182Y-109547931D01*
X129432153Y-109560927D01*
X129519817Y-109687929D01*
X129612312Y-109769872D01*
X129647150Y-109800736D01*
X129797773Y-109879789D01*
X129797775Y-109879790D01*
X129962944Y-109920500D01*
X130133056Y-109920500D01*
X130298225Y-109879790D01*
X130377692Y-109838081D01*
X130448849Y-109800736D01*
X130448850Y-109800734D01*
X130448852Y-109800734D01*
X130576183Y-109687929D01*
X130636186Y-109601000D01*
X145979355Y-109601000D01*
X145999859Y-109769869D01*
X145999860Y-109769874D01*
X146060182Y-109928931D01*
X146122475Y-110019177D01*
X146156817Y-110068929D01*
X146249248Y-110150815D01*
X146284150Y-110181736D01*
X146434773Y-110260789D01*
X146434775Y-110260790D01*
X146599944Y-110301500D01*
X146766454Y-110301500D01*
X146833493Y-110321185D01*
X146879248Y-110373989D01*
X146885970Y-110397858D01*
X146887065Y-110397589D01*
X146888860Y-110404875D01*
X146949182Y-110563930D01*
X146949182Y-110563931D01*
X147011475Y-110654177D01*
X147045817Y-110703929D01*
X147151505Y-110797560D01*
X147173150Y-110816736D01*
X147319398Y-110893493D01*
X147323775Y-110895790D01*
X147488944Y-110936500D01*
X147655454Y-110936500D01*
X147722493Y-110956185D01*
X147768248Y-111008989D01*
X147774970Y-111032858D01*
X147776065Y-111032589D01*
X147777860Y-111039875D01*
X147838182Y-111198930D01*
X147838182Y-111198931D01*
X147857264Y-111226575D01*
X147934817Y-111338929D01*
X148039950Y-111432068D01*
X148062150Y-111451736D01*
X148212774Y-111530790D01*
X148212773Y-111530790D01*
X148307495Y-111554136D01*
X148367876Y-111589292D01*
X148399665Y-111651511D01*
X148400917Y-111689478D01*
X148392355Y-111759998D01*
X148392355Y-111759999D01*
X148412859Y-111928869D01*
X148412860Y-111928874D01*
X148473182Y-112087931D01*
X148522643Y-112159586D01*
X148569817Y-112227929D01*
X148674950Y-112321068D01*
X148697150Y-112340736D01*
X148847773Y-112419789D01*
X148847775Y-112419790D01*
X149012944Y-112460500D01*
X149037276Y-112460500D01*
X149104315Y-112480185D01*
X149150070Y-112532989D01*
X149160372Y-112599447D01*
X149154355Y-112649000D01*
X149174859Y-112817869D01*
X149174860Y-112817874D01*
X149235182Y-112976931D01*
X149288692Y-113054452D01*
X149331817Y-113116929D01*
X149391351Y-113169671D01*
X149459150Y-113229736D01*
X149609773Y-113308789D01*
X149609775Y-113308790D01*
X149774944Y-113349500D01*
X149945056Y-113349500D01*
X150110225Y-113308790D01*
X150191001Y-113266395D01*
X150260849Y-113229736D01*
X150260850Y-113229734D01*
X150260852Y-113229734D01*
X150388183Y-113116929D01*
X150484818Y-112976930D01*
X150545140Y-112817872D01*
X150565645Y-112649000D01*
X150545140Y-112480128D01*
X150484818Y-112321070D01*
X150388183Y-112181071D01*
X150260852Y-112068266D01*
X150260849Y-112068263D01*
X150110226Y-111989210D01*
X149945056Y-111948500D01*
X149920724Y-111948500D01*
X149853685Y-111928815D01*
X149807930Y-111876011D01*
X149797628Y-111809553D01*
X149803645Y-111760000D01*
X149783140Y-111591128D01*
X149722818Y-111432070D01*
X149626183Y-111292071D01*
X149498852Y-111179266D01*
X149498849Y-111179263D01*
X149348226Y-111100210D01*
X149253503Y-111076863D01*
X149193122Y-111041707D01*
X149161334Y-110979487D01*
X149160082Y-110941519D01*
X149168645Y-110871000D01*
X149148140Y-110702128D01*
X149087818Y-110543070D01*
X148991183Y-110403071D01*
X148863852Y-110290266D01*
X148863849Y-110290263D01*
X148713226Y-110211210D01*
X148548056Y-110170500D01*
X148381546Y-110170500D01*
X148314507Y-110150815D01*
X148268752Y-110098011D01*
X148262028Y-110074142D01*
X148260935Y-110074412D01*
X148259139Y-110067125D01*
X148198817Y-109908068D01*
X148124730Y-109800736D01*
X148102183Y-109768071D01*
X147974852Y-109655266D01*
X147974849Y-109655263D01*
X147824226Y-109576210D01*
X147659056Y-109535500D01*
X147492546Y-109535500D01*
X147425507Y-109515815D01*
X147379752Y-109463011D01*
X147373028Y-109439142D01*
X147371935Y-109439412D01*
X147370139Y-109432125D01*
X147309817Y-109273068D01*
X147236554Y-109166930D01*
X147213183Y-109133071D01*
X147085852Y-109020266D01*
X147085849Y-109020263D01*
X146935226Y-108941210D01*
X146770056Y-108900500D01*
X146599944Y-108900500D01*
X146434773Y-108941210D01*
X146284150Y-109020263D01*
X146156816Y-109133072D01*
X146060182Y-109273068D01*
X145999860Y-109432125D01*
X145999859Y-109432130D01*
X145979355Y-109601000D01*
X130636186Y-109601000D01*
X130672818Y-109547930D01*
X130733140Y-109388872D01*
X130753645Y-109220000D01*
X130733140Y-109051128D01*
X130672818Y-108892070D01*
X130576183Y-108752071D01*
X130448852Y-108639266D01*
X130448849Y-108639263D01*
X130298226Y-108560210D01*
X130133056Y-108519500D01*
X129962944Y-108519500D01*
X129797773Y-108560210D01*
X129647150Y-108639263D01*
X129519816Y-108752072D01*
X129423182Y-108892068D01*
X129362860Y-109051125D01*
X129362859Y-109051130D01*
X129342355Y-109220000D01*
X119467153Y-109220000D01*
X119616401Y-109115495D01*
X119783495Y-108948401D01*
X119919035Y-108754830D01*
X120018903Y-108540663D01*
X120075081Y-108331000D01*
X140010355Y-108331000D01*
X140030859Y-108499869D01*
X140030860Y-108499874D01*
X140091182Y-108658931D01*
X140110264Y-108686575D01*
X140187817Y-108798929D01*
X140292950Y-108892068D01*
X140315150Y-108911736D01*
X140452070Y-108983597D01*
X140465775Y-108990790D01*
X140630944Y-109031500D01*
X140801056Y-109031500D01*
X140966225Y-108990790D01*
X141116852Y-108911734D01*
X141116851Y-108911734D01*
X141119794Y-108910190D01*
X141188302Y-108896464D01*
X141253355Y-108921956D01*
X141294300Y-108978572D01*
X141300516Y-109005039D01*
X141300859Y-109007869D01*
X141300860Y-109007874D01*
X141361182Y-109166931D01*
X141397814Y-109220000D01*
X141457817Y-109306929D01*
X141550312Y-109388872D01*
X141585150Y-109419736D01*
X141735773Y-109498789D01*
X141735775Y-109498790D01*
X141900944Y-109539500D01*
X142071056Y-109539500D01*
X142236225Y-109498790D01*
X142363234Y-109432130D01*
X142386849Y-109419736D01*
X142386850Y-109419734D01*
X142386852Y-109419734D01*
X142514183Y-109306929D01*
X142610818Y-109166930D01*
X142671140Y-109007872D01*
X142691645Y-108839000D01*
X142671140Y-108670128D01*
X142671036Y-108669855D01*
X142638856Y-108585000D01*
X142610818Y-108511070D01*
X142603086Y-108499869D01*
X142531735Y-108396500D01*
X142514183Y-108371071D01*
X142419316Y-108287026D01*
X142386849Y-108258263D01*
X142236226Y-108179210D01*
X142071056Y-108138500D01*
X141900944Y-108138500D01*
X141735776Y-108179209D01*
X141582205Y-108259810D01*
X141513696Y-108273535D01*
X141448643Y-108248042D01*
X141407699Y-108191426D01*
X141401483Y-108164953D01*
X141401140Y-108162128D01*
X141340818Y-108003070D01*
X141244183Y-107863071D01*
X141116852Y-107750266D01*
X141116849Y-107750263D01*
X141013459Y-107696000D01*
X154742355Y-107696000D01*
X154762859Y-107864869D01*
X154762860Y-107864874D01*
X154823182Y-108023931D01*
X154859813Y-108076999D01*
X154919817Y-108163929D01*
X155014761Y-108248042D01*
X155047150Y-108276736D01*
X155193398Y-108353493D01*
X155197775Y-108355790D01*
X155362944Y-108396500D01*
X155533056Y-108396500D01*
X155698225Y-108355790D01*
X155780891Y-108312403D01*
X155848849Y-108276736D01*
X155848850Y-108276734D01*
X155848852Y-108276734D01*
X155976183Y-108163929D01*
X156072818Y-108023930D01*
X156133140Y-107864872D01*
X156153645Y-107696000D01*
X156774355Y-107696000D01*
X156794859Y-107864869D01*
X156794860Y-107864874D01*
X156855182Y-108023931D01*
X156891813Y-108076999D01*
X156951817Y-108163929D01*
X157046761Y-108248042D01*
X157079150Y-108276736D01*
X157225398Y-108353493D01*
X157229775Y-108355790D01*
X157394944Y-108396500D01*
X157565056Y-108396500D01*
X157730225Y-108355790D01*
X157812891Y-108312403D01*
X157880849Y-108276736D01*
X157880850Y-108276734D01*
X157880852Y-108276734D01*
X158008183Y-108163929D01*
X158104818Y-108023930D01*
X158165140Y-107864872D01*
X158185645Y-107696000D01*
X158165140Y-107527128D01*
X158104818Y-107368070D01*
X158008183Y-107228071D01*
X157880852Y-107115266D01*
X157880849Y-107115263D01*
X157730226Y-107036210D01*
X157565056Y-106995500D01*
X157394944Y-106995500D01*
X157229773Y-107036210D01*
X157079150Y-107115263D01*
X156951816Y-107228072D01*
X156855182Y-107368068D01*
X156794860Y-107527125D01*
X156794859Y-107527130D01*
X156774355Y-107696000D01*
X156153645Y-107696000D01*
X156133140Y-107527128D01*
X156072818Y-107368070D01*
X155976183Y-107228071D01*
X155848852Y-107115266D01*
X155848849Y-107115263D01*
X155698226Y-107036210D01*
X155533056Y-106995500D01*
X155362944Y-106995500D01*
X155197773Y-107036210D01*
X155047150Y-107115263D01*
X154919816Y-107228072D01*
X154823182Y-107368068D01*
X154762860Y-107527125D01*
X154762859Y-107527130D01*
X154742355Y-107696000D01*
X141013459Y-107696000D01*
X140966226Y-107671210D01*
X140801056Y-107630500D01*
X140630944Y-107630500D01*
X140465773Y-107671210D01*
X140315150Y-107750263D01*
X140187816Y-107863072D01*
X140091182Y-108003068D01*
X140030860Y-108162125D01*
X140030859Y-108162130D01*
X140010355Y-108331000D01*
X120075081Y-108331000D01*
X120080063Y-108312408D01*
X120100659Y-108077000D01*
X120080063Y-107841592D01*
X120018903Y-107613337D01*
X119919035Y-107399171D01*
X119860098Y-107314999D01*
X119783494Y-107205597D01*
X119616402Y-107038506D01*
X119616396Y-107038501D01*
X119430842Y-106908575D01*
X119387217Y-106853998D01*
X119380023Y-106784500D01*
X119411546Y-106722145D01*
X119430842Y-106705425D01*
X119453026Y-106689891D01*
X119616401Y-106575495D01*
X119783495Y-106408401D01*
X119860098Y-106299000D01*
X133025355Y-106299000D01*
X133045859Y-106467869D01*
X133045860Y-106467874D01*
X133106182Y-106626931D01*
X133164236Y-106711035D01*
X133202817Y-106766929D01*
X133298092Y-106851335D01*
X133330150Y-106879736D01*
X133480773Y-106958789D01*
X133480775Y-106958790D01*
X133645944Y-106999500D01*
X133816056Y-106999500D01*
X133981225Y-106958790D01*
X134108758Y-106891855D01*
X134131849Y-106879736D01*
X134131850Y-106879734D01*
X134131852Y-106879734D01*
X134259183Y-106766929D01*
X134355818Y-106626930D01*
X134416140Y-106467872D01*
X134436645Y-106299000D01*
X134421224Y-106172000D01*
X139121355Y-106172000D01*
X139141859Y-106340869D01*
X139141860Y-106340874D01*
X139202182Y-106499931D01*
X139254340Y-106575493D01*
X139298817Y-106639929D01*
X139391620Y-106722145D01*
X139426150Y-106752736D01*
X139572412Y-106829500D01*
X139576775Y-106831790D01*
X139741944Y-106872500D01*
X139912056Y-106872500D01*
X140077225Y-106831790D01*
X140150374Y-106793397D01*
X140218882Y-106779672D01*
X140265625Y-106793397D01*
X140338775Y-106831790D01*
X140503944Y-106872500D01*
X140674056Y-106872500D01*
X140839225Y-106831790D01*
X140929328Y-106784500D01*
X140989849Y-106752736D01*
X140989850Y-106752734D01*
X140989852Y-106752734D01*
X141117183Y-106639929D01*
X141213818Y-106499930D01*
X141241856Y-106426000D01*
X145979355Y-106426000D01*
X145999859Y-106594869D01*
X145999860Y-106594874D01*
X146060182Y-106753931D01*
X146113925Y-106831790D01*
X146156817Y-106893929D01*
X146262505Y-106987560D01*
X146284150Y-107006736D01*
X146422954Y-107079586D01*
X146434775Y-107085790D01*
X146599944Y-107126500D01*
X146770056Y-107126500D01*
X146935225Y-107085790D01*
X147029691Y-107036210D01*
X147085849Y-107006736D01*
X147085850Y-107006734D01*
X147085852Y-107006734D01*
X147213183Y-106893929D01*
X147309818Y-106753930D01*
X147370140Y-106594872D01*
X147390645Y-106426000D01*
X147370140Y-106257128D01*
X147309818Y-106098070D01*
X147309817Y-106098068D01*
X147307158Y-106091057D01*
X147309699Y-106090093D01*
X147298483Y-106034126D01*
X147308647Y-105999507D01*
X147307158Y-105998943D01*
X147317730Y-105971068D01*
X147370140Y-105832872D01*
X147390645Y-105664000D01*
X147370140Y-105495128D01*
X147309818Y-105336070D01*
X147277974Y-105289937D01*
X147256092Y-105223588D01*
X147273556Y-105155936D01*
X147277955Y-105149090D01*
X147309818Y-105102930D01*
X147370140Y-104943872D01*
X147390645Y-104775000D01*
X147370140Y-104606128D01*
X147309818Y-104447070D01*
X147213183Y-104307071D01*
X147085852Y-104194266D01*
X147085850Y-104194265D01*
X147085849Y-104194264D01*
X147000290Y-104149359D01*
X146950078Y-104100775D01*
X146934103Y-104032756D01*
X146957438Y-103966898D01*
X147012674Y-103924111D01*
X147028242Y-103919166D01*
X147062225Y-103910790D01*
X147109458Y-103886000D01*
X158171355Y-103886000D01*
X158191859Y-104054869D01*
X158191860Y-104054874D01*
X158252182Y-104213931D01*
X158314475Y-104304177D01*
X158348817Y-104353929D01*
X158453950Y-104447068D01*
X158476150Y-104466736D01*
X158614954Y-104539586D01*
X158626775Y-104545790D01*
X158791944Y-104586500D01*
X158962056Y-104586500D01*
X159127225Y-104545790D01*
X159217326Y-104498501D01*
X159277849Y-104466736D01*
X159277850Y-104466734D01*
X159277852Y-104466734D01*
X159405183Y-104353929D01*
X159501818Y-104213930D01*
X159562140Y-104054872D01*
X159582645Y-103886000D01*
X159562140Y-103717128D01*
X159501818Y-103558070D01*
X159405183Y-103418071D01*
X159277852Y-103305266D01*
X159277849Y-103305263D01*
X159127226Y-103226210D01*
X158962056Y-103185500D01*
X158791944Y-103185500D01*
X158626773Y-103226210D01*
X158476150Y-103305263D01*
X158348816Y-103418072D01*
X158252182Y-103558068D01*
X158191860Y-103717125D01*
X158191859Y-103717130D01*
X158171355Y-103886000D01*
X147109458Y-103886000D01*
X147212849Y-103831736D01*
X147212850Y-103831734D01*
X147212852Y-103831734D01*
X147340183Y-103718929D01*
X147436818Y-103578930D01*
X147497140Y-103419872D01*
X147517645Y-103251000D01*
X147511836Y-103203160D01*
X147523296Y-103134238D01*
X147570200Y-103082451D01*
X147577308Y-103078417D01*
X147578784Y-103077642D01*
X147593852Y-103069734D01*
X147721183Y-102956929D01*
X147817818Y-102816930D01*
X147878140Y-102657872D01*
X147898645Y-102489000D01*
X147878140Y-102320128D01*
X147817818Y-102161070D01*
X147721183Y-102021071D01*
X147721181Y-102021069D01*
X147654695Y-101962167D01*
X147617568Y-101902978D01*
X147618336Y-101833112D01*
X147656754Y-101774753D01*
X147692960Y-101753407D01*
X147697221Y-101751790D01*
X147697225Y-101751790D01*
X147701588Y-101749500D01*
X147847849Y-101672736D01*
X147847850Y-101672734D01*
X147847852Y-101672734D01*
X147975183Y-101559929D01*
X148035186Y-101473000D01*
X149281355Y-101473000D01*
X149301859Y-101641869D01*
X149301860Y-101641874D01*
X149362182Y-101800931D01*
X149424475Y-101891177D01*
X149458817Y-101940929D01*
X149549277Y-102021069D01*
X149586150Y-102053736D01*
X149723070Y-102125597D01*
X149736775Y-102132790D01*
X149901944Y-102173500D01*
X150072056Y-102173500D01*
X150237225Y-102132790D01*
X150360810Y-102067927D01*
X150387849Y-102053736D01*
X150387850Y-102053734D01*
X150387852Y-102053734D01*
X150515183Y-101940929D01*
X150611818Y-101800930D01*
X150672140Y-101641872D01*
X150692645Y-101473000D01*
X150672140Y-101304128D01*
X150611818Y-101145070D01*
X150602845Y-101132071D01*
X150543089Y-101045500D01*
X150515183Y-101005071D01*
X150387852Y-100892266D01*
X150387849Y-100892263D01*
X150237226Y-100813210D01*
X150072056Y-100772500D01*
X149901944Y-100772500D01*
X149736773Y-100813210D01*
X149586150Y-100892263D01*
X149458816Y-101005072D01*
X149362182Y-101145068D01*
X149301860Y-101304125D01*
X149301859Y-101304130D01*
X149281355Y-101473000D01*
X148035186Y-101473000D01*
X148071818Y-101419930D01*
X148132140Y-101260872D01*
X148152645Y-101092000D01*
X148132140Y-100923128D01*
X148071818Y-100764070D01*
X147975183Y-100624071D01*
X147847852Y-100511266D01*
X147847849Y-100511263D01*
X147697226Y-100432210D01*
X147532056Y-100391500D01*
X147361944Y-100391500D01*
X147196773Y-100432210D01*
X147046150Y-100511263D01*
X146918816Y-100624072D01*
X146822182Y-100764068D01*
X146761860Y-100923125D01*
X146761859Y-100923130D01*
X146741355Y-101092000D01*
X146761859Y-101260869D01*
X146761860Y-101260874D01*
X146822182Y-101419931D01*
X146875925Y-101497790D01*
X146916913Y-101557171D01*
X146918818Y-101559930D01*
X146985304Y-101618832D01*
X147022431Y-101678021D01*
X147021663Y-101747887D01*
X146983245Y-101806246D01*
X146947052Y-101827588D01*
X146942770Y-101829212D01*
X146792150Y-101908263D01*
X146664816Y-102021072D01*
X146568182Y-102161068D01*
X146507860Y-102320125D01*
X146507859Y-102320130D01*
X146487355Y-102489000D01*
X146487355Y-102489001D01*
X146493163Y-102536840D01*
X146481702Y-102605763D01*
X146434797Y-102657549D01*
X146427698Y-102661579D01*
X146411149Y-102670265D01*
X146411148Y-102670266D01*
X146283816Y-102783072D01*
X146187182Y-102923068D01*
X146126860Y-103082125D01*
X146126859Y-103082130D01*
X146106355Y-103251000D01*
X146126859Y-103419869D01*
X146126860Y-103419874D01*
X146187182Y-103578931D01*
X146206264Y-103606575D01*
X146283817Y-103718929D01*
X146411148Y-103831734D01*
X146496709Y-103876640D01*
X146546921Y-103925224D01*
X146562896Y-103993243D01*
X146539561Y-104059101D01*
X146484325Y-104101888D01*
X146468760Y-104106832D01*
X146434777Y-104115208D01*
X146434774Y-104115209D01*
X146284150Y-104194263D01*
X146156816Y-104307072D01*
X146060182Y-104447068D01*
X145999860Y-104606125D01*
X145999859Y-104606130D01*
X145979355Y-104775000D01*
X145999859Y-104943869D01*
X145999860Y-104943874D01*
X146060182Y-105102931D01*
X146092023Y-105149060D01*
X146113906Y-105215415D01*
X146096440Y-105283066D01*
X146092023Y-105289940D01*
X146060183Y-105336068D01*
X146060182Y-105336068D01*
X145999860Y-105495125D01*
X145999859Y-105495130D01*
X145979355Y-105664000D01*
X145999859Y-105832869D01*
X145999861Y-105832877D01*
X146062841Y-105998944D01*
X146060306Y-105999905D01*
X146071511Y-106055921D01*
X146061359Y-106090494D01*
X146062841Y-106091056D01*
X145999861Y-106257122D01*
X145999859Y-106257130D01*
X145979355Y-106426000D01*
X141241856Y-106426000D01*
X141274140Y-106340872D01*
X141294645Y-106172000D01*
X141274140Y-106003128D01*
X141213818Y-105844070D01*
X141206086Y-105832869D01*
X141126979Y-105718263D01*
X141117183Y-105704071D01*
X140989852Y-105591266D01*
X140989849Y-105591263D01*
X140839226Y-105512210D01*
X140674056Y-105471500D01*
X140503944Y-105471500D01*
X140338774Y-105512209D01*
X140338774Y-105512210D01*
X140265624Y-105550601D01*
X140197115Y-105564325D01*
X140150376Y-105550601D01*
X140077225Y-105512210D01*
X140077225Y-105512209D01*
X139912056Y-105471500D01*
X139741944Y-105471500D01*
X139576773Y-105512210D01*
X139426150Y-105591263D01*
X139298816Y-105704072D01*
X139202182Y-105844068D01*
X139141860Y-106003125D01*
X139141859Y-106003130D01*
X139121355Y-106172000D01*
X134421224Y-106172000D01*
X134416140Y-106130128D01*
X134416036Y-106129855D01*
X134379732Y-106034126D01*
X134355818Y-105971070D01*
X134259183Y-105831071D01*
X134131852Y-105718266D01*
X134131849Y-105718263D01*
X133981226Y-105639210D01*
X133816056Y-105598500D01*
X133645944Y-105598500D01*
X133480773Y-105639210D01*
X133330150Y-105718263D01*
X133202816Y-105831072D01*
X133106182Y-105971068D01*
X133045860Y-106130125D01*
X133045859Y-106130130D01*
X133025355Y-106299000D01*
X119860098Y-106299000D01*
X119919035Y-106214830D01*
X120018903Y-106000663D01*
X120080063Y-105772408D01*
X120100659Y-105537000D01*
X120080063Y-105301592D01*
X120018903Y-105073337D01*
X119919035Y-104859171D01*
X119860098Y-104774999D01*
X119783494Y-104665597D01*
X119616402Y-104498506D01*
X119616396Y-104498501D01*
X119430842Y-104368575D01*
X119387217Y-104313998D01*
X119380023Y-104244500D01*
X119411546Y-104182145D01*
X119430842Y-104165425D01*
X119502556Y-104115210D01*
X119616401Y-104035495D01*
X119783495Y-103868401D01*
X119860098Y-103759000D01*
X121087355Y-103759000D01*
X121107859Y-103927869D01*
X121107860Y-103927874D01*
X121168182Y-104086931D01*
X121226236Y-104171035D01*
X121264817Y-104226929D01*
X121355279Y-104307071D01*
X121392150Y-104339736D01*
X121542773Y-104418789D01*
X121542775Y-104418790D01*
X121707944Y-104459500D01*
X121878056Y-104459500D01*
X122043225Y-104418790D01*
X122170758Y-104351855D01*
X122193849Y-104339736D01*
X122193850Y-104339734D01*
X122193852Y-104339734D01*
X122321183Y-104226929D01*
X122417818Y-104086930D01*
X122478140Y-103927872D01*
X122483224Y-103886000D01*
X133025355Y-103886000D01*
X133045859Y-104054869D01*
X133045860Y-104054874D01*
X133106182Y-104213931D01*
X133168475Y-104304177D01*
X133202817Y-104353929D01*
X133307950Y-104447068D01*
X133330150Y-104466736D01*
X133468954Y-104539586D01*
X133480775Y-104545790D01*
X133645944Y-104586500D01*
X133816056Y-104586500D01*
X133981225Y-104545790D01*
X134071326Y-104498501D01*
X134131849Y-104466736D01*
X134131850Y-104466734D01*
X134131852Y-104466734D01*
X134259183Y-104353929D01*
X134355818Y-104213930D01*
X134416140Y-104054872D01*
X134436645Y-103886000D01*
X134416140Y-103717128D01*
X134355818Y-103558070D01*
X134259183Y-103418071D01*
X134131852Y-103305266D01*
X134131849Y-103305263D01*
X133981226Y-103226210D01*
X133816056Y-103185500D01*
X133645944Y-103185500D01*
X133480773Y-103226210D01*
X133330150Y-103305263D01*
X133202816Y-103418072D01*
X133106182Y-103558068D01*
X133045860Y-103717125D01*
X133045859Y-103717130D01*
X133025355Y-103886000D01*
X122483224Y-103886000D01*
X122498645Y-103759000D01*
X122478140Y-103590128D01*
X122478036Y-103589855D01*
X122445856Y-103505000D01*
X122417818Y-103431070D01*
X122410086Y-103419869D01*
X122330979Y-103305263D01*
X122321183Y-103291071D01*
X122237363Y-103216813D01*
X122200238Y-103157626D01*
X122201006Y-103087761D01*
X122237363Y-103031186D01*
X122321183Y-102956929D01*
X122417818Y-102816930D01*
X122478140Y-102657872D01*
X122498645Y-102489000D01*
X122478140Y-102320128D01*
X122417818Y-102161070D01*
X122321183Y-102021071D01*
X122216048Y-101927930D01*
X122193849Y-101908263D01*
X122043226Y-101829210D01*
X121878056Y-101788500D01*
X121707944Y-101788500D01*
X121542773Y-101829210D01*
X121392150Y-101908263D01*
X121264816Y-102021072D01*
X121168182Y-102161068D01*
X121107860Y-102320125D01*
X121107859Y-102320130D01*
X121087355Y-102489000D01*
X121107859Y-102657869D01*
X121107860Y-102657874D01*
X121168182Y-102816931D01*
X121264818Y-102956930D01*
X121348634Y-103031185D01*
X121385761Y-103090374D01*
X121384993Y-103160240D01*
X121348634Y-103216815D01*
X121264818Y-103291069D01*
X121168182Y-103431068D01*
X121107860Y-103590125D01*
X121107859Y-103590130D01*
X121087355Y-103759000D01*
X119860098Y-103759000D01*
X119919035Y-103674830D01*
X120018903Y-103460663D01*
X120080063Y-103232408D01*
X120100659Y-102997000D01*
X120080063Y-102761592D01*
X120018903Y-102533337D01*
X119919035Y-102319171D01*
X119905962Y-102300500D01*
X119783494Y-102125597D01*
X119616402Y-101958506D01*
X119616396Y-101958501D01*
X119430842Y-101828575D01*
X119387217Y-101773998D01*
X119380023Y-101704500D01*
X119411546Y-101642145D01*
X119430842Y-101625425D01*
X119453026Y-101609891D01*
X119467152Y-101600000D01*
X133025355Y-101600000D01*
X133045859Y-101768869D01*
X133045860Y-101768874D01*
X133106182Y-101927931D01*
X133159925Y-102005790D01*
X133202817Y-102067929D01*
X133307950Y-102161068D01*
X133330150Y-102180736D01*
X133480773Y-102259789D01*
X133480775Y-102259790D01*
X133645944Y-102300500D01*
X133816056Y-102300500D01*
X133981225Y-102259790D01*
X134060692Y-102218081D01*
X134131849Y-102180736D01*
X134131850Y-102180734D01*
X134131852Y-102180734D01*
X134259183Y-102067929D01*
X134355818Y-101927930D01*
X134416140Y-101768872D01*
X134436645Y-101600000D01*
X134416140Y-101431128D01*
X134411440Y-101418736D01*
X134383855Y-101346000D01*
X137851355Y-101346000D01*
X137871859Y-101514869D01*
X137871860Y-101514874D01*
X137932182Y-101673931D01*
X137985924Y-101751788D01*
X138028817Y-101813929D01*
X138129333Y-101902978D01*
X138156150Y-101926736D01*
X138294954Y-101999586D01*
X138306775Y-102005790D01*
X138471944Y-102046500D01*
X138642056Y-102046500D01*
X138807225Y-102005790D01*
X138930810Y-101940927D01*
X138957849Y-101926736D01*
X138957850Y-101926734D01*
X138957852Y-101926734D01*
X139085183Y-101813929D01*
X139181818Y-101673930D01*
X139242140Y-101514872D01*
X139262645Y-101346000D01*
X139242140Y-101177128D01*
X139181818Y-101018070D01*
X139174086Y-101006869D01*
X139116285Y-100923130D01*
X139085183Y-100878071D01*
X139039952Y-100838000D01*
X143312355Y-100838000D01*
X143332859Y-101006869D01*
X143332860Y-101006874D01*
X143393182Y-101165931D01*
X143445464Y-101241673D01*
X143489817Y-101305929D01*
X143595505Y-101399560D01*
X143617150Y-101418736D01*
X143763398Y-101495493D01*
X143767775Y-101497790D01*
X143932944Y-101538500D01*
X144103056Y-101538500D01*
X144268225Y-101497790D01*
X144395234Y-101431130D01*
X144418849Y-101418736D01*
X144418850Y-101418734D01*
X144418852Y-101418734D01*
X144546183Y-101305929D01*
X144642818Y-101165930D01*
X144703140Y-101006872D01*
X144723645Y-100838000D01*
X144703140Y-100669128D01*
X144696827Y-100652483D01*
X144674220Y-100592872D01*
X144642818Y-100510070D01*
X144546183Y-100370071D01*
X144418852Y-100257266D01*
X144418849Y-100257263D01*
X144268226Y-100178210D01*
X144103056Y-100137500D01*
X143932944Y-100137500D01*
X143767773Y-100178210D01*
X143617150Y-100257263D01*
X143489816Y-100370072D01*
X143393182Y-100510068D01*
X143332860Y-100669125D01*
X143332859Y-100669130D01*
X143312355Y-100838000D01*
X139039952Y-100838000D01*
X138957852Y-100765266D01*
X138957849Y-100765263D01*
X138807226Y-100686210D01*
X138642056Y-100645500D01*
X138471944Y-100645500D01*
X138306773Y-100686210D01*
X138156150Y-100765263D01*
X138028816Y-100878072D01*
X137932182Y-101018068D01*
X137871860Y-101177125D01*
X137871859Y-101177130D01*
X137851355Y-101346000D01*
X134383855Y-101346000D01*
X134368658Y-101305927D01*
X134355818Y-101272070D01*
X134348086Y-101260869D01*
X134303659Y-101196505D01*
X134259183Y-101132071D01*
X134131852Y-101019266D01*
X134131849Y-101019263D01*
X133981226Y-100940210D01*
X133816056Y-100899500D01*
X133645944Y-100899500D01*
X133480773Y-100940210D01*
X133330150Y-101019263D01*
X133202816Y-101132072D01*
X133106182Y-101272068D01*
X133045860Y-101431125D01*
X133045859Y-101431130D01*
X133025355Y-101600000D01*
X119467152Y-101600000D01*
X119616401Y-101495495D01*
X119783495Y-101328401D01*
X119919035Y-101134830D01*
X120018903Y-100920663D01*
X120080063Y-100692408D01*
X120100659Y-100457000D01*
X120080063Y-100221592D01*
X120018903Y-99993337D01*
X119919035Y-99779171D01*
X119822939Y-99641930D01*
X119783494Y-99585597D01*
X119616402Y-99418506D01*
X119616396Y-99418501D01*
X119467153Y-99314000D01*
X144963355Y-99314000D01*
X144983859Y-99482869D01*
X144983860Y-99482874D01*
X145044182Y-99641931D01*
X145106475Y-99732177D01*
X145140817Y-99781929D01*
X145246505Y-99875560D01*
X145268150Y-99894736D01*
X145418773Y-99973789D01*
X145418775Y-99973790D01*
X145583944Y-100014500D01*
X145754056Y-100014500D01*
X145919225Y-99973790D01*
X145998692Y-99932081D01*
X146069849Y-99894736D01*
X146069850Y-99894734D01*
X146069852Y-99894734D01*
X146197183Y-99781929D01*
X146293818Y-99641930D01*
X146354140Y-99482872D01*
X146374645Y-99314000D01*
X146354140Y-99145128D01*
X146293818Y-98986070D01*
X146272713Y-98955495D01*
X146259476Y-98936318D01*
X146197183Y-98846071D01*
X146102316Y-98762026D01*
X146069849Y-98733263D01*
X145919226Y-98654210D01*
X145754056Y-98613500D01*
X145583944Y-98613500D01*
X145418773Y-98654210D01*
X145268150Y-98733263D01*
X145140816Y-98846072D01*
X145044182Y-98986068D01*
X144983860Y-99145125D01*
X144983859Y-99145130D01*
X144963355Y-99314000D01*
X119467153Y-99314000D01*
X119430842Y-99288575D01*
X119387217Y-99233998D01*
X119380023Y-99164500D01*
X119411546Y-99102145D01*
X119430842Y-99085425D01*
X119572738Y-98986068D01*
X119616401Y-98955495D01*
X119783495Y-98788401D01*
X119919035Y-98594830D01*
X120018903Y-98380663D01*
X120080063Y-98152408D01*
X120100659Y-97917000D01*
X120080063Y-97681592D01*
X120018903Y-97453337D01*
X119919035Y-97239171D01*
X119817035Y-97093500D01*
X119783496Y-97045600D01*
X119783495Y-97045599D01*
X119661567Y-96923671D01*
X119628084Y-96862351D01*
X119633068Y-96792659D01*
X119674939Y-96736725D01*
X119705915Y-96719810D01*
X119837331Y-96670796D01*
X119952546Y-96584546D01*
X120038796Y-96469331D01*
X120067266Y-96393000D01*
X137724355Y-96393000D01*
X137744859Y-96561869D01*
X137744860Y-96561874D01*
X137805182Y-96720931D01*
X137854693Y-96792659D01*
X137901817Y-96860929D01*
X138007505Y-96954560D01*
X138029150Y-96973736D01*
X138179773Y-97052789D01*
X138179775Y-97052790D01*
X138344944Y-97093500D01*
X138515056Y-97093500D01*
X138680225Y-97052790D01*
X138759692Y-97011081D01*
X138830849Y-96973736D01*
X138830850Y-96973734D01*
X138830852Y-96973734D01*
X138958183Y-96860929D01*
X139054818Y-96720930D01*
X139115140Y-96561872D01*
X139135645Y-96393000D01*
X139120224Y-96266000D01*
X140772355Y-96266000D01*
X140792859Y-96434869D01*
X140792860Y-96434874D01*
X140853182Y-96593931D01*
X140906925Y-96671790D01*
X140949817Y-96733929D01*
X141016110Y-96792659D01*
X141077150Y-96846736D01*
X141223741Y-96923673D01*
X141227775Y-96925790D01*
X141392944Y-96966500D01*
X141563056Y-96966500D01*
X141728225Y-96925790D01*
X141851810Y-96860927D01*
X141878849Y-96846736D01*
X141878850Y-96846734D01*
X141878852Y-96846734D01*
X142006183Y-96733929D01*
X142102818Y-96593930D01*
X142163140Y-96434872D01*
X142183645Y-96266000D01*
X142163140Y-96097128D01*
X142102818Y-95938070D01*
X142027144Y-95828438D01*
X142005262Y-95762086D01*
X142006317Y-95758000D01*
X142677355Y-95758000D01*
X142697859Y-95926869D01*
X142697860Y-95926874D01*
X142758182Y-96085931D01*
X142820475Y-96176177D01*
X142854817Y-96225929D01*
X142910075Y-96274883D01*
X142982150Y-96338736D01*
X143132773Y-96417789D01*
X143132775Y-96417790D01*
X143297944Y-96458500D01*
X143468056Y-96458500D01*
X143633225Y-96417790D01*
X143712692Y-96376081D01*
X143783849Y-96338736D01*
X143783850Y-96338734D01*
X143783852Y-96338734D01*
X143911183Y-96225929D01*
X144007818Y-96085930D01*
X144035856Y-96012000D01*
X155504355Y-96012000D01*
X155524859Y-96180869D01*
X155524860Y-96180874D01*
X155585182Y-96339931D01*
X155638925Y-96417790D01*
X155681817Y-96479929D01*
X155774312Y-96561872D01*
X155809150Y-96592736D01*
X155957875Y-96670793D01*
X155959775Y-96671790D01*
X156124944Y-96712500D01*
X156295056Y-96712500D01*
X156460225Y-96671790D01*
X156539692Y-96630081D01*
X156610849Y-96592736D01*
X156610850Y-96592734D01*
X156610852Y-96592734D01*
X156738183Y-96479929D01*
X156834818Y-96339930D01*
X156895140Y-96180872D01*
X156915645Y-96012000D01*
X156895140Y-95843128D01*
X156834818Y-95684070D01*
X156738183Y-95544071D01*
X156610852Y-95431266D01*
X156610849Y-95431263D01*
X156460226Y-95352210D01*
X156295056Y-95311500D01*
X156124944Y-95311500D01*
X155959773Y-95352210D01*
X155809150Y-95431263D01*
X155681816Y-95544072D01*
X155585182Y-95684068D01*
X155524860Y-95843125D01*
X155524859Y-95843130D01*
X155504355Y-96012000D01*
X144035856Y-96012000D01*
X144068140Y-95926872D01*
X144088645Y-95758000D01*
X144068140Y-95589128D01*
X144063892Y-95577928D01*
X144012532Y-95442500D01*
X144007818Y-95430070D01*
X144000086Y-95418869D01*
X143933730Y-95322736D01*
X143911183Y-95290071D01*
X143783852Y-95177266D01*
X143783849Y-95177263D01*
X143633226Y-95098210D01*
X143468056Y-95057500D01*
X143297944Y-95057500D01*
X143132773Y-95098210D01*
X142982150Y-95177263D01*
X142854816Y-95290072D01*
X142758182Y-95430068D01*
X142697860Y-95589125D01*
X142697859Y-95589130D01*
X142677355Y-95758000D01*
X142006317Y-95758000D01*
X142022727Y-95694434D01*
X142027130Y-95687580D01*
X142102818Y-95577930D01*
X142163140Y-95418872D01*
X142183645Y-95250000D01*
X142163140Y-95081128D01*
X142158892Y-95069928D01*
X142116528Y-94958221D01*
X142102818Y-94922070D01*
X142095086Y-94910869D01*
X142068476Y-94872318D01*
X142006183Y-94782071D01*
X141878852Y-94669266D01*
X141878849Y-94669263D01*
X141728226Y-94590210D01*
X141563056Y-94549500D01*
X141392944Y-94549500D01*
X141227773Y-94590210D01*
X141077150Y-94669263D01*
X140949816Y-94782072D01*
X140853182Y-94922068D01*
X140792860Y-95081125D01*
X140792859Y-95081130D01*
X140772355Y-95250000D01*
X140792859Y-95418869D01*
X140792860Y-95418874D01*
X140853182Y-95577931D01*
X140928854Y-95687560D01*
X140950737Y-95753915D01*
X140933272Y-95821566D01*
X140928854Y-95828440D01*
X140853183Y-95938068D01*
X140853182Y-95938068D01*
X140792860Y-96097125D01*
X140792859Y-96097130D01*
X140772355Y-96266000D01*
X139120224Y-96266000D01*
X139115140Y-96224128D01*
X139054818Y-96065070D01*
X138958183Y-95925071D01*
X138874363Y-95850813D01*
X138837238Y-95791626D01*
X138838006Y-95721761D01*
X138874363Y-95665186D01*
X138958183Y-95590929D01*
X139054818Y-95450930D01*
X139115140Y-95291872D01*
X139135645Y-95123000D01*
X139115140Y-94954128D01*
X139054818Y-94795070D01*
X139045845Y-94782071D01*
X139003484Y-94720701D01*
X138958183Y-94655071D01*
X138830852Y-94542266D01*
X138830849Y-94542263D01*
X138680226Y-94463210D01*
X138515056Y-94422500D01*
X138344944Y-94422500D01*
X138179773Y-94463210D01*
X138029150Y-94542263D01*
X137901816Y-94655072D01*
X137805182Y-94795068D01*
X137744860Y-94954125D01*
X137744859Y-94954130D01*
X137724355Y-95123000D01*
X137744859Y-95291869D01*
X137744860Y-95291874D01*
X137805182Y-95450931D01*
X137869473Y-95544071D01*
X137900575Y-95589130D01*
X137901818Y-95590930D01*
X137985634Y-95665185D01*
X138022761Y-95724374D01*
X138021993Y-95794240D01*
X137985634Y-95850815D01*
X137901818Y-95925069D01*
X137805182Y-96065068D01*
X137744860Y-96224125D01*
X137744859Y-96224130D01*
X137724355Y-96393000D01*
X120067266Y-96393000D01*
X120089091Y-96334483D01*
X120095500Y-96274873D01*
X120095499Y-94742000D01*
X127691355Y-94742000D01*
X127711859Y-94910869D01*
X127711860Y-94910874D01*
X127772182Y-95069931D01*
X127791702Y-95098210D01*
X127868817Y-95209929D01*
X127961312Y-95291872D01*
X127996150Y-95322736D01*
X128146773Y-95401789D01*
X128146775Y-95401790D01*
X128311944Y-95442500D01*
X128482056Y-95442500D01*
X128647225Y-95401790D01*
X128741691Y-95352210D01*
X128797849Y-95322736D01*
X128797850Y-95322734D01*
X128797852Y-95322734D01*
X128925183Y-95209929D01*
X129021818Y-95069930D01*
X129082140Y-94910872D01*
X129099404Y-94768689D01*
X129110696Y-94742453D01*
X129110257Y-94741545D01*
X129334303Y-94741545D01*
X129344821Y-94763298D01*
X129345596Y-94768690D01*
X129362859Y-94910869D01*
X129362860Y-94910874D01*
X129423182Y-95069931D01*
X129442702Y-95098210D01*
X129519817Y-95209929D01*
X129612312Y-95291872D01*
X129647150Y-95322736D01*
X129797773Y-95401789D01*
X129797775Y-95401790D01*
X129962944Y-95442500D01*
X130133056Y-95442500D01*
X130298225Y-95401790D01*
X130392691Y-95352210D01*
X130448849Y-95322736D01*
X130448850Y-95322734D01*
X130448852Y-95322734D01*
X130576183Y-95209929D01*
X130672818Y-95069930D01*
X130733140Y-94910872D01*
X130750404Y-94768689D01*
X130761696Y-94742453D01*
X130761257Y-94741545D01*
X130985303Y-94741545D01*
X130995821Y-94763298D01*
X130996596Y-94768690D01*
X131013859Y-94910869D01*
X131013860Y-94910874D01*
X131074182Y-95069931D01*
X131093702Y-95098210D01*
X131170817Y-95209929D01*
X131263312Y-95291872D01*
X131298150Y-95322736D01*
X131448773Y-95401789D01*
X131448775Y-95401790D01*
X131613944Y-95442500D01*
X131784056Y-95442500D01*
X131949225Y-95401790D01*
X132043691Y-95352210D01*
X132099849Y-95322736D01*
X132099850Y-95322734D01*
X132099852Y-95322734D01*
X132227183Y-95209929D01*
X132323818Y-95069930D01*
X132345058Y-95013923D01*
X132387235Y-94958221D01*
X132452833Y-94934163D01*
X132521023Y-94949390D01*
X132570157Y-94999065D01*
X132576942Y-95013924D01*
X132598181Y-95069928D01*
X132598182Y-95069931D01*
X132617702Y-95098210D01*
X132694817Y-95209929D01*
X132787312Y-95291872D01*
X132822150Y-95322736D01*
X132972773Y-95401789D01*
X132972775Y-95401790D01*
X133137944Y-95442500D01*
X133308056Y-95442500D01*
X133473225Y-95401790D01*
X133567691Y-95352210D01*
X133623849Y-95322736D01*
X133623850Y-95322734D01*
X133623852Y-95322734D01*
X133751183Y-95209929D01*
X133847818Y-95069930D01*
X133908140Y-94910872D01*
X133928645Y-94742000D01*
X133908140Y-94573128D01*
X133847818Y-94414070D01*
X133751183Y-94274071D01*
X133633096Y-94169455D01*
X133623849Y-94161263D01*
X133473226Y-94082210D01*
X133308056Y-94041500D01*
X133137944Y-94041500D01*
X132972773Y-94082210D01*
X132822150Y-94161263D01*
X132694816Y-94274072D01*
X132598182Y-94414068D01*
X132598182Y-94414069D01*
X132576942Y-94470076D01*
X132534764Y-94525779D01*
X132469167Y-94549836D01*
X132400976Y-94534609D01*
X132351843Y-94484933D01*
X132345058Y-94470076D01*
X132327015Y-94422500D01*
X132323818Y-94414070D01*
X132227183Y-94274071D01*
X132109096Y-94169455D01*
X132099849Y-94161263D01*
X131949226Y-94082210D01*
X131784056Y-94041500D01*
X131613944Y-94041500D01*
X131448773Y-94082210D01*
X131298150Y-94161263D01*
X131170816Y-94274072D01*
X131074182Y-94414068D01*
X131013860Y-94573125D01*
X131013859Y-94573130D01*
X130996596Y-94715309D01*
X130985303Y-94741545D01*
X130761257Y-94741545D01*
X130751179Y-94720701D01*
X130750404Y-94715309D01*
X130733140Y-94573130D01*
X130733139Y-94573125D01*
X130697491Y-94479128D01*
X130672818Y-94414070D01*
X130576183Y-94274071D01*
X130458096Y-94169455D01*
X130448849Y-94161263D01*
X130298226Y-94082210D01*
X130133056Y-94041500D01*
X129962944Y-94041500D01*
X129797773Y-94082210D01*
X129647150Y-94161263D01*
X129519816Y-94274072D01*
X129423182Y-94414068D01*
X129362860Y-94573125D01*
X129362859Y-94573130D01*
X129345596Y-94715309D01*
X129334303Y-94741545D01*
X129110257Y-94741545D01*
X129100179Y-94720701D01*
X129099404Y-94715309D01*
X129082140Y-94573130D01*
X129082139Y-94573125D01*
X129046491Y-94479128D01*
X129021818Y-94414070D01*
X128925183Y-94274071D01*
X128807096Y-94169455D01*
X128797849Y-94161263D01*
X128647226Y-94082210D01*
X128482056Y-94041500D01*
X128311944Y-94041500D01*
X128146773Y-94082210D01*
X127996150Y-94161263D01*
X127868816Y-94274072D01*
X127772182Y-94414068D01*
X127711860Y-94573125D01*
X127711859Y-94573130D01*
X127691355Y-94742000D01*
X120095499Y-94742000D01*
X120095499Y-94479128D01*
X120089091Y-94419517D01*
X120087059Y-94414070D01*
X120038797Y-94284671D01*
X120038793Y-94284664D01*
X119952547Y-94169455D01*
X119952544Y-94169452D01*
X119837335Y-94083206D01*
X119837328Y-94083202D01*
X119702482Y-94032908D01*
X119702483Y-94032908D01*
X119642883Y-94026501D01*
X119642881Y-94026500D01*
X119642873Y-94026500D01*
X119642864Y-94026500D01*
X117847129Y-94026500D01*
X117847123Y-94026501D01*
X117787516Y-94032908D01*
X117652671Y-94083202D01*
X117652664Y-94083206D01*
X117537455Y-94169452D01*
X117537452Y-94169455D01*
X117451206Y-94284664D01*
X117451202Y-94284671D01*
X117400908Y-94419517D01*
X117396211Y-94463210D01*
X117394501Y-94479123D01*
X117394500Y-94479135D01*
X117394500Y-96274870D01*
X117394501Y-96274876D01*
X117400908Y-96334483D01*
X117451202Y-96469328D01*
X117451206Y-96469335D01*
X117537452Y-96584544D01*
X117537455Y-96584547D01*
X117652664Y-96670793D01*
X117652671Y-96670797D01*
X117784081Y-96719810D01*
X117840015Y-96761681D01*
X117864432Y-96827145D01*
X117849580Y-96895418D01*
X117828430Y-96923673D01*
X117706503Y-97045600D01*
X117570965Y-97239169D01*
X117570964Y-97239171D01*
X117471098Y-97453335D01*
X117471094Y-97453344D01*
X117409938Y-97681586D01*
X117409936Y-97681596D01*
X117389341Y-97916999D01*
X117389341Y-97917000D01*
X117409936Y-98152403D01*
X117409938Y-98152413D01*
X117471094Y-98380655D01*
X117471096Y-98380659D01*
X117471097Y-98380663D01*
X117520894Y-98487452D01*
X117570965Y-98594830D01*
X117570967Y-98594834D01*
X117706501Y-98788395D01*
X117706506Y-98788402D01*
X117873597Y-98955493D01*
X117873603Y-98955498D01*
X118059158Y-99085425D01*
X118102783Y-99140002D01*
X118109977Y-99209500D01*
X118078454Y-99271855D01*
X118059158Y-99288575D01*
X117873597Y-99418505D01*
X117706505Y-99585597D01*
X117570965Y-99779169D01*
X117570964Y-99779171D01*
X117471098Y-99993335D01*
X117471094Y-99993344D01*
X117409938Y-100221586D01*
X117409936Y-100221596D01*
X117389341Y-100456999D01*
X117389341Y-100457000D01*
X117409936Y-100692403D01*
X117409938Y-100692413D01*
X117471094Y-100920655D01*
X117471096Y-100920659D01*
X117471097Y-100920663D01*
X117536521Y-101060965D01*
X117570965Y-101134830D01*
X117570967Y-101134834D01*
X117706501Y-101328395D01*
X117706506Y-101328402D01*
X117873597Y-101495493D01*
X117873603Y-101495498D01*
X118059158Y-101625425D01*
X118102783Y-101680002D01*
X118109977Y-101749500D01*
X118078454Y-101811855D01*
X118059158Y-101828575D01*
X117873597Y-101958505D01*
X117706505Y-102125597D01*
X117570965Y-102319169D01*
X117570964Y-102319171D01*
X117471098Y-102533335D01*
X117471094Y-102533344D01*
X117409938Y-102761586D01*
X117409936Y-102761596D01*
X117389341Y-102996999D01*
X117389341Y-102997000D01*
X117409936Y-103232403D01*
X117409938Y-103232413D01*
X117471094Y-103460655D01*
X117471096Y-103460659D01*
X117471097Y-103460663D01*
X117531468Y-103590128D01*
X117570965Y-103674830D01*
X117570967Y-103674834D01*
X117706501Y-103868395D01*
X117706506Y-103868402D01*
X117873597Y-104035493D01*
X117873603Y-104035498D01*
X118059158Y-104165425D01*
X118102783Y-104220002D01*
X118109977Y-104289500D01*
X118078454Y-104351855D01*
X118059158Y-104368575D01*
X117873597Y-104498505D01*
X117706505Y-104665597D01*
X117570965Y-104859169D01*
X117570964Y-104859171D01*
X117471098Y-105073335D01*
X117471094Y-105073344D01*
X117409938Y-105301586D01*
X117409936Y-105301596D01*
X117389341Y-105536999D01*
X117389341Y-105537000D01*
X117409936Y-105772403D01*
X117409938Y-105772413D01*
X117471094Y-106000655D01*
X117471096Y-106000659D01*
X117471097Y-106000663D01*
X117531468Y-106130128D01*
X117570965Y-106214830D01*
X117570967Y-106214834D01*
X117706501Y-106408395D01*
X117706506Y-106408402D01*
X117873597Y-106575493D01*
X117873603Y-106575498D01*
X118059158Y-106705425D01*
X118102783Y-106760002D01*
X118109977Y-106829500D01*
X118078454Y-106891855D01*
X118059158Y-106908575D01*
X117873597Y-107038505D01*
X117706505Y-107205597D01*
X117570965Y-107399169D01*
X117570964Y-107399171D01*
X117471098Y-107613335D01*
X117471094Y-107613344D01*
X117409938Y-107841586D01*
X117409936Y-107841596D01*
X117389341Y-108076999D01*
X117389341Y-108077000D01*
X116070500Y-108077000D01*
X116070500Y-93726000D01*
X121595355Y-93726000D01*
X121615859Y-93894869D01*
X121615860Y-93894874D01*
X121676182Y-94053931D01*
X121738475Y-94144177D01*
X121772817Y-94193929D01*
X121863279Y-94274071D01*
X121900150Y-94306736D01*
X122050773Y-94385789D01*
X122050775Y-94385790D01*
X122215944Y-94426500D01*
X122386056Y-94426500D01*
X122551225Y-94385790D01*
X122630692Y-94344081D01*
X122701849Y-94306736D01*
X122701850Y-94306734D01*
X122701852Y-94306734D01*
X122829183Y-94193929D01*
X122925818Y-94053930D01*
X122986140Y-93894872D01*
X123006645Y-93726000D01*
X122986140Y-93557128D01*
X122925818Y-93398070D01*
X122829183Y-93258071D01*
X122701852Y-93145266D01*
X122701849Y-93145263D01*
X122598459Y-93091000D01*
X127691355Y-93091000D01*
X127711859Y-93259869D01*
X127711860Y-93259874D01*
X127772182Y-93418931D01*
X127834475Y-93509177D01*
X127868817Y-93558929D01*
X127974505Y-93652560D01*
X127996150Y-93671736D01*
X128146773Y-93750789D01*
X128146775Y-93750790D01*
X128311944Y-93791500D01*
X128482056Y-93791500D01*
X128647225Y-93750790D01*
X128726692Y-93709081D01*
X128797849Y-93671736D01*
X128797850Y-93671734D01*
X128797852Y-93671734D01*
X128925183Y-93558929D01*
X129021818Y-93418930D01*
X129082140Y-93259872D01*
X129102645Y-93091000D01*
X129082140Y-92922128D01*
X129021818Y-92763070D01*
X128925183Y-92623071D01*
X128797852Y-92510266D01*
X128797849Y-92510263D01*
X128647226Y-92431210D01*
X128482056Y-92390500D01*
X128311944Y-92390500D01*
X128146773Y-92431210D01*
X127996150Y-92510263D01*
X127868816Y-92623072D01*
X127772182Y-92763068D01*
X127711860Y-92922125D01*
X127711859Y-92922130D01*
X127691355Y-93091000D01*
X122598459Y-93091000D01*
X122551226Y-93066210D01*
X122386056Y-93025500D01*
X122215944Y-93025500D01*
X122050773Y-93066210D01*
X121900150Y-93145263D01*
X121772816Y-93258072D01*
X121676182Y-93398068D01*
X121615860Y-93557125D01*
X121615859Y-93557130D01*
X121595355Y-93726000D01*
X116070500Y-93726000D01*
X116070500Y-87500000D01*
X116090185Y-87432961D01*
X116142989Y-87387206D01*
X116194500Y-87376000D01*
X118482092Y-87376000D01*
X118549131Y-87395685D01*
G37*
%TD.AperFunction*%
%TD*%
M02*
