%TF.GenerationSoftware,KiCad,Pcbnew,7.0.11-7.0.11~ubuntu22.04.1*%
%TF.CreationDate,2025-04-19T23:19:54+01:00*%
%TF.ProjectId,Mixed_Signal_Design,4d697865-645f-4536-9967-6e616c5f4465,rev?*%
%TF.SameCoordinates,Original*%
%TF.FileFunction,Soldermask,Top*%
%TF.FilePolarity,Negative*%
%FSLAX46Y46*%
G04 Gerber Fmt 4.6, Leading zero omitted, Abs format (unit mm)*
G04 Created by KiCad (PCBNEW 7.0.11-7.0.11~ubuntu22.04.1) date 2025-04-19 23:19:54*
%MOMM*%
%LPD*%
G01*
G04 APERTURE LIST*
G04 Aperture macros list*
%AMRoundRect*
0 Rectangle with rounded corners*
0 $1 Rounding radius*
0 $2 $3 $4 $5 $6 $7 $8 $9 X,Y pos of 4 corners*
0 Add a 4 corners polygon primitive as box body*
4,1,4,$2,$3,$4,$5,$6,$7,$8,$9,$2,$3,0*
0 Add four circle primitives for the rounded corners*
1,1,$1+$1,$2,$3*
1,1,$1+$1,$4,$5*
1,1,$1+$1,$6,$7*
1,1,$1+$1,$8,$9*
0 Add four rect primitives between the rounded corners*
20,1,$1+$1,$2,$3,$4,$5,0*
20,1,$1+$1,$4,$5,$6,$7,0*
20,1,$1+$1,$6,$7,$8,$9,0*
20,1,$1+$1,$8,$9,$2,$3,0*%
G04 Aperture macros list end*
%ADD10C,1.500000*%
%ADD11RoundRect,0.225000X0.225000X0.250000X-0.225000X0.250000X-0.225000X-0.250000X0.225000X-0.250000X0*%
%ADD12RoundRect,0.225000X-0.250000X0.225000X-0.250000X-0.225000X0.250000X-0.225000X0.250000X0.225000X0*%
%ADD13RoundRect,0.218750X-0.218750X-0.256250X0.218750X-0.256250X0.218750X0.256250X-0.218750X0.256250X0*%
%ADD14RoundRect,0.140000X-0.170000X0.140000X-0.170000X-0.140000X0.170000X-0.140000X0.170000X0.140000X0*%
%ADD15RoundRect,0.160000X0.197500X0.160000X-0.197500X0.160000X-0.197500X-0.160000X0.197500X-0.160000X0*%
%ADD16R,1.700000X1.700000*%
%ADD17O,1.700000X1.700000*%
%ADD18C,3.500000*%
%ADD19RoundRect,0.225000X0.250000X-0.225000X0.250000X0.225000X-0.250000X0.225000X-0.250000X-0.225000X0*%
%ADD20R,4.500000X2.000000*%
%ADD21R,1.700000X0.900000*%
%ADD22RoundRect,0.102000X-0.642500X-0.735000X0.642500X-0.735000X0.642500X0.735000X-0.642500X0.735000X0*%
%ADD23R,1.600000X0.550000*%
%ADD24R,0.550000X1.600000*%
%ADD25RoundRect,0.250000X0.350000X-0.850000X0.350000X0.850000X-0.350000X0.850000X-0.350000X-0.850000X0*%
%ADD26RoundRect,0.249997X2.650003X-2.950003X2.650003X2.950003X-2.650003X2.950003X-2.650003X-2.950003X0*%
%ADD27RoundRect,0.225000X-0.225000X-0.250000X0.225000X-0.250000X0.225000X0.250000X-0.225000X0.250000X0*%
%ADD28C,1.600000*%
%ADD29R,4.000000X2.000000*%
%ADD30O,3.300000X2.000000*%
%ADD31O,2.000000X3.500000*%
%ADD32RoundRect,0.160000X-0.197500X-0.160000X0.197500X-0.160000X0.197500X0.160000X-0.197500X0.160000X0*%
%ADD33RoundRect,0.140000X0.170000X-0.140000X0.170000X0.140000X-0.170000X0.140000X-0.170000X-0.140000X0*%
%ADD34RoundRect,0.250000X0.500000X1.100000X-0.500000X1.100000X-0.500000X-1.100000X0.500000X-1.100000X0*%
G04 APERTURE END LIST*
D10*
%TO.C,FID1*%
X124206000Y-98171000D03*
%TD*%
D11*
%TO.C,C5*%
X136678000Y-107188000D03*
X135128000Y-107188000D03*
%TD*%
D12*
%TO.C,C16*%
X134747000Y-91046000D03*
X134747000Y-92596000D03*
%TD*%
D13*
%TO.C,D3*%
X122656500Y-101600000D03*
X124231500Y-101600000D03*
%TD*%
D14*
%TO.C,C14*%
X135128000Y-96802000D03*
X135128000Y-97762000D03*
%TD*%
D15*
%TO.C,R2*%
X131661500Y-102235000D03*
X130466500Y-102235000D03*
%TD*%
D16*
%TO.C,J4*%
X164846000Y-99695000D03*
D17*
X164846000Y-102235000D03*
X164846000Y-104775000D03*
X164846000Y-107315000D03*
X164846000Y-109855000D03*
X164846000Y-112395000D03*
X164846000Y-114935000D03*
X164846000Y-117475000D03*
%TD*%
D12*
%TO.C,C18*%
X130683000Y-91072000D03*
X130683000Y-92622000D03*
%TD*%
D11*
%TO.C,C8*%
X141999000Y-100330000D03*
X140449000Y-100330000D03*
%TD*%
D18*
%TO.C,H1*%
X165735000Y-123317000D03*
%TD*%
D19*
%TO.C,C12*%
X130810000Y-97663000D03*
X130810000Y-96113000D03*
%TD*%
D20*
%TO.C,Y1*%
X140657000Y-92202000D03*
X149157000Y-92202000D03*
%TD*%
D11*
%TO.C,C7*%
X141999000Y-102362000D03*
X140449000Y-102362000D03*
%TD*%
D21*
%TO.C,SW1*%
X132588000Y-124460000D03*
X132588000Y-121060000D03*
%TD*%
D22*
%TO.C,FB1*%
X140632000Y-110998000D03*
X142578000Y-110998000D03*
%TD*%
D16*
%TO.C,J2*%
X118745000Y-95377000D03*
D17*
X118745000Y-97917000D03*
X118745000Y-100457000D03*
X118745000Y-102997000D03*
X118745000Y-105537000D03*
X118745000Y-108077000D03*
%TD*%
D18*
%TO.C,H3*%
X119126000Y-89789000D03*
%TD*%
D23*
%TO.C,U4*%
X153729000Y-106432000D03*
X153729000Y-105632000D03*
X153729000Y-104832000D03*
X153729000Y-104032000D03*
X153729000Y-103232000D03*
X153729000Y-102432000D03*
X153729000Y-101632000D03*
X153729000Y-100832000D03*
D24*
X152279000Y-99382000D03*
X151479000Y-99382000D03*
X150679000Y-99382000D03*
X149879000Y-99382000D03*
X149079000Y-99382000D03*
X148279000Y-99382000D03*
X147479000Y-99382000D03*
X146679000Y-99382000D03*
D23*
X145229000Y-100832000D03*
X145229000Y-101632000D03*
X145229000Y-102432000D03*
X145229000Y-103232000D03*
X145229000Y-104032000D03*
X145229000Y-104832000D03*
X145229000Y-105632000D03*
X145229000Y-106432000D03*
D24*
X146679000Y-107882000D03*
X147479000Y-107882000D03*
X148279000Y-107882000D03*
X149079000Y-107882000D03*
X149879000Y-107882000D03*
X150679000Y-107882000D03*
X151479000Y-107882000D03*
X152279000Y-107882000D03*
%TD*%
D10*
%TO.C,FID3*%
X131826000Y-111379000D03*
%TD*%
D11*
%TO.C,C6*%
X136678000Y-104775000D03*
X135128000Y-104775000D03*
%TD*%
D25*
%TO.C,U1*%
X140721000Y-123370000D03*
X143001000Y-123370000D03*
D26*
X143001000Y-117070000D03*
D25*
X145281000Y-123370000D03*
%TD*%
D27*
%TO.C,C9*%
X159385000Y-99314000D03*
X160935000Y-99314000D03*
%TD*%
D15*
%TO.C,R3*%
X131661500Y-100330000D03*
X130466500Y-100330000D03*
%TD*%
%TO.C,R1*%
X131713500Y-104267000D03*
X130518500Y-104267000D03*
%TD*%
D12*
%TO.C,C20*%
X137287000Y-122301000D03*
X137287000Y-123851000D03*
%TD*%
D19*
%TO.C,C11*%
X128427000Y-97663000D03*
X128427000Y-96113000D03*
%TD*%
D27*
%TO.C,C10*%
X159359000Y-102362000D03*
X160909000Y-102362000D03*
%TD*%
D28*
%TO.C,J1*%
X121920000Y-123412000D03*
D29*
X121920000Y-114412000D03*
D30*
X121920000Y-120412000D03*
D31*
X117420000Y-121412000D03*
X126420000Y-121412000D03*
%TD*%
D32*
%TO.C,R4*%
X155485500Y-94361000D03*
X156680500Y-94361000D03*
%TD*%
D18*
%TO.C,H4*%
X132588000Y-116459000D03*
%TD*%
D12*
%TO.C,C17*%
X132715000Y-91072000D03*
X132715000Y-92622000D03*
%TD*%
D11*
%TO.C,C2*%
X141999000Y-105156000D03*
X140449000Y-105156000D03*
%TD*%
D25*
%TO.C,U2*%
X150132500Y-123394000D03*
X152412500Y-123394000D03*
D26*
X152412500Y-117094000D03*
D25*
X154692500Y-123394000D03*
%TD*%
D10*
%TO.C,FID2*%
X160147000Y-107569000D03*
%TD*%
D13*
%TO.C,D1*%
X122656500Y-104267000D03*
X124231500Y-104267000D03*
%TD*%
D18*
%TO.C,H2*%
X165735000Y-89662000D03*
%TD*%
D11*
%TO.C,C4*%
X136665000Y-100330000D03*
X135115000Y-100330000D03*
%TD*%
%TO.C,C19*%
X160922000Y-105029000D03*
X159372000Y-105029000D03*
%TD*%
D33*
%TO.C,C15*%
X136652000Y-97762000D03*
X136652000Y-96802000D03*
%TD*%
D19*
%TO.C,C13*%
X133096000Y-97663000D03*
X133096000Y-96113000D03*
%TD*%
D11*
%TO.C,C3*%
X136678000Y-102549000D03*
X135128000Y-102549000D03*
%TD*%
D34*
%TO.C,D2*%
X127876000Y-109220000D03*
X123076000Y-109220000D03*
%TD*%
D11*
%TO.C,C1*%
X141999000Y-107188000D03*
X140449000Y-107188000D03*
%TD*%
M02*
