%TF.GenerationSoftware,KiCad,Pcbnew,7.0.11-7.0.11~ubuntu22.04.1*%
%TF.CreationDate,2025-04-19T23:19:39+01:00*%
%TF.ProjectId,Mixed_Signal_Design,4d697865-645f-4536-9967-6e616c5f4465,rev?*%
%TF.SameCoordinates,Original*%
%TF.FileFunction,Drillmap*%
%TF.FilePolarity,Positive*%
%FSLAX45Y45*%
G04 Gerber Fmt 4.5, Leading zero omitted, Abs format (unit mm)*
G04 Created by KiCad (PCBNEW 7.0.11-7.0.11~ubuntu22.04.1) date 2025-04-19 23:19:39*
%MOMM*%
%LPD*%
G01*
G04 APERTURE LIST*
%ADD10C,0.050000*%
%ADD11C,0.200000*%
%ADD12C,0.100000*%
%ADD13C,0.220000*%
G04 APERTURE END LIST*
D10*
X11557000Y-8686800D02*
X16903700Y-8686800D01*
X16903700Y-12661900D01*
X11557000Y-12661900D01*
X11557000Y-8686800D01*
D11*
D12*
X11864500Y-11191400D02*
X11884500Y-11211400D01*
X11884500Y-11191400D02*
X11864500Y-11211400D01*
X12169300Y-10238900D02*
X12189300Y-10258900D01*
X12189300Y-10238900D02*
X12169300Y-10258900D01*
X12169300Y-10365900D02*
X12189300Y-10385900D01*
X12189300Y-10365900D02*
X12169300Y-10385900D01*
X12220100Y-9362600D02*
X12240100Y-9382600D01*
X12240100Y-9362600D02*
X12220100Y-9382600D01*
X12321700Y-8854600D02*
X12341700Y-8874600D01*
X12341700Y-8854600D02*
X12321700Y-8874600D01*
X12563000Y-8854600D02*
X12583000Y-8874600D01*
X12583000Y-8854600D02*
X12563000Y-8874600D01*
X12817000Y-11597800D02*
X12837000Y-11617800D01*
X12837000Y-11597800D02*
X12817000Y-11617800D01*
X12829700Y-9299100D02*
X12849700Y-9319100D01*
X12849700Y-9299100D02*
X12829700Y-9319100D01*
X12829700Y-9464200D02*
X12849700Y-9484200D01*
X12849700Y-9464200D02*
X12829700Y-9484200D01*
X12829700Y-11864500D02*
X12849700Y-11884500D01*
X12849700Y-11864500D02*
X12829700Y-11884500D01*
X12931300Y-11915300D02*
X12951300Y-11935300D01*
X12951300Y-11915300D02*
X12931300Y-11935300D01*
X12994800Y-9464200D02*
X13014800Y-9484200D01*
X13014800Y-9464200D02*
X12994800Y-9484200D01*
X12994800Y-10912000D02*
X13014800Y-10932000D01*
X13014800Y-10912000D02*
X12994800Y-10932000D01*
X13159900Y-9464200D02*
X13179900Y-9484200D01*
X13179900Y-9464200D02*
X13159900Y-9484200D01*
X13159900Y-10696100D02*
X13179900Y-10716100D01*
X13179900Y-10696100D02*
X13159900Y-10716100D01*
X13312300Y-9464200D02*
X13332300Y-9484200D01*
X13332300Y-9464200D02*
X13312300Y-9484200D01*
X13363100Y-10150000D02*
X13383100Y-10170000D01*
X13383100Y-10150000D02*
X13363100Y-10170000D01*
X13363100Y-10378600D02*
X13383100Y-10398600D01*
X13383100Y-10378600D02*
X13363100Y-10398600D01*
X13363100Y-10619900D02*
X13383100Y-10639900D01*
X13383100Y-10619900D02*
X13363100Y-10639900D01*
X13655200Y-10137300D02*
X13675200Y-10157300D01*
X13675200Y-10137300D02*
X13655200Y-10157300D01*
X13655200Y-10353200D02*
X13675200Y-10373200D01*
X13675200Y-10353200D02*
X13655200Y-10373200D01*
X13655200Y-10581800D02*
X13675200Y-10601800D01*
X13675200Y-10581800D02*
X13655200Y-10601800D01*
X13655200Y-11064400D02*
X13675200Y-11084400D01*
X13675200Y-11064400D02*
X13655200Y-11084400D01*
X13718700Y-11915300D02*
X13738700Y-11935300D01*
X13738700Y-11915300D02*
X13718700Y-11935300D01*
X13833000Y-9502300D02*
X13853000Y-9522300D01*
X13853000Y-9502300D02*
X13833000Y-9522300D01*
X13833000Y-9629300D02*
X13853000Y-9649300D01*
X13853000Y-9629300D02*
X13833000Y-9649300D01*
X13845700Y-10124600D02*
X13865700Y-10144600D01*
X13865700Y-10124600D02*
X13845700Y-10144600D01*
X13909200Y-8841900D02*
X13929200Y-8861900D01*
X13929200Y-8841900D02*
X13909200Y-8861900D01*
X13909200Y-12334400D02*
X13929200Y-12354400D01*
X13929200Y-12334400D02*
X13909200Y-12354400D01*
X13909200Y-12512200D02*
X13929200Y-12532200D01*
X13929200Y-12512200D02*
X13909200Y-12532200D01*
X13972700Y-10607200D02*
X13992700Y-10627200D01*
X13992700Y-10607200D02*
X13972700Y-10627200D01*
X14048900Y-10607200D02*
X14068900Y-10627200D01*
X14068900Y-10607200D02*
X14048900Y-10627200D01*
X14061600Y-10823100D02*
X14081600Y-10843100D01*
X14081600Y-10823100D02*
X14061600Y-10843100D01*
X14061600Y-12512200D02*
X14081600Y-12532200D01*
X14081600Y-12512200D02*
X14061600Y-12532200D01*
X14137800Y-9515000D02*
X14157800Y-9535000D01*
X14157800Y-9515000D02*
X14137800Y-9535000D01*
X14137800Y-9616600D02*
X14157800Y-9636600D01*
X14157800Y-9616600D02*
X14137800Y-9636600D01*
X14188600Y-10873900D02*
X14208600Y-10893900D01*
X14208600Y-10873900D02*
X14188600Y-10893900D01*
X14290200Y-12055000D02*
X14310200Y-12075000D01*
X14310200Y-12055000D02*
X14290200Y-12075000D01*
X14328300Y-9565800D02*
X14348300Y-9585800D01*
X14348300Y-9565800D02*
X14328300Y-9585800D01*
X14379100Y-12537600D02*
X14399100Y-12557600D01*
X14399100Y-12537600D02*
X14379100Y-12557600D01*
X14391800Y-10073800D02*
X14411800Y-10093800D01*
X14411800Y-10073800D02*
X14391800Y-10093800D01*
X14468000Y-8841900D02*
X14488000Y-8861900D01*
X14488000Y-8841900D02*
X14468000Y-8861900D01*
X14556900Y-9921400D02*
X14576900Y-9941400D01*
X14576900Y-9921400D02*
X14556900Y-9941400D01*
X14658500Y-10467500D02*
X14678500Y-10487500D01*
X14678500Y-10467500D02*
X14658500Y-10487500D01*
X14658500Y-10556400D02*
X14678500Y-10576400D01*
X14678500Y-10556400D02*
X14658500Y-10576400D01*
X14658500Y-10632600D02*
X14678500Y-10652600D01*
X14678500Y-10632600D02*
X14658500Y-10652600D01*
X14658500Y-10950100D02*
X14678500Y-10970100D01*
X14678500Y-10950100D02*
X14658500Y-10970100D01*
X14671200Y-10315100D02*
X14691200Y-10335100D01*
X14691200Y-10315100D02*
X14671200Y-10335100D01*
X14683900Y-12321700D02*
X14703900Y-12341700D01*
X14703900Y-12321700D02*
X14683900Y-12341700D01*
X14709300Y-10238900D02*
X14729300Y-10258900D01*
X14729300Y-10238900D02*
X14709300Y-10258900D01*
X14734700Y-10099200D02*
X14754700Y-10119200D01*
X14754700Y-10099200D02*
X14734700Y-10119200D01*
X14747400Y-11013600D02*
X14767400Y-11033600D01*
X14767400Y-11013600D02*
X14747400Y-11033600D01*
X14760100Y-11521600D02*
X14780100Y-11541600D01*
X14780100Y-11521600D02*
X14760100Y-11541600D01*
X14785500Y-11762900D02*
X14805500Y-11782900D01*
X14805500Y-11762900D02*
X14785500Y-11782900D01*
X14785500Y-11966100D02*
X14805500Y-11986100D01*
X14805500Y-11966100D02*
X14785500Y-11986100D01*
X14836300Y-11077100D02*
X14856300Y-11097100D01*
X14856300Y-11077100D02*
X14836300Y-11097100D01*
X14899800Y-11166000D02*
X14919800Y-11186000D01*
X14919800Y-11166000D02*
X14899800Y-11186000D01*
X14976000Y-11254900D02*
X14996000Y-11274900D01*
X14996000Y-11254900D02*
X14976000Y-11274900D01*
X14988700Y-10137300D02*
X15008700Y-10157300D01*
X15008700Y-10137300D02*
X14988700Y-10157300D01*
X15090300Y-8854600D02*
X15110300Y-8874600D01*
X15110300Y-8854600D02*
X15090300Y-8874600D01*
X15369700Y-12537600D02*
X15389700Y-12557600D01*
X15389700Y-12537600D02*
X15369700Y-12557600D01*
X15534800Y-10759600D02*
X15554800Y-10779600D01*
X15554800Y-10759600D02*
X15534800Y-10779600D01*
X15560200Y-8918100D02*
X15580200Y-8938100D01*
X15580200Y-8918100D02*
X15560200Y-8938100D01*
X15560200Y-9070500D02*
X15580200Y-9090500D01*
X15580200Y-9070500D02*
X15560200Y-9090500D01*
X15611000Y-9591200D02*
X15631000Y-9611200D01*
X15631000Y-9591200D02*
X15611000Y-9611200D01*
X15699900Y-8918100D02*
X15719900Y-8938100D01*
X15719900Y-8918100D02*
X15699900Y-8938100D01*
X15699900Y-9070500D02*
X15719900Y-9090500D01*
X15719900Y-9070500D02*
X15699900Y-9090500D01*
X15738000Y-10759600D02*
X15758000Y-10779600D01*
X15758000Y-10759600D02*
X15738000Y-10779600D01*
X15738000Y-12397900D02*
X15758000Y-12417900D01*
X15758000Y-12397900D02*
X15738000Y-12417900D01*
X15826900Y-8918100D02*
X15846900Y-8938100D01*
X15846900Y-8918100D02*
X15826900Y-8938100D01*
X15826900Y-9070500D02*
X15846900Y-9090500D01*
X15846900Y-9070500D02*
X15826900Y-9090500D01*
X15877700Y-10378600D02*
X15897700Y-10398600D01*
X15897700Y-10378600D02*
X15877700Y-10398600D01*
X16004700Y-12309000D02*
X16024700Y-12329000D01*
X16024700Y-12309000D02*
X16004700Y-12329000D01*
X16017400Y-12499500D02*
X16037400Y-12519500D01*
X16037400Y-12499500D02*
X16017400Y-12519500D01*
X11792000Y-12141200D02*
G75*
G03*
X11692000Y-12141200I-50000J0D01*
G01*
X11692000Y-12141200D02*
G75*
G03*
X11792000Y-12141200I50000J0D01*
G01*
X11692000Y-12066200D02*
X11692000Y-12216200D01*
X11692000Y-12216200D02*
G75*
G03*
X11792000Y-12216200I50000J0D01*
G01*
X11792000Y-12216200D02*
X11792000Y-12066200D01*
X11792000Y-12066200D02*
G75*
G03*
X11692000Y-12066200I-50000J0D01*
G01*
X11924500Y-9537700D02*
G75*
G03*
X11824500Y-9537700I-50000J0D01*
G01*
X11824500Y-9537700D02*
G75*
G03*
X11924500Y-9537700I50000J0D01*
G01*
X11924500Y-9791700D02*
G75*
G03*
X11824500Y-9791700I-50000J0D01*
G01*
X11824500Y-9791700D02*
G75*
G03*
X11924500Y-9791700I50000J0D01*
G01*
X11924500Y-10045700D02*
G75*
G03*
X11824500Y-10045700I-50000J0D01*
G01*
X11824500Y-10045700D02*
G75*
G03*
X11924500Y-10045700I50000J0D01*
G01*
X11924500Y-10299700D02*
G75*
G03*
X11824500Y-10299700I-50000J0D01*
G01*
X11824500Y-10299700D02*
G75*
G03*
X11924500Y-10299700I50000J0D01*
G01*
X11924500Y-10553700D02*
G75*
G03*
X11824500Y-10553700I-50000J0D01*
G01*
X11824500Y-10553700D02*
G75*
G03*
X11924500Y-10553700I50000J0D01*
G01*
X11924500Y-10807700D02*
G75*
G03*
X11824500Y-10807700I-50000J0D01*
G01*
X11824500Y-10807700D02*
G75*
G03*
X11924500Y-10807700I50000J0D01*
G01*
X12242000Y-11441200D02*
G75*
G03*
X12142000Y-11441200I-50000J0D01*
G01*
X12142000Y-11441200D02*
G75*
G03*
X12242000Y-11441200I50000J0D01*
G01*
X12092000Y-11491200D02*
X12292000Y-11491200D01*
X12292000Y-11491200D02*
G75*
G03*
X12292000Y-11391200I0J50000D01*
G01*
X12292000Y-11391200D02*
X12092000Y-11391200D01*
X12092000Y-11391200D02*
G75*
G03*
X12092000Y-11491200I0J-50000D01*
G01*
X12242000Y-12041200D02*
G75*
G03*
X12142000Y-12041200I-50000J0D01*
G01*
X12142000Y-12041200D02*
G75*
G03*
X12242000Y-12041200I50000J0D01*
G01*
X12127000Y-12091200D02*
X12257000Y-12091200D01*
X12257000Y-12091200D02*
G75*
G03*
X12257000Y-11991200I0J50000D01*
G01*
X12257000Y-11991200D02*
X12127000Y-11991200D01*
X12127000Y-11991200D02*
G75*
G03*
X12127000Y-12091200I0J-50000D01*
G01*
X12692000Y-12141200D02*
G75*
G03*
X12592000Y-12141200I-50000J0D01*
G01*
X12592000Y-12141200D02*
G75*
G03*
X12692000Y-12141200I50000J0D01*
G01*
X12592000Y-12066200D02*
X12592000Y-12216200D01*
X12592000Y-12216200D02*
G75*
G03*
X12692000Y-12216200I50000J0D01*
G01*
X12692000Y-12216200D02*
X12692000Y-12066200D01*
X12692000Y-12066200D02*
G75*
G03*
X12592000Y-12066200I-50000J0D01*
G01*
X16534600Y-9969500D02*
G75*
G03*
X16434600Y-9969500I-50000J0D01*
G01*
X16434600Y-9969500D02*
G75*
G03*
X16534600Y-9969500I50000J0D01*
G01*
X16534600Y-10223500D02*
G75*
G03*
X16434600Y-10223500I-50000J0D01*
G01*
X16434600Y-10223500D02*
G75*
G03*
X16534600Y-10223500I50000J0D01*
G01*
X16534600Y-10477500D02*
G75*
G03*
X16434600Y-10477500I-50000J0D01*
G01*
X16434600Y-10477500D02*
G75*
G03*
X16534600Y-10477500I50000J0D01*
G01*
X16534600Y-10731500D02*
G75*
G03*
X16434600Y-10731500I-50000J0D01*
G01*
X16434600Y-10731500D02*
G75*
G03*
X16534600Y-10731500I50000J0D01*
G01*
X16534600Y-10985500D02*
G75*
G03*
X16434600Y-10985500I-50000J0D01*
G01*
X16434600Y-10985500D02*
G75*
G03*
X16534600Y-10985500I50000J0D01*
G01*
X16534600Y-11239500D02*
G75*
G03*
X16434600Y-11239500I-50000J0D01*
G01*
X16434600Y-11239500D02*
G75*
G03*
X16534600Y-11239500I50000J0D01*
G01*
X16534600Y-11493500D02*
G75*
G03*
X16434600Y-11493500I-50000J0D01*
G01*
X16434600Y-11493500D02*
G75*
G03*
X16534600Y-11493500I50000J0D01*
G01*
X16534600Y-11747500D02*
G75*
G03*
X16434600Y-11747500I-50000J0D01*
G01*
X16434600Y-11747500D02*
G75*
G03*
X16534600Y-11747500I50000J0D01*
G01*
D13*
X11912600Y-8868900D02*
X11912600Y-9088900D01*
X11802600Y-8978900D02*
X12022600Y-8978900D01*
X13258800Y-11535900D02*
X13258800Y-11755900D01*
X13148800Y-11645900D02*
X13368800Y-11645900D01*
X16573500Y-8856200D02*
X16573500Y-9076200D01*
X16463500Y-8966200D02*
X16683500Y-8966200D01*
X16573500Y-12221700D02*
X16573500Y-12441700D01*
X16463500Y-12331700D02*
X16683500Y-12331700D01*
D11*
X11815277Y-12975884D02*
X11815277Y-12775884D01*
X11815277Y-12775884D02*
X11862896Y-12775884D01*
X11862896Y-12775884D02*
X11891467Y-12785408D01*
X11891467Y-12785408D02*
X11910515Y-12804455D01*
X11910515Y-12804455D02*
X11920039Y-12823503D01*
X11920039Y-12823503D02*
X11929562Y-12861598D01*
X11929562Y-12861598D02*
X11929562Y-12890169D01*
X11929562Y-12890169D02*
X11920039Y-12928265D01*
X11920039Y-12928265D02*
X11910515Y-12947312D01*
X11910515Y-12947312D02*
X11891467Y-12966360D01*
X11891467Y-12966360D02*
X11862896Y-12975884D01*
X11862896Y-12975884D02*
X11815277Y-12975884D01*
X12015277Y-12975884D02*
X12015277Y-12842550D01*
X12015277Y-12880646D02*
X12024801Y-12861598D01*
X12024801Y-12861598D02*
X12034324Y-12852074D01*
X12034324Y-12852074D02*
X12053372Y-12842550D01*
X12053372Y-12842550D02*
X12072420Y-12842550D01*
X12139086Y-12975884D02*
X12139086Y-12842550D01*
X12139086Y-12775884D02*
X12129562Y-12785408D01*
X12129562Y-12785408D02*
X12139086Y-12794931D01*
X12139086Y-12794931D02*
X12148610Y-12785408D01*
X12148610Y-12785408D02*
X12139086Y-12775884D01*
X12139086Y-12775884D02*
X12139086Y-12794931D01*
X12262896Y-12975884D02*
X12243848Y-12966360D01*
X12243848Y-12966360D02*
X12234324Y-12947312D01*
X12234324Y-12947312D02*
X12234324Y-12775884D01*
X12367658Y-12975884D02*
X12348610Y-12966360D01*
X12348610Y-12966360D02*
X12339086Y-12947312D01*
X12339086Y-12947312D02*
X12339086Y-12775884D01*
X12596229Y-12975884D02*
X12596229Y-12775884D01*
X12596229Y-12775884D02*
X12662896Y-12918741D01*
X12662896Y-12918741D02*
X12729562Y-12775884D01*
X12729562Y-12775884D02*
X12729562Y-12975884D01*
X12910515Y-12975884D02*
X12910515Y-12871122D01*
X12910515Y-12871122D02*
X12900991Y-12852074D01*
X12900991Y-12852074D02*
X12881943Y-12842550D01*
X12881943Y-12842550D02*
X12843848Y-12842550D01*
X12843848Y-12842550D02*
X12824801Y-12852074D01*
X12910515Y-12966360D02*
X12891467Y-12975884D01*
X12891467Y-12975884D02*
X12843848Y-12975884D01*
X12843848Y-12975884D02*
X12824801Y-12966360D01*
X12824801Y-12966360D02*
X12815277Y-12947312D01*
X12815277Y-12947312D02*
X12815277Y-12928265D01*
X12815277Y-12928265D02*
X12824801Y-12909217D01*
X12824801Y-12909217D02*
X12843848Y-12899693D01*
X12843848Y-12899693D02*
X12891467Y-12899693D01*
X12891467Y-12899693D02*
X12910515Y-12890169D01*
X13005753Y-12842550D02*
X13005753Y-13042550D01*
X13005753Y-12852074D02*
X13024801Y-12842550D01*
X13024801Y-12842550D02*
X13062896Y-12842550D01*
X13062896Y-12842550D02*
X13081943Y-12852074D01*
X13081943Y-12852074D02*
X13091467Y-12861598D01*
X13091467Y-12861598D02*
X13100991Y-12880646D01*
X13100991Y-12880646D02*
X13100991Y-12937788D01*
X13100991Y-12937788D02*
X13091467Y-12956836D01*
X13091467Y-12956836D02*
X13081943Y-12966360D01*
X13081943Y-12966360D02*
X13062896Y-12975884D01*
X13062896Y-12975884D02*
X13024801Y-12975884D01*
X13024801Y-12975884D02*
X13005753Y-12966360D01*
X13186705Y-12956836D02*
X13196229Y-12966360D01*
X13196229Y-12966360D02*
X13186705Y-12975884D01*
X13186705Y-12975884D02*
X13177182Y-12966360D01*
X13177182Y-12966360D02*
X13186705Y-12956836D01*
X13186705Y-12956836D02*
X13186705Y-12975884D01*
X13186705Y-12852074D02*
X13196229Y-12861598D01*
X13196229Y-12861598D02*
X13186705Y-12871122D01*
X13186705Y-12871122D02*
X13177182Y-12861598D01*
X13177182Y-12861598D02*
X13186705Y-12852074D01*
X13186705Y-12852074D02*
X13186705Y-12871122D01*
D12*
X11534500Y-13294400D02*
X11554500Y-13314400D01*
X11554500Y-13294400D02*
X11534500Y-13314400D01*
D11*
X11853372Y-13195884D02*
X11872420Y-13195884D01*
X11872420Y-13195884D02*
X11891467Y-13205408D01*
X11891467Y-13205408D02*
X11900991Y-13214931D01*
X11900991Y-13214931D02*
X11910515Y-13233979D01*
X11910515Y-13233979D02*
X11920039Y-13272074D01*
X11920039Y-13272074D02*
X11920039Y-13319693D01*
X11920039Y-13319693D02*
X11910515Y-13357788D01*
X11910515Y-13357788D02*
X11900991Y-13376836D01*
X11900991Y-13376836D02*
X11891467Y-13386360D01*
X11891467Y-13386360D02*
X11872420Y-13395884D01*
X11872420Y-13395884D02*
X11853372Y-13395884D01*
X11853372Y-13395884D02*
X11834324Y-13386360D01*
X11834324Y-13386360D02*
X11824801Y-13376836D01*
X11824801Y-13376836D02*
X11815277Y-13357788D01*
X11815277Y-13357788D02*
X11805753Y-13319693D01*
X11805753Y-13319693D02*
X11805753Y-13272074D01*
X11805753Y-13272074D02*
X11815277Y-13233979D01*
X11815277Y-13233979D02*
X11824801Y-13214931D01*
X11824801Y-13214931D02*
X11834324Y-13205408D01*
X11834324Y-13205408D02*
X11853372Y-13195884D01*
X12005753Y-13376836D02*
X12015277Y-13386360D01*
X12015277Y-13386360D02*
X12005753Y-13395884D01*
X12005753Y-13395884D02*
X11996229Y-13386360D01*
X11996229Y-13386360D02*
X12005753Y-13376836D01*
X12005753Y-13376836D02*
X12005753Y-13395884D01*
X12091467Y-13214931D02*
X12100991Y-13205408D01*
X12100991Y-13205408D02*
X12120039Y-13195884D01*
X12120039Y-13195884D02*
X12167658Y-13195884D01*
X12167658Y-13195884D02*
X12186705Y-13205408D01*
X12186705Y-13205408D02*
X12196229Y-13214931D01*
X12196229Y-13214931D02*
X12205753Y-13233979D01*
X12205753Y-13233979D02*
X12205753Y-13253027D01*
X12205753Y-13253027D02*
X12196229Y-13281598D01*
X12196229Y-13281598D02*
X12081943Y-13395884D01*
X12081943Y-13395884D02*
X12205753Y-13395884D01*
X12329562Y-13195884D02*
X12348610Y-13195884D01*
X12348610Y-13195884D02*
X12367658Y-13205408D01*
X12367658Y-13205408D02*
X12377182Y-13214931D01*
X12377182Y-13214931D02*
X12386705Y-13233979D01*
X12386705Y-13233979D02*
X12396229Y-13272074D01*
X12396229Y-13272074D02*
X12396229Y-13319693D01*
X12396229Y-13319693D02*
X12386705Y-13357788D01*
X12386705Y-13357788D02*
X12377182Y-13376836D01*
X12377182Y-13376836D02*
X12367658Y-13386360D01*
X12367658Y-13386360D02*
X12348610Y-13395884D01*
X12348610Y-13395884D02*
X12329562Y-13395884D01*
X12329562Y-13395884D02*
X12310515Y-13386360D01*
X12310515Y-13386360D02*
X12300991Y-13376836D01*
X12300991Y-13376836D02*
X12291467Y-13357788D01*
X12291467Y-13357788D02*
X12281943Y-13319693D01*
X12281943Y-13319693D02*
X12281943Y-13272074D01*
X12281943Y-13272074D02*
X12291467Y-13233979D01*
X12291467Y-13233979D02*
X12300991Y-13214931D01*
X12300991Y-13214931D02*
X12310515Y-13205408D01*
X12310515Y-13205408D02*
X12329562Y-13195884D01*
X12520039Y-13195884D02*
X12539086Y-13195884D01*
X12539086Y-13195884D02*
X12558134Y-13205408D01*
X12558134Y-13205408D02*
X12567658Y-13214931D01*
X12567658Y-13214931D02*
X12577182Y-13233979D01*
X12577182Y-13233979D02*
X12586705Y-13272074D01*
X12586705Y-13272074D02*
X12586705Y-13319693D01*
X12586705Y-13319693D02*
X12577182Y-13357788D01*
X12577182Y-13357788D02*
X12567658Y-13376836D01*
X12567658Y-13376836D02*
X12558134Y-13386360D01*
X12558134Y-13386360D02*
X12539086Y-13395884D01*
X12539086Y-13395884D02*
X12520039Y-13395884D01*
X12520039Y-13395884D02*
X12500991Y-13386360D01*
X12500991Y-13386360D02*
X12491467Y-13376836D01*
X12491467Y-13376836D02*
X12481943Y-13357788D01*
X12481943Y-13357788D02*
X12472420Y-13319693D01*
X12472420Y-13319693D02*
X12472420Y-13272074D01*
X12472420Y-13272074D02*
X12481943Y-13233979D01*
X12481943Y-13233979D02*
X12491467Y-13214931D01*
X12491467Y-13214931D02*
X12500991Y-13205408D01*
X12500991Y-13205408D02*
X12520039Y-13195884D01*
X12672420Y-13395884D02*
X12672420Y-13262550D01*
X12672420Y-13281598D02*
X12681943Y-13272074D01*
X12681943Y-13272074D02*
X12700991Y-13262550D01*
X12700991Y-13262550D02*
X12729563Y-13262550D01*
X12729563Y-13262550D02*
X12748610Y-13272074D01*
X12748610Y-13272074D02*
X12758134Y-13291122D01*
X12758134Y-13291122D02*
X12758134Y-13395884D01*
X12758134Y-13291122D02*
X12767658Y-13272074D01*
X12767658Y-13272074D02*
X12786705Y-13262550D01*
X12786705Y-13262550D02*
X12815277Y-13262550D01*
X12815277Y-13262550D02*
X12834324Y-13272074D01*
X12834324Y-13272074D02*
X12843848Y-13291122D01*
X12843848Y-13291122D02*
X12843848Y-13395884D01*
X12939086Y-13395884D02*
X12939086Y-13262550D01*
X12939086Y-13281598D02*
X12948610Y-13272074D01*
X12948610Y-13272074D02*
X12967658Y-13262550D01*
X12967658Y-13262550D02*
X12996229Y-13262550D01*
X12996229Y-13262550D02*
X13015277Y-13272074D01*
X13015277Y-13272074D02*
X13024801Y-13291122D01*
X13024801Y-13291122D02*
X13024801Y-13395884D01*
X13024801Y-13291122D02*
X13034324Y-13272074D01*
X13034324Y-13272074D02*
X13053372Y-13262550D01*
X13053372Y-13262550D02*
X13081943Y-13262550D01*
X13081943Y-13262550D02*
X13100991Y-13272074D01*
X13100991Y-13272074D02*
X13110515Y-13291122D01*
X13110515Y-13291122D02*
X13110515Y-13395884D01*
X13500991Y-13186360D02*
X13329563Y-13443503D01*
X13758134Y-13195884D02*
X13777182Y-13195884D01*
X13777182Y-13195884D02*
X13796229Y-13205408D01*
X13796229Y-13205408D02*
X13805753Y-13214931D01*
X13805753Y-13214931D02*
X13815277Y-13233979D01*
X13815277Y-13233979D02*
X13824801Y-13272074D01*
X13824801Y-13272074D02*
X13824801Y-13319693D01*
X13824801Y-13319693D02*
X13815277Y-13357788D01*
X13815277Y-13357788D02*
X13805753Y-13376836D01*
X13805753Y-13376836D02*
X13796229Y-13386360D01*
X13796229Y-13386360D02*
X13777182Y-13395884D01*
X13777182Y-13395884D02*
X13758134Y-13395884D01*
X13758134Y-13395884D02*
X13739086Y-13386360D01*
X13739086Y-13386360D02*
X13729563Y-13376836D01*
X13729563Y-13376836D02*
X13720039Y-13357788D01*
X13720039Y-13357788D02*
X13710515Y-13319693D01*
X13710515Y-13319693D02*
X13710515Y-13272074D01*
X13710515Y-13272074D02*
X13720039Y-13233979D01*
X13720039Y-13233979D02*
X13729563Y-13214931D01*
X13729563Y-13214931D02*
X13739086Y-13205408D01*
X13739086Y-13205408D02*
X13758134Y-13195884D01*
X13910515Y-13376836D02*
X13920039Y-13386360D01*
X13920039Y-13386360D02*
X13910515Y-13395884D01*
X13910515Y-13395884D02*
X13900991Y-13386360D01*
X13900991Y-13386360D02*
X13910515Y-13376836D01*
X13910515Y-13376836D02*
X13910515Y-13395884D01*
X14043848Y-13195884D02*
X14062896Y-13195884D01*
X14062896Y-13195884D02*
X14081944Y-13205408D01*
X14081944Y-13205408D02*
X14091467Y-13214931D01*
X14091467Y-13214931D02*
X14100991Y-13233979D01*
X14100991Y-13233979D02*
X14110515Y-13272074D01*
X14110515Y-13272074D02*
X14110515Y-13319693D01*
X14110515Y-13319693D02*
X14100991Y-13357788D01*
X14100991Y-13357788D02*
X14091467Y-13376836D01*
X14091467Y-13376836D02*
X14081944Y-13386360D01*
X14081944Y-13386360D02*
X14062896Y-13395884D01*
X14062896Y-13395884D02*
X14043848Y-13395884D01*
X14043848Y-13395884D02*
X14024801Y-13386360D01*
X14024801Y-13386360D02*
X14015277Y-13376836D01*
X14015277Y-13376836D02*
X14005753Y-13357788D01*
X14005753Y-13357788D02*
X13996229Y-13319693D01*
X13996229Y-13319693D02*
X13996229Y-13272074D01*
X13996229Y-13272074D02*
X14005753Y-13233979D01*
X14005753Y-13233979D02*
X14015277Y-13214931D01*
X14015277Y-13214931D02*
X14024801Y-13205408D01*
X14024801Y-13205408D02*
X14043848Y-13195884D01*
X14234325Y-13195884D02*
X14253372Y-13195884D01*
X14253372Y-13195884D02*
X14272420Y-13205408D01*
X14272420Y-13205408D02*
X14281944Y-13214931D01*
X14281944Y-13214931D02*
X14291467Y-13233979D01*
X14291467Y-13233979D02*
X14300991Y-13272074D01*
X14300991Y-13272074D02*
X14300991Y-13319693D01*
X14300991Y-13319693D02*
X14291467Y-13357788D01*
X14291467Y-13357788D02*
X14281944Y-13376836D01*
X14281944Y-13376836D02*
X14272420Y-13386360D01*
X14272420Y-13386360D02*
X14253372Y-13395884D01*
X14253372Y-13395884D02*
X14234325Y-13395884D01*
X14234325Y-13395884D02*
X14215277Y-13386360D01*
X14215277Y-13386360D02*
X14205753Y-13376836D01*
X14205753Y-13376836D02*
X14196229Y-13357788D01*
X14196229Y-13357788D02*
X14186706Y-13319693D01*
X14186706Y-13319693D02*
X14186706Y-13272074D01*
X14186706Y-13272074D02*
X14196229Y-13233979D01*
X14196229Y-13233979D02*
X14205753Y-13214931D01*
X14205753Y-13214931D02*
X14215277Y-13205408D01*
X14215277Y-13205408D02*
X14234325Y-13195884D01*
X14367658Y-13195884D02*
X14500991Y-13195884D01*
X14500991Y-13195884D02*
X14415277Y-13395884D01*
X14586706Y-13395884D02*
X14624801Y-13395884D01*
X14624801Y-13395884D02*
X14643848Y-13386360D01*
X14643848Y-13386360D02*
X14653372Y-13376836D01*
X14653372Y-13376836D02*
X14672420Y-13348265D01*
X14672420Y-13348265D02*
X14681944Y-13310169D01*
X14681944Y-13310169D02*
X14681944Y-13233979D01*
X14681944Y-13233979D02*
X14672420Y-13214931D01*
X14672420Y-13214931D02*
X14662896Y-13205408D01*
X14662896Y-13205408D02*
X14643848Y-13195884D01*
X14643848Y-13195884D02*
X14605753Y-13195884D01*
X14605753Y-13195884D02*
X14586706Y-13205408D01*
X14586706Y-13205408D02*
X14577182Y-13214931D01*
X14577182Y-13214931D02*
X14567658Y-13233979D01*
X14567658Y-13233979D02*
X14567658Y-13281598D01*
X14567658Y-13281598D02*
X14577182Y-13300646D01*
X14577182Y-13300646D02*
X14586706Y-13310169D01*
X14586706Y-13310169D02*
X14605753Y-13319693D01*
X14605753Y-13319693D02*
X14643848Y-13319693D01*
X14643848Y-13319693D02*
X14662896Y-13310169D01*
X14662896Y-13310169D02*
X14672420Y-13300646D01*
X14672420Y-13300646D02*
X14681944Y-13281598D01*
X14758134Y-13195884D02*
X14758134Y-13233979D01*
X14834325Y-13195884D02*
X14834325Y-13233979D01*
X15129563Y-13472074D02*
X15120039Y-13462550D01*
X15120039Y-13462550D02*
X15100991Y-13433979D01*
X15100991Y-13433979D02*
X15091468Y-13414931D01*
X15091468Y-13414931D02*
X15081944Y-13386360D01*
X15081944Y-13386360D02*
X15072420Y-13338741D01*
X15072420Y-13338741D02*
X15072420Y-13300646D01*
X15072420Y-13300646D02*
X15081944Y-13253027D01*
X15081944Y-13253027D02*
X15091468Y-13224455D01*
X15091468Y-13224455D02*
X15100991Y-13205408D01*
X15100991Y-13205408D02*
X15120039Y-13176836D01*
X15120039Y-13176836D02*
X15129563Y-13167312D01*
X15186706Y-13195884D02*
X15320039Y-13195884D01*
X15320039Y-13195884D02*
X15234325Y-13395884D01*
X15481944Y-13262550D02*
X15481944Y-13395884D01*
X15434325Y-13186360D02*
X15386706Y-13329217D01*
X15386706Y-13329217D02*
X15510515Y-13329217D01*
X15739087Y-13395884D02*
X15739087Y-13195884D01*
X15824801Y-13395884D02*
X15824801Y-13291122D01*
X15824801Y-13291122D02*
X15815277Y-13272074D01*
X15815277Y-13272074D02*
X15796230Y-13262550D01*
X15796230Y-13262550D02*
X15767658Y-13262550D01*
X15767658Y-13262550D02*
X15748610Y-13272074D01*
X15748610Y-13272074D02*
X15739087Y-13281598D01*
X15948610Y-13395884D02*
X15929563Y-13386360D01*
X15929563Y-13386360D02*
X15920039Y-13376836D01*
X15920039Y-13376836D02*
X15910515Y-13357788D01*
X15910515Y-13357788D02*
X15910515Y-13300646D01*
X15910515Y-13300646D02*
X15920039Y-13281598D01*
X15920039Y-13281598D02*
X15929563Y-13272074D01*
X15929563Y-13272074D02*
X15948610Y-13262550D01*
X15948610Y-13262550D02*
X15977182Y-13262550D01*
X15977182Y-13262550D02*
X15996230Y-13272074D01*
X15996230Y-13272074D02*
X16005753Y-13281598D01*
X16005753Y-13281598D02*
X16015277Y-13300646D01*
X16015277Y-13300646D02*
X16015277Y-13357788D01*
X16015277Y-13357788D02*
X16005753Y-13376836D01*
X16005753Y-13376836D02*
X15996230Y-13386360D01*
X15996230Y-13386360D02*
X15977182Y-13395884D01*
X15977182Y-13395884D02*
X15948610Y-13395884D01*
X16129563Y-13395884D02*
X16110515Y-13386360D01*
X16110515Y-13386360D02*
X16100991Y-13367312D01*
X16100991Y-13367312D02*
X16100991Y-13195884D01*
X16281944Y-13386360D02*
X16262896Y-13395884D01*
X16262896Y-13395884D02*
X16224801Y-13395884D01*
X16224801Y-13395884D02*
X16205753Y-13386360D01*
X16205753Y-13386360D02*
X16196230Y-13367312D01*
X16196230Y-13367312D02*
X16196230Y-13291122D01*
X16196230Y-13291122D02*
X16205753Y-13272074D01*
X16205753Y-13272074D02*
X16224801Y-13262550D01*
X16224801Y-13262550D02*
X16262896Y-13262550D01*
X16262896Y-13262550D02*
X16281944Y-13272074D01*
X16281944Y-13272074D02*
X16291468Y-13291122D01*
X16291468Y-13291122D02*
X16291468Y-13310169D01*
X16291468Y-13310169D02*
X16196230Y-13329217D01*
X16367658Y-13386360D02*
X16386706Y-13395884D01*
X16386706Y-13395884D02*
X16424801Y-13395884D01*
X16424801Y-13395884D02*
X16443849Y-13386360D01*
X16443849Y-13386360D02*
X16453372Y-13367312D01*
X16453372Y-13367312D02*
X16453372Y-13357788D01*
X16453372Y-13357788D02*
X16443849Y-13338741D01*
X16443849Y-13338741D02*
X16424801Y-13329217D01*
X16424801Y-13329217D02*
X16396230Y-13329217D01*
X16396230Y-13329217D02*
X16377182Y-13319693D01*
X16377182Y-13319693D02*
X16367658Y-13300646D01*
X16367658Y-13300646D02*
X16367658Y-13291122D01*
X16367658Y-13291122D02*
X16377182Y-13272074D01*
X16377182Y-13272074D02*
X16396230Y-13262550D01*
X16396230Y-13262550D02*
X16424801Y-13262550D01*
X16424801Y-13262550D02*
X16443849Y-13272074D01*
X16520039Y-13472074D02*
X16529563Y-13462550D01*
X16529563Y-13462550D02*
X16548611Y-13433979D01*
X16548611Y-13433979D02*
X16558134Y-13414931D01*
X16558134Y-13414931D02*
X16567658Y-13386360D01*
X16567658Y-13386360D02*
X16577182Y-13338741D01*
X16577182Y-13338741D02*
X16577182Y-13300646D01*
X16577182Y-13300646D02*
X16567658Y-13253027D01*
X16567658Y-13253027D02*
X16558134Y-13224455D01*
X16558134Y-13224455D02*
X16548611Y-13205408D01*
X16548611Y-13205408D02*
X16529563Y-13176836D01*
X16529563Y-13176836D02*
X16520039Y-13167312D01*
D12*
X11554500Y-13568400D02*
G75*
G03*
X11454500Y-13568400I-50000J0D01*
G01*
X11454500Y-13568400D02*
G75*
G03*
X11554500Y-13568400I50000J0D01*
G01*
D11*
X11920039Y-13659884D02*
X11805753Y-13659884D01*
X11862896Y-13659884D02*
X11862896Y-13459884D01*
X11862896Y-13459884D02*
X11843848Y-13488455D01*
X11843848Y-13488455D02*
X11824801Y-13507503D01*
X11824801Y-13507503D02*
X11805753Y-13517027D01*
X12005753Y-13640836D02*
X12015277Y-13650360D01*
X12015277Y-13650360D02*
X12005753Y-13659884D01*
X12005753Y-13659884D02*
X11996229Y-13650360D01*
X11996229Y-13650360D02*
X12005753Y-13640836D01*
X12005753Y-13640836D02*
X12005753Y-13659884D01*
X12139086Y-13459884D02*
X12158134Y-13459884D01*
X12158134Y-13459884D02*
X12177182Y-13469408D01*
X12177182Y-13469408D02*
X12186705Y-13478931D01*
X12186705Y-13478931D02*
X12196229Y-13497979D01*
X12196229Y-13497979D02*
X12205753Y-13536074D01*
X12205753Y-13536074D02*
X12205753Y-13583693D01*
X12205753Y-13583693D02*
X12196229Y-13621788D01*
X12196229Y-13621788D02*
X12186705Y-13640836D01*
X12186705Y-13640836D02*
X12177182Y-13650360D01*
X12177182Y-13650360D02*
X12158134Y-13659884D01*
X12158134Y-13659884D02*
X12139086Y-13659884D01*
X12139086Y-13659884D02*
X12120039Y-13650360D01*
X12120039Y-13650360D02*
X12110515Y-13640836D01*
X12110515Y-13640836D02*
X12100991Y-13621788D01*
X12100991Y-13621788D02*
X12091467Y-13583693D01*
X12091467Y-13583693D02*
X12091467Y-13536074D01*
X12091467Y-13536074D02*
X12100991Y-13497979D01*
X12100991Y-13497979D02*
X12110515Y-13478931D01*
X12110515Y-13478931D02*
X12120039Y-13469408D01*
X12120039Y-13469408D02*
X12139086Y-13459884D01*
X12329562Y-13459884D02*
X12348610Y-13459884D01*
X12348610Y-13459884D02*
X12367658Y-13469408D01*
X12367658Y-13469408D02*
X12377182Y-13478931D01*
X12377182Y-13478931D02*
X12386705Y-13497979D01*
X12386705Y-13497979D02*
X12396229Y-13536074D01*
X12396229Y-13536074D02*
X12396229Y-13583693D01*
X12396229Y-13583693D02*
X12386705Y-13621788D01*
X12386705Y-13621788D02*
X12377182Y-13640836D01*
X12377182Y-13640836D02*
X12367658Y-13650360D01*
X12367658Y-13650360D02*
X12348610Y-13659884D01*
X12348610Y-13659884D02*
X12329562Y-13659884D01*
X12329562Y-13659884D02*
X12310515Y-13650360D01*
X12310515Y-13650360D02*
X12300991Y-13640836D01*
X12300991Y-13640836D02*
X12291467Y-13621788D01*
X12291467Y-13621788D02*
X12281943Y-13583693D01*
X12281943Y-13583693D02*
X12281943Y-13536074D01*
X12281943Y-13536074D02*
X12291467Y-13497979D01*
X12291467Y-13497979D02*
X12300991Y-13478931D01*
X12300991Y-13478931D02*
X12310515Y-13469408D01*
X12310515Y-13469408D02*
X12329562Y-13459884D01*
X12520039Y-13459884D02*
X12539086Y-13459884D01*
X12539086Y-13459884D02*
X12558134Y-13469408D01*
X12558134Y-13469408D02*
X12567658Y-13478931D01*
X12567658Y-13478931D02*
X12577182Y-13497979D01*
X12577182Y-13497979D02*
X12586705Y-13536074D01*
X12586705Y-13536074D02*
X12586705Y-13583693D01*
X12586705Y-13583693D02*
X12577182Y-13621788D01*
X12577182Y-13621788D02*
X12567658Y-13640836D01*
X12567658Y-13640836D02*
X12558134Y-13650360D01*
X12558134Y-13650360D02*
X12539086Y-13659884D01*
X12539086Y-13659884D02*
X12520039Y-13659884D01*
X12520039Y-13659884D02*
X12500991Y-13650360D01*
X12500991Y-13650360D02*
X12491467Y-13640836D01*
X12491467Y-13640836D02*
X12481943Y-13621788D01*
X12481943Y-13621788D02*
X12472420Y-13583693D01*
X12472420Y-13583693D02*
X12472420Y-13536074D01*
X12472420Y-13536074D02*
X12481943Y-13497979D01*
X12481943Y-13497979D02*
X12491467Y-13478931D01*
X12491467Y-13478931D02*
X12500991Y-13469408D01*
X12500991Y-13469408D02*
X12520039Y-13459884D01*
X12672420Y-13659884D02*
X12672420Y-13526550D01*
X12672420Y-13545598D02*
X12681943Y-13536074D01*
X12681943Y-13536074D02*
X12700991Y-13526550D01*
X12700991Y-13526550D02*
X12729563Y-13526550D01*
X12729563Y-13526550D02*
X12748610Y-13536074D01*
X12748610Y-13536074D02*
X12758134Y-13555122D01*
X12758134Y-13555122D02*
X12758134Y-13659884D01*
X12758134Y-13555122D02*
X12767658Y-13536074D01*
X12767658Y-13536074D02*
X12786705Y-13526550D01*
X12786705Y-13526550D02*
X12815277Y-13526550D01*
X12815277Y-13526550D02*
X12834324Y-13536074D01*
X12834324Y-13536074D02*
X12843848Y-13555122D01*
X12843848Y-13555122D02*
X12843848Y-13659884D01*
X12939086Y-13659884D02*
X12939086Y-13526550D01*
X12939086Y-13545598D02*
X12948610Y-13536074D01*
X12948610Y-13536074D02*
X12967658Y-13526550D01*
X12967658Y-13526550D02*
X12996229Y-13526550D01*
X12996229Y-13526550D02*
X13015277Y-13536074D01*
X13015277Y-13536074D02*
X13024801Y-13555122D01*
X13024801Y-13555122D02*
X13024801Y-13659884D01*
X13024801Y-13555122D02*
X13034324Y-13536074D01*
X13034324Y-13536074D02*
X13053372Y-13526550D01*
X13053372Y-13526550D02*
X13081943Y-13526550D01*
X13081943Y-13526550D02*
X13100991Y-13536074D01*
X13100991Y-13536074D02*
X13110515Y-13555122D01*
X13110515Y-13555122D02*
X13110515Y-13659884D01*
X13500991Y-13450360D02*
X13329563Y-13707503D01*
X13758134Y-13459884D02*
X13777182Y-13459884D01*
X13777182Y-13459884D02*
X13796229Y-13469408D01*
X13796229Y-13469408D02*
X13805753Y-13478931D01*
X13805753Y-13478931D02*
X13815277Y-13497979D01*
X13815277Y-13497979D02*
X13824801Y-13536074D01*
X13824801Y-13536074D02*
X13824801Y-13583693D01*
X13824801Y-13583693D02*
X13815277Y-13621788D01*
X13815277Y-13621788D02*
X13805753Y-13640836D01*
X13805753Y-13640836D02*
X13796229Y-13650360D01*
X13796229Y-13650360D02*
X13777182Y-13659884D01*
X13777182Y-13659884D02*
X13758134Y-13659884D01*
X13758134Y-13659884D02*
X13739086Y-13650360D01*
X13739086Y-13650360D02*
X13729563Y-13640836D01*
X13729563Y-13640836D02*
X13720039Y-13621788D01*
X13720039Y-13621788D02*
X13710515Y-13583693D01*
X13710515Y-13583693D02*
X13710515Y-13536074D01*
X13710515Y-13536074D02*
X13720039Y-13497979D01*
X13720039Y-13497979D02*
X13729563Y-13478931D01*
X13729563Y-13478931D02*
X13739086Y-13469408D01*
X13739086Y-13469408D02*
X13758134Y-13459884D01*
X13910515Y-13640836D02*
X13920039Y-13650360D01*
X13920039Y-13650360D02*
X13910515Y-13659884D01*
X13910515Y-13659884D02*
X13900991Y-13650360D01*
X13900991Y-13650360D02*
X13910515Y-13640836D01*
X13910515Y-13640836D02*
X13910515Y-13659884D01*
X14043848Y-13459884D02*
X14062896Y-13459884D01*
X14062896Y-13459884D02*
X14081944Y-13469408D01*
X14081944Y-13469408D02*
X14091467Y-13478931D01*
X14091467Y-13478931D02*
X14100991Y-13497979D01*
X14100991Y-13497979D02*
X14110515Y-13536074D01*
X14110515Y-13536074D02*
X14110515Y-13583693D01*
X14110515Y-13583693D02*
X14100991Y-13621788D01*
X14100991Y-13621788D02*
X14091467Y-13640836D01*
X14091467Y-13640836D02*
X14081944Y-13650360D01*
X14081944Y-13650360D02*
X14062896Y-13659884D01*
X14062896Y-13659884D02*
X14043848Y-13659884D01*
X14043848Y-13659884D02*
X14024801Y-13650360D01*
X14024801Y-13650360D02*
X14015277Y-13640836D01*
X14015277Y-13640836D02*
X14005753Y-13621788D01*
X14005753Y-13621788D02*
X13996229Y-13583693D01*
X13996229Y-13583693D02*
X13996229Y-13536074D01*
X13996229Y-13536074D02*
X14005753Y-13497979D01*
X14005753Y-13497979D02*
X14015277Y-13478931D01*
X14015277Y-13478931D02*
X14024801Y-13469408D01*
X14024801Y-13469408D02*
X14043848Y-13459884D01*
X14177182Y-13459884D02*
X14300991Y-13459884D01*
X14300991Y-13459884D02*
X14234325Y-13536074D01*
X14234325Y-13536074D02*
X14262896Y-13536074D01*
X14262896Y-13536074D02*
X14281944Y-13545598D01*
X14281944Y-13545598D02*
X14291467Y-13555122D01*
X14291467Y-13555122D02*
X14300991Y-13574169D01*
X14300991Y-13574169D02*
X14300991Y-13621788D01*
X14300991Y-13621788D02*
X14291467Y-13640836D01*
X14291467Y-13640836D02*
X14281944Y-13650360D01*
X14281944Y-13650360D02*
X14262896Y-13659884D01*
X14262896Y-13659884D02*
X14205753Y-13659884D01*
X14205753Y-13659884D02*
X14186706Y-13650360D01*
X14186706Y-13650360D02*
X14177182Y-13640836D01*
X14396229Y-13659884D02*
X14434325Y-13659884D01*
X14434325Y-13659884D02*
X14453372Y-13650360D01*
X14453372Y-13650360D02*
X14462896Y-13640836D01*
X14462896Y-13640836D02*
X14481944Y-13612265D01*
X14481944Y-13612265D02*
X14491467Y-13574169D01*
X14491467Y-13574169D02*
X14491467Y-13497979D01*
X14491467Y-13497979D02*
X14481944Y-13478931D01*
X14481944Y-13478931D02*
X14472420Y-13469408D01*
X14472420Y-13469408D02*
X14453372Y-13459884D01*
X14453372Y-13459884D02*
X14415277Y-13459884D01*
X14415277Y-13459884D02*
X14396229Y-13469408D01*
X14396229Y-13469408D02*
X14386706Y-13478931D01*
X14386706Y-13478931D02*
X14377182Y-13497979D01*
X14377182Y-13497979D02*
X14377182Y-13545598D01*
X14377182Y-13545598D02*
X14386706Y-13564646D01*
X14386706Y-13564646D02*
X14396229Y-13574169D01*
X14396229Y-13574169D02*
X14415277Y-13583693D01*
X14415277Y-13583693D02*
X14453372Y-13583693D01*
X14453372Y-13583693D02*
X14472420Y-13574169D01*
X14472420Y-13574169D02*
X14481944Y-13564646D01*
X14481944Y-13564646D02*
X14491467Y-13545598D01*
X14662896Y-13526550D02*
X14662896Y-13659884D01*
X14615277Y-13450360D02*
X14567658Y-13593217D01*
X14567658Y-13593217D02*
X14691467Y-13593217D01*
X14758134Y-13459884D02*
X14758134Y-13497979D01*
X14834325Y-13459884D02*
X14834325Y-13497979D01*
X15129563Y-13736074D02*
X15120039Y-13726550D01*
X15120039Y-13726550D02*
X15100991Y-13697979D01*
X15100991Y-13697979D02*
X15091468Y-13678931D01*
X15091468Y-13678931D02*
X15081944Y-13650360D01*
X15081944Y-13650360D02*
X15072420Y-13602741D01*
X15072420Y-13602741D02*
X15072420Y-13564646D01*
X15072420Y-13564646D02*
X15081944Y-13517027D01*
X15081944Y-13517027D02*
X15091468Y-13488455D01*
X15091468Y-13488455D02*
X15100991Y-13469408D01*
X15100991Y-13469408D02*
X15120039Y-13440836D01*
X15120039Y-13440836D02*
X15129563Y-13431312D01*
X15310515Y-13659884D02*
X15196229Y-13659884D01*
X15253372Y-13659884D02*
X15253372Y-13459884D01*
X15253372Y-13459884D02*
X15234325Y-13488455D01*
X15234325Y-13488455D02*
X15215277Y-13507503D01*
X15215277Y-13507503D02*
X15196229Y-13517027D01*
X15481944Y-13526550D02*
X15481944Y-13659884D01*
X15434325Y-13450360D02*
X15386706Y-13593217D01*
X15386706Y-13593217D02*
X15510515Y-13593217D01*
X15739087Y-13659884D02*
X15739087Y-13459884D01*
X15824801Y-13659884D02*
X15824801Y-13555122D01*
X15824801Y-13555122D02*
X15815277Y-13536074D01*
X15815277Y-13536074D02*
X15796230Y-13526550D01*
X15796230Y-13526550D02*
X15767658Y-13526550D01*
X15767658Y-13526550D02*
X15748610Y-13536074D01*
X15748610Y-13536074D02*
X15739087Y-13545598D01*
X15948610Y-13659884D02*
X15929563Y-13650360D01*
X15929563Y-13650360D02*
X15920039Y-13640836D01*
X15920039Y-13640836D02*
X15910515Y-13621788D01*
X15910515Y-13621788D02*
X15910515Y-13564646D01*
X15910515Y-13564646D02*
X15920039Y-13545598D01*
X15920039Y-13545598D02*
X15929563Y-13536074D01*
X15929563Y-13536074D02*
X15948610Y-13526550D01*
X15948610Y-13526550D02*
X15977182Y-13526550D01*
X15977182Y-13526550D02*
X15996230Y-13536074D01*
X15996230Y-13536074D02*
X16005753Y-13545598D01*
X16005753Y-13545598D02*
X16015277Y-13564646D01*
X16015277Y-13564646D02*
X16015277Y-13621788D01*
X16015277Y-13621788D02*
X16005753Y-13640836D01*
X16005753Y-13640836D02*
X15996230Y-13650360D01*
X15996230Y-13650360D02*
X15977182Y-13659884D01*
X15977182Y-13659884D02*
X15948610Y-13659884D01*
X16129563Y-13659884D02*
X16110515Y-13650360D01*
X16110515Y-13650360D02*
X16100991Y-13631312D01*
X16100991Y-13631312D02*
X16100991Y-13459884D01*
X16281944Y-13650360D02*
X16262896Y-13659884D01*
X16262896Y-13659884D02*
X16224801Y-13659884D01*
X16224801Y-13659884D02*
X16205753Y-13650360D01*
X16205753Y-13650360D02*
X16196230Y-13631312D01*
X16196230Y-13631312D02*
X16196230Y-13555122D01*
X16196230Y-13555122D02*
X16205753Y-13536074D01*
X16205753Y-13536074D02*
X16224801Y-13526550D01*
X16224801Y-13526550D02*
X16262896Y-13526550D01*
X16262896Y-13526550D02*
X16281944Y-13536074D01*
X16281944Y-13536074D02*
X16291468Y-13555122D01*
X16291468Y-13555122D02*
X16291468Y-13574169D01*
X16291468Y-13574169D02*
X16196230Y-13593217D01*
X16367658Y-13650360D02*
X16386706Y-13659884D01*
X16386706Y-13659884D02*
X16424801Y-13659884D01*
X16424801Y-13659884D02*
X16443849Y-13650360D01*
X16443849Y-13650360D02*
X16453372Y-13631312D01*
X16453372Y-13631312D02*
X16453372Y-13621788D01*
X16453372Y-13621788D02*
X16443849Y-13602741D01*
X16443849Y-13602741D02*
X16424801Y-13593217D01*
X16424801Y-13593217D02*
X16396230Y-13593217D01*
X16396230Y-13593217D02*
X16377182Y-13583693D01*
X16377182Y-13583693D02*
X16367658Y-13564646D01*
X16367658Y-13564646D02*
X16367658Y-13555122D01*
X16367658Y-13555122D02*
X16377182Y-13536074D01*
X16377182Y-13536074D02*
X16396230Y-13526550D01*
X16396230Y-13526550D02*
X16424801Y-13526550D01*
X16424801Y-13526550D02*
X16443849Y-13536074D01*
X16691468Y-13583693D02*
X16843849Y-13583693D01*
X16767658Y-13659884D02*
X16767658Y-13507503D01*
X17177182Y-13526550D02*
X17177182Y-13659884D01*
X17129563Y-13450360D02*
X17081944Y-13593217D01*
X17081944Y-13593217D02*
X17205754Y-13593217D01*
X17424801Y-13650360D02*
X17443849Y-13659884D01*
X17443849Y-13659884D02*
X17481944Y-13659884D01*
X17481944Y-13659884D02*
X17500992Y-13650360D01*
X17500992Y-13650360D02*
X17510516Y-13631312D01*
X17510516Y-13631312D02*
X17510516Y-13621788D01*
X17510516Y-13621788D02*
X17500992Y-13602741D01*
X17500992Y-13602741D02*
X17481944Y-13593217D01*
X17481944Y-13593217D02*
X17453373Y-13593217D01*
X17453373Y-13593217D02*
X17434325Y-13583693D01*
X17434325Y-13583693D02*
X17424801Y-13564646D01*
X17424801Y-13564646D02*
X17424801Y-13555122D01*
X17424801Y-13555122D02*
X17434325Y-13536074D01*
X17434325Y-13536074D02*
X17453373Y-13526550D01*
X17453373Y-13526550D02*
X17481944Y-13526550D01*
X17481944Y-13526550D02*
X17500992Y-13536074D01*
X17624801Y-13659884D02*
X17605754Y-13650360D01*
X17605754Y-13650360D02*
X17596230Y-13631312D01*
X17596230Y-13631312D02*
X17596230Y-13459884D01*
X17729563Y-13659884D02*
X17710516Y-13650360D01*
X17710516Y-13650360D02*
X17700992Y-13640836D01*
X17700992Y-13640836D02*
X17691468Y-13621788D01*
X17691468Y-13621788D02*
X17691468Y-13564646D01*
X17691468Y-13564646D02*
X17700992Y-13545598D01*
X17700992Y-13545598D02*
X17710516Y-13536074D01*
X17710516Y-13536074D02*
X17729563Y-13526550D01*
X17729563Y-13526550D02*
X17758135Y-13526550D01*
X17758135Y-13526550D02*
X17777182Y-13536074D01*
X17777182Y-13536074D02*
X17786706Y-13545598D01*
X17786706Y-13545598D02*
X17796230Y-13564646D01*
X17796230Y-13564646D02*
X17796230Y-13621788D01*
X17796230Y-13621788D02*
X17786706Y-13640836D01*
X17786706Y-13640836D02*
X17777182Y-13650360D01*
X17777182Y-13650360D02*
X17758135Y-13659884D01*
X17758135Y-13659884D02*
X17729563Y-13659884D01*
X17853373Y-13526550D02*
X17929563Y-13526550D01*
X17881944Y-13459884D02*
X17881944Y-13631312D01*
X17881944Y-13631312D02*
X17891468Y-13650360D01*
X17891468Y-13650360D02*
X17910516Y-13659884D01*
X17910516Y-13659884D02*
X17929563Y-13659884D01*
X17986706Y-13650360D02*
X18005754Y-13659884D01*
X18005754Y-13659884D02*
X18043849Y-13659884D01*
X18043849Y-13659884D02*
X18062897Y-13650360D01*
X18062897Y-13650360D02*
X18072420Y-13631312D01*
X18072420Y-13631312D02*
X18072420Y-13621788D01*
X18072420Y-13621788D02*
X18062897Y-13602741D01*
X18062897Y-13602741D02*
X18043849Y-13593217D01*
X18043849Y-13593217D02*
X18015277Y-13593217D01*
X18015277Y-13593217D02*
X17996230Y-13583693D01*
X17996230Y-13583693D02*
X17986706Y-13564646D01*
X17986706Y-13564646D02*
X17986706Y-13555122D01*
X17986706Y-13555122D02*
X17996230Y-13536074D01*
X17996230Y-13536074D02*
X18015277Y-13526550D01*
X18015277Y-13526550D02*
X18043849Y-13526550D01*
X18043849Y-13526550D02*
X18062897Y-13536074D01*
X18139087Y-13736074D02*
X18148611Y-13726550D01*
X18148611Y-13726550D02*
X18167658Y-13697979D01*
X18167658Y-13697979D02*
X18177182Y-13678931D01*
X18177182Y-13678931D02*
X18186706Y-13650360D01*
X18186706Y-13650360D02*
X18196230Y-13602741D01*
X18196230Y-13602741D02*
X18196230Y-13564646D01*
X18196230Y-13564646D02*
X18186706Y-13517027D01*
X18186706Y-13517027D02*
X18177182Y-13488455D01*
X18177182Y-13488455D02*
X18167658Y-13469408D01*
X18167658Y-13469408D02*
X18148611Y-13440836D01*
X18148611Y-13440836D02*
X18139087Y-13431312D01*
X11454500Y-13732400D02*
X11454500Y-13932400D01*
X11354500Y-13832400D02*
X11554500Y-13832400D01*
X11805753Y-13742931D02*
X11815277Y-13733408D01*
X11815277Y-13733408D02*
X11834324Y-13723884D01*
X11834324Y-13723884D02*
X11881943Y-13723884D01*
X11881943Y-13723884D02*
X11900991Y-13733408D01*
X11900991Y-13733408D02*
X11910515Y-13742931D01*
X11910515Y-13742931D02*
X11920039Y-13761979D01*
X11920039Y-13761979D02*
X11920039Y-13781027D01*
X11920039Y-13781027D02*
X11910515Y-13809598D01*
X11910515Y-13809598D02*
X11796229Y-13923884D01*
X11796229Y-13923884D02*
X11920039Y-13923884D01*
X12005753Y-13904836D02*
X12015277Y-13914360D01*
X12015277Y-13914360D02*
X12005753Y-13923884D01*
X12005753Y-13923884D02*
X11996229Y-13914360D01*
X11996229Y-13914360D02*
X12005753Y-13904836D01*
X12005753Y-13904836D02*
X12005753Y-13923884D01*
X12091467Y-13742931D02*
X12100991Y-13733408D01*
X12100991Y-13733408D02*
X12120039Y-13723884D01*
X12120039Y-13723884D02*
X12167658Y-13723884D01*
X12167658Y-13723884D02*
X12186705Y-13733408D01*
X12186705Y-13733408D02*
X12196229Y-13742931D01*
X12196229Y-13742931D02*
X12205753Y-13761979D01*
X12205753Y-13761979D02*
X12205753Y-13781027D01*
X12205753Y-13781027D02*
X12196229Y-13809598D01*
X12196229Y-13809598D02*
X12081943Y-13923884D01*
X12081943Y-13923884D02*
X12205753Y-13923884D01*
X12329562Y-13723884D02*
X12348610Y-13723884D01*
X12348610Y-13723884D02*
X12367658Y-13733408D01*
X12367658Y-13733408D02*
X12377182Y-13742931D01*
X12377182Y-13742931D02*
X12386705Y-13761979D01*
X12386705Y-13761979D02*
X12396229Y-13800074D01*
X12396229Y-13800074D02*
X12396229Y-13847693D01*
X12396229Y-13847693D02*
X12386705Y-13885788D01*
X12386705Y-13885788D02*
X12377182Y-13904836D01*
X12377182Y-13904836D02*
X12367658Y-13914360D01*
X12367658Y-13914360D02*
X12348610Y-13923884D01*
X12348610Y-13923884D02*
X12329562Y-13923884D01*
X12329562Y-13923884D02*
X12310515Y-13914360D01*
X12310515Y-13914360D02*
X12300991Y-13904836D01*
X12300991Y-13904836D02*
X12291467Y-13885788D01*
X12291467Y-13885788D02*
X12281943Y-13847693D01*
X12281943Y-13847693D02*
X12281943Y-13800074D01*
X12281943Y-13800074D02*
X12291467Y-13761979D01*
X12291467Y-13761979D02*
X12300991Y-13742931D01*
X12300991Y-13742931D02*
X12310515Y-13733408D01*
X12310515Y-13733408D02*
X12329562Y-13723884D01*
X12520039Y-13723884D02*
X12539086Y-13723884D01*
X12539086Y-13723884D02*
X12558134Y-13733408D01*
X12558134Y-13733408D02*
X12567658Y-13742931D01*
X12567658Y-13742931D02*
X12577182Y-13761979D01*
X12577182Y-13761979D02*
X12586705Y-13800074D01*
X12586705Y-13800074D02*
X12586705Y-13847693D01*
X12586705Y-13847693D02*
X12577182Y-13885788D01*
X12577182Y-13885788D02*
X12567658Y-13904836D01*
X12567658Y-13904836D02*
X12558134Y-13914360D01*
X12558134Y-13914360D02*
X12539086Y-13923884D01*
X12539086Y-13923884D02*
X12520039Y-13923884D01*
X12520039Y-13923884D02*
X12500991Y-13914360D01*
X12500991Y-13914360D02*
X12491467Y-13904836D01*
X12491467Y-13904836D02*
X12481943Y-13885788D01*
X12481943Y-13885788D02*
X12472420Y-13847693D01*
X12472420Y-13847693D02*
X12472420Y-13800074D01*
X12472420Y-13800074D02*
X12481943Y-13761979D01*
X12481943Y-13761979D02*
X12491467Y-13742931D01*
X12491467Y-13742931D02*
X12500991Y-13733408D01*
X12500991Y-13733408D02*
X12520039Y-13723884D01*
X12672420Y-13923884D02*
X12672420Y-13790550D01*
X12672420Y-13809598D02*
X12681943Y-13800074D01*
X12681943Y-13800074D02*
X12700991Y-13790550D01*
X12700991Y-13790550D02*
X12729563Y-13790550D01*
X12729563Y-13790550D02*
X12748610Y-13800074D01*
X12748610Y-13800074D02*
X12758134Y-13819122D01*
X12758134Y-13819122D02*
X12758134Y-13923884D01*
X12758134Y-13819122D02*
X12767658Y-13800074D01*
X12767658Y-13800074D02*
X12786705Y-13790550D01*
X12786705Y-13790550D02*
X12815277Y-13790550D01*
X12815277Y-13790550D02*
X12834324Y-13800074D01*
X12834324Y-13800074D02*
X12843848Y-13819122D01*
X12843848Y-13819122D02*
X12843848Y-13923884D01*
X12939086Y-13923884D02*
X12939086Y-13790550D01*
X12939086Y-13809598D02*
X12948610Y-13800074D01*
X12948610Y-13800074D02*
X12967658Y-13790550D01*
X12967658Y-13790550D02*
X12996229Y-13790550D01*
X12996229Y-13790550D02*
X13015277Y-13800074D01*
X13015277Y-13800074D02*
X13024801Y-13819122D01*
X13024801Y-13819122D02*
X13024801Y-13923884D01*
X13024801Y-13819122D02*
X13034324Y-13800074D01*
X13034324Y-13800074D02*
X13053372Y-13790550D01*
X13053372Y-13790550D02*
X13081943Y-13790550D01*
X13081943Y-13790550D02*
X13100991Y-13800074D01*
X13100991Y-13800074D02*
X13110515Y-13819122D01*
X13110515Y-13819122D02*
X13110515Y-13923884D01*
X13500991Y-13714360D02*
X13329563Y-13971503D01*
X13758134Y-13723884D02*
X13777182Y-13723884D01*
X13777182Y-13723884D02*
X13796229Y-13733408D01*
X13796229Y-13733408D02*
X13805753Y-13742931D01*
X13805753Y-13742931D02*
X13815277Y-13761979D01*
X13815277Y-13761979D02*
X13824801Y-13800074D01*
X13824801Y-13800074D02*
X13824801Y-13847693D01*
X13824801Y-13847693D02*
X13815277Y-13885788D01*
X13815277Y-13885788D02*
X13805753Y-13904836D01*
X13805753Y-13904836D02*
X13796229Y-13914360D01*
X13796229Y-13914360D02*
X13777182Y-13923884D01*
X13777182Y-13923884D02*
X13758134Y-13923884D01*
X13758134Y-13923884D02*
X13739086Y-13914360D01*
X13739086Y-13914360D02*
X13729563Y-13904836D01*
X13729563Y-13904836D02*
X13720039Y-13885788D01*
X13720039Y-13885788D02*
X13710515Y-13847693D01*
X13710515Y-13847693D02*
X13710515Y-13800074D01*
X13710515Y-13800074D02*
X13720039Y-13761979D01*
X13720039Y-13761979D02*
X13729563Y-13742931D01*
X13729563Y-13742931D02*
X13739086Y-13733408D01*
X13739086Y-13733408D02*
X13758134Y-13723884D01*
X13910515Y-13904836D02*
X13920039Y-13914360D01*
X13920039Y-13914360D02*
X13910515Y-13923884D01*
X13910515Y-13923884D02*
X13900991Y-13914360D01*
X13900991Y-13914360D02*
X13910515Y-13904836D01*
X13910515Y-13904836D02*
X13910515Y-13923884D01*
X14043848Y-13723884D02*
X14062896Y-13723884D01*
X14062896Y-13723884D02*
X14081944Y-13733408D01*
X14081944Y-13733408D02*
X14091467Y-13742931D01*
X14091467Y-13742931D02*
X14100991Y-13761979D01*
X14100991Y-13761979D02*
X14110515Y-13800074D01*
X14110515Y-13800074D02*
X14110515Y-13847693D01*
X14110515Y-13847693D02*
X14100991Y-13885788D01*
X14100991Y-13885788D02*
X14091467Y-13904836D01*
X14091467Y-13904836D02*
X14081944Y-13914360D01*
X14081944Y-13914360D02*
X14062896Y-13923884D01*
X14062896Y-13923884D02*
X14043848Y-13923884D01*
X14043848Y-13923884D02*
X14024801Y-13914360D01*
X14024801Y-13914360D02*
X14015277Y-13904836D01*
X14015277Y-13904836D02*
X14005753Y-13885788D01*
X14005753Y-13885788D02*
X13996229Y-13847693D01*
X13996229Y-13847693D02*
X13996229Y-13800074D01*
X13996229Y-13800074D02*
X14005753Y-13761979D01*
X14005753Y-13761979D02*
X14015277Y-13742931D01*
X14015277Y-13742931D02*
X14024801Y-13733408D01*
X14024801Y-13733408D02*
X14043848Y-13723884D01*
X14224801Y-13809598D02*
X14205753Y-13800074D01*
X14205753Y-13800074D02*
X14196229Y-13790550D01*
X14196229Y-13790550D02*
X14186706Y-13771503D01*
X14186706Y-13771503D02*
X14186706Y-13761979D01*
X14186706Y-13761979D02*
X14196229Y-13742931D01*
X14196229Y-13742931D02*
X14205753Y-13733408D01*
X14205753Y-13733408D02*
X14224801Y-13723884D01*
X14224801Y-13723884D02*
X14262896Y-13723884D01*
X14262896Y-13723884D02*
X14281944Y-13733408D01*
X14281944Y-13733408D02*
X14291467Y-13742931D01*
X14291467Y-13742931D02*
X14300991Y-13761979D01*
X14300991Y-13761979D02*
X14300991Y-13771503D01*
X14300991Y-13771503D02*
X14291467Y-13790550D01*
X14291467Y-13790550D02*
X14281944Y-13800074D01*
X14281944Y-13800074D02*
X14262896Y-13809598D01*
X14262896Y-13809598D02*
X14224801Y-13809598D01*
X14224801Y-13809598D02*
X14205753Y-13819122D01*
X14205753Y-13819122D02*
X14196229Y-13828646D01*
X14196229Y-13828646D02*
X14186706Y-13847693D01*
X14186706Y-13847693D02*
X14186706Y-13885788D01*
X14186706Y-13885788D02*
X14196229Y-13904836D01*
X14196229Y-13904836D02*
X14205753Y-13914360D01*
X14205753Y-13914360D02*
X14224801Y-13923884D01*
X14224801Y-13923884D02*
X14262896Y-13923884D01*
X14262896Y-13923884D02*
X14281944Y-13914360D01*
X14281944Y-13914360D02*
X14291467Y-13904836D01*
X14291467Y-13904836D02*
X14300991Y-13885788D01*
X14300991Y-13885788D02*
X14300991Y-13847693D01*
X14300991Y-13847693D02*
X14291467Y-13828646D01*
X14291467Y-13828646D02*
X14281944Y-13819122D01*
X14281944Y-13819122D02*
X14262896Y-13809598D01*
X14472420Y-13723884D02*
X14434325Y-13723884D01*
X14434325Y-13723884D02*
X14415277Y-13733408D01*
X14415277Y-13733408D02*
X14405753Y-13742931D01*
X14405753Y-13742931D02*
X14386706Y-13771503D01*
X14386706Y-13771503D02*
X14377182Y-13809598D01*
X14377182Y-13809598D02*
X14377182Y-13885788D01*
X14377182Y-13885788D02*
X14386706Y-13904836D01*
X14386706Y-13904836D02*
X14396229Y-13914360D01*
X14396229Y-13914360D02*
X14415277Y-13923884D01*
X14415277Y-13923884D02*
X14453372Y-13923884D01*
X14453372Y-13923884D02*
X14472420Y-13914360D01*
X14472420Y-13914360D02*
X14481944Y-13904836D01*
X14481944Y-13904836D02*
X14491467Y-13885788D01*
X14491467Y-13885788D02*
X14491467Y-13838169D01*
X14491467Y-13838169D02*
X14481944Y-13819122D01*
X14481944Y-13819122D02*
X14472420Y-13809598D01*
X14472420Y-13809598D02*
X14453372Y-13800074D01*
X14453372Y-13800074D02*
X14415277Y-13800074D01*
X14415277Y-13800074D02*
X14396229Y-13809598D01*
X14396229Y-13809598D02*
X14386706Y-13819122D01*
X14386706Y-13819122D02*
X14377182Y-13838169D01*
X14662896Y-13723884D02*
X14624801Y-13723884D01*
X14624801Y-13723884D02*
X14605753Y-13733408D01*
X14605753Y-13733408D02*
X14596229Y-13742931D01*
X14596229Y-13742931D02*
X14577182Y-13771503D01*
X14577182Y-13771503D02*
X14567658Y-13809598D01*
X14567658Y-13809598D02*
X14567658Y-13885788D01*
X14567658Y-13885788D02*
X14577182Y-13904836D01*
X14577182Y-13904836D02*
X14586706Y-13914360D01*
X14586706Y-13914360D02*
X14605753Y-13923884D01*
X14605753Y-13923884D02*
X14643848Y-13923884D01*
X14643848Y-13923884D02*
X14662896Y-13914360D01*
X14662896Y-13914360D02*
X14672420Y-13904836D01*
X14672420Y-13904836D02*
X14681944Y-13885788D01*
X14681944Y-13885788D02*
X14681944Y-13838169D01*
X14681944Y-13838169D02*
X14672420Y-13819122D01*
X14672420Y-13819122D02*
X14662896Y-13809598D01*
X14662896Y-13809598D02*
X14643848Y-13800074D01*
X14643848Y-13800074D02*
X14605753Y-13800074D01*
X14605753Y-13800074D02*
X14586706Y-13809598D01*
X14586706Y-13809598D02*
X14577182Y-13819122D01*
X14577182Y-13819122D02*
X14567658Y-13838169D01*
X14758134Y-13723884D02*
X14758134Y-13761979D01*
X14834325Y-13723884D02*
X14834325Y-13761979D01*
X15129563Y-14000074D02*
X15120039Y-13990550D01*
X15120039Y-13990550D02*
X15100991Y-13961979D01*
X15100991Y-13961979D02*
X15091468Y-13942931D01*
X15091468Y-13942931D02*
X15081944Y-13914360D01*
X15081944Y-13914360D02*
X15072420Y-13866741D01*
X15072420Y-13866741D02*
X15072420Y-13828646D01*
X15072420Y-13828646D02*
X15081944Y-13781027D01*
X15081944Y-13781027D02*
X15091468Y-13752455D01*
X15091468Y-13752455D02*
X15100991Y-13733408D01*
X15100991Y-13733408D02*
X15120039Y-13704836D01*
X15120039Y-13704836D02*
X15129563Y-13695312D01*
X15291468Y-13790550D02*
X15291468Y-13923884D01*
X15243848Y-13714360D02*
X15196229Y-13857217D01*
X15196229Y-13857217D02*
X15320039Y-13857217D01*
X15548610Y-13923884D02*
X15548610Y-13723884D01*
X15634325Y-13923884D02*
X15634325Y-13819122D01*
X15634325Y-13819122D02*
X15624801Y-13800074D01*
X15624801Y-13800074D02*
X15605753Y-13790550D01*
X15605753Y-13790550D02*
X15577182Y-13790550D01*
X15577182Y-13790550D02*
X15558134Y-13800074D01*
X15558134Y-13800074D02*
X15548610Y-13809598D01*
X15758134Y-13923884D02*
X15739087Y-13914360D01*
X15739087Y-13914360D02*
X15729563Y-13904836D01*
X15729563Y-13904836D02*
X15720039Y-13885788D01*
X15720039Y-13885788D02*
X15720039Y-13828646D01*
X15720039Y-13828646D02*
X15729563Y-13809598D01*
X15729563Y-13809598D02*
X15739087Y-13800074D01*
X15739087Y-13800074D02*
X15758134Y-13790550D01*
X15758134Y-13790550D02*
X15786706Y-13790550D01*
X15786706Y-13790550D02*
X15805753Y-13800074D01*
X15805753Y-13800074D02*
X15815277Y-13809598D01*
X15815277Y-13809598D02*
X15824801Y-13828646D01*
X15824801Y-13828646D02*
X15824801Y-13885788D01*
X15824801Y-13885788D02*
X15815277Y-13904836D01*
X15815277Y-13904836D02*
X15805753Y-13914360D01*
X15805753Y-13914360D02*
X15786706Y-13923884D01*
X15786706Y-13923884D02*
X15758134Y-13923884D01*
X15939087Y-13923884D02*
X15920039Y-13914360D01*
X15920039Y-13914360D02*
X15910515Y-13895312D01*
X15910515Y-13895312D02*
X15910515Y-13723884D01*
X16091468Y-13914360D02*
X16072420Y-13923884D01*
X16072420Y-13923884D02*
X16034325Y-13923884D01*
X16034325Y-13923884D02*
X16015277Y-13914360D01*
X16015277Y-13914360D02*
X16005753Y-13895312D01*
X16005753Y-13895312D02*
X16005753Y-13819122D01*
X16005753Y-13819122D02*
X16015277Y-13800074D01*
X16015277Y-13800074D02*
X16034325Y-13790550D01*
X16034325Y-13790550D02*
X16072420Y-13790550D01*
X16072420Y-13790550D02*
X16091468Y-13800074D01*
X16091468Y-13800074D02*
X16100991Y-13819122D01*
X16100991Y-13819122D02*
X16100991Y-13838169D01*
X16100991Y-13838169D02*
X16005753Y-13857217D01*
X16177182Y-13914360D02*
X16196230Y-13923884D01*
X16196230Y-13923884D02*
X16234325Y-13923884D01*
X16234325Y-13923884D02*
X16253372Y-13914360D01*
X16253372Y-13914360D02*
X16262896Y-13895312D01*
X16262896Y-13895312D02*
X16262896Y-13885788D01*
X16262896Y-13885788D02*
X16253372Y-13866741D01*
X16253372Y-13866741D02*
X16234325Y-13857217D01*
X16234325Y-13857217D02*
X16205753Y-13857217D01*
X16205753Y-13857217D02*
X16186706Y-13847693D01*
X16186706Y-13847693D02*
X16177182Y-13828646D01*
X16177182Y-13828646D02*
X16177182Y-13819122D01*
X16177182Y-13819122D02*
X16186706Y-13800074D01*
X16186706Y-13800074D02*
X16205753Y-13790550D01*
X16205753Y-13790550D02*
X16234325Y-13790550D01*
X16234325Y-13790550D02*
X16253372Y-13800074D01*
X16329563Y-14000074D02*
X16339087Y-13990550D01*
X16339087Y-13990550D02*
X16358134Y-13961979D01*
X16358134Y-13961979D02*
X16367658Y-13942931D01*
X16367658Y-13942931D02*
X16377182Y-13914360D01*
X16377182Y-13914360D02*
X16386706Y-13866741D01*
X16386706Y-13866741D02*
X16386706Y-13828646D01*
X16386706Y-13828646D02*
X16377182Y-13781027D01*
X16377182Y-13781027D02*
X16367658Y-13752455D01*
X16367658Y-13752455D02*
X16358134Y-13733408D01*
X16358134Y-13733408D02*
X16339087Y-13704836D01*
X16339087Y-13704836D02*
X16329563Y-13695312D01*
M02*
