%TF.GenerationSoftware,KiCad,Pcbnew,7.0.11-7.0.11~ubuntu22.04.1*%
%TF.CreationDate,2025-04-19T23:19:54+01:00*%
%TF.ProjectId,Mixed_Signal_Design,4d697865-645f-4536-9967-6e616c5f4465,rev?*%
%TF.SameCoordinates,Original*%
%TF.FileFunction,Copper,L1,Top*%
%TF.FilePolarity,Positive*%
%FSLAX46Y46*%
G04 Gerber Fmt 4.6, Leading zero omitted, Abs format (unit mm)*
G04 Created by KiCad (PCBNEW 7.0.11-7.0.11~ubuntu22.04.1) date 2025-04-19 23:19:54*
%MOMM*%
%LPD*%
G01*
G04 APERTURE LIST*
G04 Aperture macros list*
%AMRoundRect*
0 Rectangle with rounded corners*
0 $1 Rounding radius*
0 $2 $3 $4 $5 $6 $7 $8 $9 X,Y pos of 4 corners*
0 Add a 4 corners polygon primitive as box body*
4,1,4,$2,$3,$4,$5,$6,$7,$8,$9,$2,$3,0*
0 Add four circle primitives for the rounded corners*
1,1,$1+$1,$2,$3*
1,1,$1+$1,$4,$5*
1,1,$1+$1,$6,$7*
1,1,$1+$1,$8,$9*
0 Add four rect primitives between the rounded corners*
20,1,$1+$1,$2,$3,$4,$5,0*
20,1,$1+$1,$4,$5,$6,$7,0*
20,1,$1+$1,$6,$7,$8,$9,0*
20,1,$1+$1,$8,$9,$2,$3,0*%
G04 Aperture macros list end*
%TA.AperFunction,SMDPad,CuDef*%
%ADD10C,0.750000*%
%TD*%
%TA.AperFunction,SMDPad,CuDef*%
%ADD11RoundRect,0.225000X0.225000X0.250000X-0.225000X0.250000X-0.225000X-0.250000X0.225000X-0.250000X0*%
%TD*%
%TA.AperFunction,SMDPad,CuDef*%
%ADD12RoundRect,0.225000X-0.250000X0.225000X-0.250000X-0.225000X0.250000X-0.225000X0.250000X0.225000X0*%
%TD*%
%TA.AperFunction,SMDPad,CuDef*%
%ADD13RoundRect,0.218750X-0.218750X-0.256250X0.218750X-0.256250X0.218750X0.256250X-0.218750X0.256250X0*%
%TD*%
%TA.AperFunction,SMDPad,CuDef*%
%ADD14RoundRect,0.140000X-0.170000X0.140000X-0.170000X-0.140000X0.170000X-0.140000X0.170000X0.140000X0*%
%TD*%
%TA.AperFunction,SMDPad,CuDef*%
%ADD15RoundRect,0.160000X0.197500X0.160000X-0.197500X0.160000X-0.197500X-0.160000X0.197500X-0.160000X0*%
%TD*%
%TA.AperFunction,ComponentPad*%
%ADD16R,1.700000X1.700000*%
%TD*%
%TA.AperFunction,ComponentPad*%
%ADD17O,1.700000X1.700000*%
%TD*%
%TA.AperFunction,ComponentPad*%
%ADD18C,3.500000*%
%TD*%
%TA.AperFunction,SMDPad,CuDef*%
%ADD19RoundRect,0.225000X0.250000X-0.225000X0.250000X0.225000X-0.250000X0.225000X-0.250000X-0.225000X0*%
%TD*%
%TA.AperFunction,SMDPad,CuDef*%
%ADD20R,4.500000X2.000000*%
%TD*%
%TA.AperFunction,SMDPad,CuDef*%
%ADD21R,1.700000X0.900000*%
%TD*%
%TA.AperFunction,SMDPad,CuDef*%
%ADD22R,1.285000X1.470000*%
%TD*%
%TA.AperFunction,SMDPad,CuDef*%
%ADD23R,1.600000X0.550000*%
%TD*%
%TA.AperFunction,SMDPad,CuDef*%
%ADD24R,0.550000X1.600000*%
%TD*%
%TA.AperFunction,SMDPad,CuDef*%
%ADD25RoundRect,0.250000X0.350000X-0.850000X0.350000X0.850000X-0.350000X0.850000X-0.350000X-0.850000X0*%
%TD*%
%TA.AperFunction,SMDPad,CuDef*%
%ADD26RoundRect,0.250000X1.125000X-1.275000X1.125000X1.275000X-1.125000X1.275000X-1.125000X-1.275000X0*%
%TD*%
%TA.AperFunction,SMDPad,CuDef*%
%ADD27RoundRect,0.249997X2.650003X-2.950003X2.650003X2.950003X-2.650003X2.950003X-2.650003X-2.950003X0*%
%TD*%
%TA.AperFunction,SMDPad,CuDef*%
%ADD28RoundRect,0.225000X-0.225000X-0.250000X0.225000X-0.250000X0.225000X0.250000X-0.225000X0.250000X0*%
%TD*%
%TA.AperFunction,ComponentPad*%
%ADD29R,4.000000X2.000000*%
%TD*%
%TA.AperFunction,ComponentPad*%
%ADD30O,3.300000X2.000000*%
%TD*%
%TA.AperFunction,ComponentPad*%
%ADD31O,2.000000X3.500000*%
%TD*%
%TA.AperFunction,SMDPad,CuDef*%
%ADD32RoundRect,0.160000X-0.197500X-0.160000X0.197500X-0.160000X0.197500X0.160000X-0.197500X0.160000X0*%
%TD*%
%TA.AperFunction,SMDPad,CuDef*%
%ADD33RoundRect,0.140000X0.170000X-0.140000X0.170000X0.140000X-0.170000X0.140000X-0.170000X-0.140000X0*%
%TD*%
%TA.AperFunction,SMDPad,CuDef*%
%ADD34RoundRect,0.250000X0.500000X1.100000X-0.500000X1.100000X-0.500000X-1.100000X0.500000X-1.100000X0*%
%TD*%
%TA.AperFunction,ViaPad*%
%ADD35C,0.400000*%
%TD*%
%TA.AperFunction,Conductor*%
%ADD36C,0.200000*%
%TD*%
%TA.AperFunction,Conductor*%
%ADD37C,0.500000*%
%TD*%
%TA.AperFunction,Conductor*%
%ADD38C,0.600000*%
%TD*%
G04 APERTURE END LIST*
D10*
%TO.P,FID1,*%
%TO.N,*%
X124206000Y-98171000D03*
%TD*%
D11*
%TO.P,C5,1*%
%TO.N,+5VD*%
X136678000Y-107188000D03*
%TO.P,C5,2*%
%TO.N,GNDD*%
X135128000Y-107188000D03*
%TD*%
D12*
%TO.P,C16,1*%
%TO.N,+3V3D*%
X134747000Y-91046000D03*
%TO.P,C16,2*%
%TO.N,GNDD*%
X134747000Y-92596000D03*
%TD*%
D13*
%TO.P,D3,1,K*%
%TO.N,GNDD*%
X122656500Y-101600000D03*
%TO.P,D3,2,A*%
%TO.N,Net-(D3-A)*%
X124231500Y-101600000D03*
%TD*%
D14*
%TO.P,C14,1*%
%TO.N,GNDD*%
X135128000Y-96802000D03*
%TO.P,C14,2*%
%TO.N,Net-(U4-PB6{slash}XTAL1)*%
X135128000Y-97762000D03*
%TD*%
D15*
%TO.P,R2,1*%
%TO.N,+3V3D*%
X131661500Y-102235000D03*
%TO.P,R2,2*%
%TO.N,Net-(D3-A)*%
X130466500Y-102235000D03*
%TD*%
D16*
%TO.P,J4,1,Pin_1*%
%TO.N,ADC1*%
X164846000Y-99695000D03*
D17*
%TO.P,J4,2,Pin_2*%
%TO.N,ADC2*%
X164846000Y-102235000D03*
%TO.P,J4,3,Pin_3*%
%TO.N,PC0*%
X164846000Y-104775000D03*
%TO.P,J4,4,Pin_4*%
%TO.N,PC1*%
X164846000Y-107315000D03*
%TO.P,J4,5,Pin_5*%
%TO.N,PC2*%
X164846000Y-109855000D03*
%TO.P,J4,6,Pin_6*%
%TO.N,PC3*%
X164846000Y-112395000D03*
%TO.P,J4,7,Pin_7*%
%TO.N,PC4*%
X164846000Y-114935000D03*
%TO.P,J4,8,Pin_8*%
%TO.N,PC5*%
X164846000Y-117475000D03*
%TD*%
D12*
%TO.P,C18,1*%
%TO.N,+3V3D*%
X130683000Y-91072000D03*
%TO.P,C18,2*%
%TO.N,GNDD*%
X130683000Y-92622000D03*
%TD*%
D11*
%TO.P,C8,1*%
%TO.N,+3V3D*%
X141999000Y-100330000D03*
%TO.P,C8,2*%
%TO.N,GNDD*%
X140449000Y-100330000D03*
%TD*%
D18*
%TO.P,H1,1,1*%
%TO.N,GNDD*%
X165735000Y-123317000D03*
%TD*%
D19*
%TO.P,C12,1*%
%TO.N,+3V3D*%
X130810000Y-97663000D03*
%TO.P,C12,2*%
%TO.N,GNDD*%
X130810000Y-96113000D03*
%TD*%
D20*
%TO.P,Y1,1,1*%
%TO.N,Net-(U4-PB6{slash}XTAL1)*%
X140657000Y-92202000D03*
%TO.P,Y1,2,2*%
%TO.N,Net-(U4-PB7{slash}XTAL2)*%
X149157000Y-92202000D03*
%TD*%
D11*
%TO.P,C7,1*%
%TO.N,+3V3D*%
X141999000Y-102362000D03*
%TO.P,C7,2*%
%TO.N,GNDD*%
X140449000Y-102362000D03*
%TD*%
D21*
%TO.P,SW1,1,A*%
%TO.N,Net-(C20-Pad2)*%
X132588000Y-124460000D03*
%TO.P,SW1,2,A*%
X132588000Y-121060000D03*
%TD*%
D22*
%TO.P,FB1,1*%
%TO.N,+3V3A*%
X140632000Y-110998000D03*
%TO.P,FB1,2*%
%TO.N,+3V3D*%
X142578000Y-110998000D03*
%TD*%
D16*
%TO.P,J2,1,MISO*%
%TO.N,PB4*%
X118745000Y-95377000D03*
D17*
%TO.P,J2,2,VCC*%
%TO.N,+3V3D*%
X118745000Y-97917000D03*
%TO.P,J2,3,SCK*%
%TO.N,PB5*%
X118745000Y-100457000D03*
%TO.P,J2,4,MOSI*%
%TO.N,PB3*%
X118745000Y-102997000D03*
%TO.P,J2,5,~{RST}*%
%TO.N,RST*%
X118745000Y-105537000D03*
%TO.P,J2,6,GND*%
%TO.N,GNDD*%
X118745000Y-108077000D03*
%TD*%
D18*
%TO.P,H3,1,1*%
%TO.N,GNDD*%
X119126000Y-89789000D03*
%TD*%
D23*
%TO.P,U4,1,PD3*%
%TO.N,PD3*%
X153729000Y-106432000D03*
%TO.P,U4,2,PD4*%
%TO.N,PD4*%
X153729000Y-105632000D03*
%TO.P,U4,3,GND*%
%TO.N,GNDD*%
X153729000Y-104832000D03*
%TO.P,U4,4,VCC*%
%TO.N,+3V3D*%
X153729000Y-104032000D03*
%TO.P,U4,5,GND*%
%TO.N,GNDD*%
X153729000Y-103232000D03*
%TO.P,U4,6,VCC*%
%TO.N,+3V3D*%
X153729000Y-102432000D03*
%TO.P,U4,7,PB6/XTAL1*%
%TO.N,Net-(U4-PB6{slash}XTAL1)*%
X153729000Y-101632000D03*
%TO.P,U4,8,PB7/XTAL2*%
%TO.N,Net-(U4-PB7{slash}XTAL2)*%
X153729000Y-100832000D03*
D24*
%TO.P,U4,9,PD5*%
%TO.N,PD5*%
X152279000Y-99382000D03*
%TO.P,U4,10,PD6*%
%TO.N,PD6*%
X151479000Y-99382000D03*
%TO.P,U4,11,PD7*%
%TO.N,PD7*%
X150679000Y-99382000D03*
%TO.P,U4,12,PB0*%
%TO.N,PB0*%
X149879000Y-99382000D03*
%TO.P,U4,13,PB1*%
%TO.N,PB1*%
X149079000Y-99382000D03*
%TO.P,U4,14,PB2*%
%TO.N,PB2*%
X148279000Y-99382000D03*
%TO.P,U4,15,PB3*%
%TO.N,PB3*%
X147479000Y-99382000D03*
%TO.P,U4,16,PB4*%
%TO.N,PB4*%
X146679000Y-99382000D03*
D23*
%TO.P,U4,17,PB5*%
%TO.N,PB5*%
X145229000Y-100832000D03*
%TO.P,U4,18,AVCC*%
%TO.N,+3V3A*%
X145229000Y-101632000D03*
%TO.P,U4,19,ADC6*%
%TO.N,ADC1*%
X145229000Y-102432000D03*
%TO.P,U4,20,AREF*%
%TO.N,Net-(U4-AREF)*%
X145229000Y-103232000D03*
%TO.P,U4,21,AGND*%
%TO.N,GNDA*%
X145229000Y-104032000D03*
%TO.P,U4,22,ADC7*%
%TO.N,ADC2*%
X145229000Y-104832000D03*
%TO.P,U4,23,PC0*%
%TO.N,PC0*%
X145229000Y-105632000D03*
%TO.P,U4,24,PC1*%
%TO.N,PC1*%
X145229000Y-106432000D03*
D24*
%TO.P,U4,25,PC2*%
%TO.N,PC2*%
X146679000Y-107882000D03*
%TO.P,U4,26,PC3*%
%TO.N,PC3*%
X147479000Y-107882000D03*
%TO.P,U4,27,PC4*%
%TO.N,PC4*%
X148279000Y-107882000D03*
%TO.P,U4,28,PC5*%
%TO.N,PC5*%
X149079000Y-107882000D03*
%TO.P,U4,29,PC6/~{RESET}*%
%TO.N,RST*%
X149879000Y-107882000D03*
%TO.P,U4,30,PD0*%
%TO.N,PD0*%
X150679000Y-107882000D03*
%TO.P,U4,31,PD1*%
%TO.N,PD1*%
X151479000Y-107882000D03*
%TO.P,U4,32,PD2*%
%TO.N,PD2*%
X152279000Y-107882000D03*
%TD*%
D10*
%TO.P,FID3,*%
%TO.N,*%
X131826000Y-111379000D03*
%TD*%
D11*
%TO.P,C6,1*%
%TO.N,+5VD*%
X136678000Y-104775000D03*
%TO.P,C6,2*%
%TO.N,GNDD*%
X135128000Y-104775000D03*
%TD*%
D25*
%TO.P,U1,1,GND*%
%TO.N,GNDD*%
X140721000Y-123370000D03*
%TO.P,U1,2,VO*%
%TO.N,+5VD*%
X143001000Y-123370000D03*
D26*
X141476000Y-118745000D03*
X144526000Y-118745000D03*
D27*
X143001000Y-117070000D03*
D26*
X141476000Y-115395000D03*
X144526000Y-115395000D03*
D25*
%TO.P,U1,3,VI*%
%TO.N,Net-(D2-K)*%
X145281000Y-123370000D03*
%TD*%
D28*
%TO.P,C9,1*%
%TO.N,+3V3D*%
X159385000Y-99314000D03*
%TO.P,C9,2*%
%TO.N,GNDA*%
X160935000Y-99314000D03*
%TD*%
D15*
%TO.P,R3,1*%
%TO.N,+3V3D*%
X131661500Y-100330000D03*
%TO.P,R3,2*%
%TO.N,RST*%
X130466500Y-100330000D03*
%TD*%
%TO.P,R1,1*%
%TO.N,+5VD*%
X131713500Y-104267000D03*
%TO.P,R1,2*%
%TO.N,Net-(D1-A)*%
X130518500Y-104267000D03*
%TD*%
D12*
%TO.P,C20,1*%
%TO.N,RST*%
X137287000Y-122301000D03*
%TO.P,C20,2*%
%TO.N,Net-(C20-Pad2)*%
X137287000Y-123851000D03*
%TD*%
D19*
%TO.P,C11,1*%
%TO.N,+3V3D*%
X128427000Y-97663000D03*
%TO.P,C11,2*%
%TO.N,GNDD*%
X128427000Y-96113000D03*
%TD*%
D28*
%TO.P,C10,1*%
%TO.N,+3V3D*%
X159359000Y-102362000D03*
%TO.P,C10,2*%
%TO.N,GNDA*%
X160909000Y-102362000D03*
%TD*%
D29*
%TO.P,J1,1,PWR*%
%TO.N,+9VD*%
X121920000Y-114412000D03*
D30*
%TO.P,J1,2,GND*%
%TO.N,GNDD*%
X121920000Y-120412000D03*
D31*
%TO.P,J1,MP*%
%TO.N,N/C*%
X117420000Y-121412000D03*
X126420000Y-121412000D03*
%TD*%
D32*
%TO.P,R4,1*%
%TO.N,GNDD*%
X155485500Y-94361000D03*
%TO.P,R4,2*%
%TO.N,GNDA*%
X156680500Y-94361000D03*
%TD*%
D18*
%TO.P,H4,1,1*%
%TO.N,GNDD*%
X132588000Y-116459000D03*
%TD*%
D12*
%TO.P,C17,1*%
%TO.N,+3V3D*%
X132715000Y-91072000D03*
%TO.P,C17,2*%
%TO.N,GNDD*%
X132715000Y-92622000D03*
%TD*%
D11*
%TO.P,C2,1*%
%TO.N,Net-(D2-K)*%
X141999000Y-105156000D03*
%TO.P,C2,2*%
%TO.N,GNDD*%
X140449000Y-105156000D03*
%TD*%
D25*
%TO.P,U2,1,GND*%
%TO.N,GNDD*%
X150132500Y-123394000D03*
%TO.P,U2,2,VO*%
%TO.N,+3V3D*%
X152412500Y-123394000D03*
D26*
X150887500Y-118769000D03*
X153937500Y-118769000D03*
D27*
X152412500Y-117094000D03*
D26*
X150887500Y-115419000D03*
X153937500Y-115419000D03*
D25*
%TO.P,U2,3,VI*%
%TO.N,+5VD*%
X154692500Y-123394000D03*
%TD*%
D10*
%TO.P,FID2,*%
%TO.N,*%
X160147000Y-107569000D03*
%TD*%
D13*
%TO.P,D1,1,K*%
%TO.N,GNDD*%
X122656500Y-104267000D03*
%TO.P,D1,2,A*%
%TO.N,Net-(D1-A)*%
X124231500Y-104267000D03*
%TD*%
D18*
%TO.P,H2,1,1*%
%TO.N,GNDD*%
X165735000Y-89662000D03*
%TD*%
D11*
%TO.P,C4,1*%
%TO.N,+5VD*%
X136665000Y-100330000D03*
%TO.P,C4,2*%
%TO.N,GNDD*%
X135115000Y-100330000D03*
%TD*%
%TO.P,C19,1*%
%TO.N,GNDA*%
X160922000Y-105029000D03*
%TO.P,C19,2*%
%TO.N,Net-(U4-AREF)*%
X159372000Y-105029000D03*
%TD*%
D33*
%TO.P,C15,1*%
%TO.N,Net-(U4-PB7{slash}XTAL2)*%
X136652000Y-97762000D03*
%TO.P,C15,2*%
%TO.N,GNDD*%
X136652000Y-96802000D03*
%TD*%
D19*
%TO.P,C13,1*%
%TO.N,+3V3D*%
X133096000Y-97663000D03*
%TO.P,C13,2*%
%TO.N,GNDD*%
X133096000Y-96113000D03*
%TD*%
D11*
%TO.P,C3,1*%
%TO.N,+5VD*%
X136678000Y-102549000D03*
%TO.P,C3,2*%
%TO.N,GNDD*%
X135128000Y-102549000D03*
%TD*%
D34*
%TO.P,D2,1,K*%
%TO.N,Net-(D2-K)*%
X127876000Y-109220000D03*
%TO.P,D2,2,A*%
%TO.N,+9VD*%
X123076000Y-109220000D03*
%TD*%
D11*
%TO.P,C1,1*%
%TO.N,Net-(D2-K)*%
X141999000Y-107188000D03*
%TO.P,C1,2*%
%TO.N,GNDD*%
X140449000Y-107188000D03*
%TD*%
D35*
%TO.N,GNDD*%
X151003000Y-88646000D03*
X139192000Y-88519000D03*
X144780000Y-88519000D03*
X122301000Y-93726000D03*
X125730000Y-88646000D03*
X123317000Y-88646000D03*
X158369000Y-90805000D03*
X157099000Y-90805000D03*
X155702000Y-90805000D03*
X158369000Y-89281000D03*
X157099000Y-89281000D03*
X155702000Y-89281000D03*
%TO.N,Net-(D2-K)*%
X130048000Y-109220000D03*
X146939000Y-123317000D03*
X141986000Y-108839000D03*
%TO.N,GNDA*%
X149987000Y-101473000D03*
X156210000Y-96012000D03*
%TO.N,+5VD*%
X136652000Y-110744000D03*
X143891000Y-125476000D03*
X136652000Y-101473000D03*
X136652000Y-103632000D03*
X143002000Y-120650000D03*
X131699000Y-107061000D03*
X153797000Y-125476000D03*
X136652000Y-105918000D03*
%TO.N,PB5*%
X144018000Y-100838000D03*
%TO.N,RST*%
X137287000Y-119253000D03*
X149860000Y-112649000D03*
%TO.N,PC0*%
X146685000Y-105664000D03*
%TO.N,PC1*%
X146685000Y-106426000D03*
%TO.N,PC2*%
X146685000Y-109601000D03*
%TO.N,PC3*%
X147574000Y-110236000D03*
%TO.N,PC4*%
X148463000Y-110871000D03*
%TO.N,PC5*%
X149098000Y-111760000D03*
%TO.N,PB3*%
X147447000Y-101092000D03*
%TO.N,PB4*%
X145669000Y-99314000D03*
%TO.N,GNDD*%
X147955000Y-119761000D03*
X140716000Y-108331000D03*
X155448000Y-107696000D03*
X129413000Y-119253000D03*
X133223000Y-94742000D03*
X118745000Y-112014000D03*
X141478000Y-95250000D03*
X147955000Y-117729000D03*
X138430000Y-96393000D03*
X138430000Y-95123000D03*
X131699000Y-94742000D03*
X140589000Y-106172000D03*
X128270000Y-116078000D03*
X141478000Y-96266000D03*
X133731000Y-101600000D03*
X157480000Y-124079000D03*
X121793000Y-103759000D03*
X139827000Y-106172000D03*
X140716000Y-125222000D03*
X133731000Y-103886000D03*
X133731000Y-106299000D03*
X143383000Y-95758000D03*
X139192000Y-123444000D03*
X121793000Y-102489000D03*
X147701000Y-115316000D03*
X160147000Y-123190000D03*
X128397000Y-94742000D03*
X139192000Y-125222000D03*
X160274000Y-125095000D03*
X128397000Y-118745000D03*
X157480000Y-107696000D03*
X130048000Y-94742000D03*
X128397000Y-93091000D03*
X138557000Y-101346000D03*
%TO.N,ADC1*%
X147193000Y-102489000D03*
%TO.N,Net-(U4-AREF)*%
X146812000Y-103251000D03*
X158877000Y-103886000D03*
%TO.N,ADC2*%
X146685000Y-104775000D03*
%TD*%
D36*
%TO.N,Net-(D2-K)*%
X146886000Y-123370000D02*
X146939000Y-123317000D01*
X141986000Y-107201000D02*
X141999000Y-107188000D01*
X141999000Y-105156000D02*
X141999000Y-107188000D01*
X127876000Y-109220000D02*
X130048000Y-109220000D01*
X145281000Y-123370000D02*
X146886000Y-123370000D01*
X141986000Y-108839000D02*
X141986000Y-107201000D01*
D37*
%TO.N,GNDA*%
X158369000Y-94361000D02*
X160935000Y-96927000D01*
D36*
X145229000Y-104032000D02*
X147428000Y-104032000D01*
X156210000Y-96012000D02*
X156718000Y-95504000D01*
X156718000Y-94398500D02*
X156680500Y-94361000D01*
D37*
X160935000Y-102336000D02*
X160909000Y-102362000D01*
D36*
X156718000Y-95504000D02*
X156718000Y-94398500D01*
D37*
X160935000Y-96927000D02*
X160935000Y-99314000D01*
X160909000Y-102362000D02*
X160909000Y-105016000D01*
X156680500Y-94361000D02*
X158369000Y-94361000D01*
D36*
X147428000Y-104032000D02*
X149987000Y-101473000D01*
D37*
X160935000Y-99314000D02*
X160935000Y-102336000D01*
X160909000Y-105016000D02*
X160922000Y-105029000D01*
%TO.N,+5VD*%
X143001000Y-117070000D02*
X136678000Y-110747000D01*
X136678000Y-105944000D02*
X136652000Y-105918000D01*
X136678000Y-101499000D02*
X136652000Y-101473000D01*
X143002000Y-120650000D02*
X143001000Y-120651000D01*
X136652000Y-101473000D02*
X136678000Y-101447000D01*
X136678000Y-103658000D02*
X136652000Y-103632000D01*
X131713500Y-107075500D02*
X131699000Y-107061000D01*
X136678000Y-101447000D02*
X136678000Y-100343000D01*
X153797000Y-125476000D02*
X154692500Y-124580500D01*
X143001000Y-120649000D02*
X143002000Y-120650000D01*
X136678000Y-110747000D02*
X136655000Y-110747000D01*
X136649000Y-110747000D02*
X135385000Y-110747000D01*
X136652000Y-103632000D02*
X136678000Y-103606000D01*
X136678000Y-103606000D02*
X136678000Y-102549000D01*
X143001000Y-123370000D02*
X143001000Y-124586000D01*
X136652000Y-110744000D02*
X136649000Y-110747000D01*
X143001000Y-120651000D02*
X143001000Y-123370000D01*
X136678000Y-104775000D02*
X136678000Y-103658000D01*
X136678000Y-107188000D02*
X136678000Y-105944000D01*
X154692500Y-124580500D02*
X154692500Y-123394000D01*
X136678000Y-105892000D02*
X136678000Y-104775000D01*
X143001000Y-124586000D02*
X143891000Y-125476000D01*
X136652000Y-105918000D02*
X136678000Y-105892000D01*
X143891000Y-125476000D02*
X153797000Y-125476000D01*
X131699000Y-107061000D02*
X131713500Y-104267000D01*
X135385000Y-110747000D02*
X131713500Y-107075500D01*
X143001000Y-117070000D02*
X143001000Y-120649000D01*
X136678000Y-102549000D02*
X136678000Y-101499000D01*
X136678000Y-110747000D02*
X136678000Y-107188000D01*
X136655000Y-110747000D02*
X136652000Y-110744000D01*
X136678000Y-100343000D02*
X136665000Y-100330000D01*
D36*
%TO.N,+3V3D*%
X158597000Y-101600000D02*
X159359000Y-102362000D01*
X142578000Y-112057000D02*
X141351000Y-113284000D01*
X142578000Y-110998000D02*
X146466500Y-110998000D01*
X126365000Y-95601000D02*
X128427000Y-97663000D01*
X156210000Y-110236000D02*
X152412500Y-114033500D01*
X141999000Y-100330000D02*
X141999000Y-102362000D01*
X156210000Y-105511000D02*
X156210000Y-110236000D01*
X131661500Y-102235000D02*
X131661500Y-100330000D01*
X141351000Y-113284000D02*
X140335000Y-113284000D01*
X126365000Y-92837000D02*
X126365000Y-95601000D01*
X157689000Y-104032000D02*
X156210000Y-105511000D01*
X152412500Y-114033500D02*
X152412500Y-117094000D01*
X138811000Y-103505000D02*
X141224000Y-103505000D01*
X157689000Y-104032000D02*
X153729000Y-104032000D01*
X152412500Y-123394000D02*
X152412500Y-117094000D01*
X157226000Y-101600000D02*
X158597000Y-101600000D01*
X130810000Y-97663000D02*
X133096000Y-97663000D01*
X153729000Y-102432000D02*
X156394000Y-102432000D01*
X123220000Y-95601000D02*
X126365000Y-95601000D01*
X134721000Y-91072000D02*
X134747000Y-91046000D01*
X142578000Y-110998000D02*
X142578000Y-112057000D01*
X156394000Y-102432000D02*
X157226000Y-101600000D01*
X134366000Y-98933000D02*
X133096000Y-97663000D01*
X131661500Y-100330000D02*
X131661500Y-98514500D01*
X141999000Y-102730000D02*
X141999000Y-102362000D01*
X128130000Y-91072000D02*
X126365000Y-92837000D01*
X118745000Y-97917000D02*
X120904000Y-97917000D01*
X130683000Y-91072000D02*
X128130000Y-91072000D01*
X120904000Y-97917000D02*
X123220000Y-95601000D01*
X140335000Y-113284000D02*
X138049000Y-110998000D01*
X132715000Y-91072000D02*
X134721000Y-91072000D01*
X146466500Y-110998000D02*
X150887500Y-115419000D01*
X138049000Y-110998000D02*
X138049000Y-104267000D01*
X130683000Y-91072000D02*
X132715000Y-91072000D01*
X140602000Y-98933000D02*
X134366000Y-98933000D01*
X159385000Y-99314000D02*
X159385000Y-100812000D01*
X141999000Y-100330000D02*
X140602000Y-98933000D01*
X159359000Y-102362000D02*
X157689000Y-104032000D01*
X131661500Y-98514500D02*
X130810000Y-97663000D01*
X138049000Y-104267000D02*
X138811000Y-103505000D01*
X159385000Y-100812000D02*
X158597000Y-101600000D01*
X141224000Y-103505000D02*
X141999000Y-102730000D01*
X128427000Y-97663000D02*
X130810000Y-97663000D01*
%TO.N,PB5*%
X145229000Y-100832000D02*
X144024000Y-100832000D01*
X144024000Y-100832000D02*
X144018000Y-100838000D01*
%TO.N,RST*%
X120904000Y-104521000D02*
X120904000Y-101219000D01*
X137287000Y-114173000D02*
X137287000Y-119253000D01*
X118745000Y-105537000D02*
X128651000Y-105537000D01*
X121793000Y-100330000D02*
X130466500Y-100330000D01*
X119888000Y-105537000D02*
X120904000Y-104521000D01*
X137287000Y-119253000D02*
X137287000Y-122301000D01*
X149879000Y-112630000D02*
X149879000Y-107882000D01*
X120904000Y-101219000D02*
X121793000Y-100330000D01*
X118745000Y-105537000D02*
X119888000Y-105537000D01*
X128651000Y-105537000D02*
X137287000Y-114173000D01*
X149860000Y-112649000D02*
X149879000Y-112630000D01*
%TO.N,PC0*%
X146653000Y-105632000D02*
X146685000Y-105664000D01*
X145229000Y-105632000D02*
X146653000Y-105632000D01*
%TO.N,PC1*%
X146679000Y-106432000D02*
X146685000Y-106426000D01*
X145229000Y-106432000D02*
X146679000Y-106432000D01*
%TO.N,PC2*%
X146679000Y-109595000D02*
X146685000Y-109601000D01*
X146679000Y-107882000D02*
X146679000Y-109595000D01*
%TO.N,PC3*%
X147479000Y-110141000D02*
X147479000Y-107882000D01*
X147574000Y-110236000D02*
X147479000Y-110141000D01*
%TO.N,PC4*%
X148279000Y-110687000D02*
X148463000Y-110871000D01*
X148279000Y-107882000D02*
X148279000Y-110687000D01*
%TO.N,PC5*%
X149098000Y-111760000D02*
X149079000Y-111741000D01*
X149079000Y-111741000D02*
X149079000Y-107882000D01*
%TO.N,+3V3A*%
X143129000Y-103251000D02*
X143129000Y-102362000D01*
X140632000Y-110998000D02*
X140632000Y-109898000D01*
X142367000Y-104013000D02*
X143129000Y-103251000D01*
X139319000Y-104013000D02*
X142367000Y-104013000D01*
X143859000Y-101632000D02*
X145229000Y-101632000D01*
X138684000Y-104648000D02*
X139319000Y-104013000D01*
X143129000Y-102362000D02*
X143859000Y-101632000D01*
X140632000Y-109898000D02*
X138684000Y-107950000D01*
X138684000Y-107950000D02*
X138684000Y-104648000D01*
%TO.N,PB3*%
X147479000Y-99382000D02*
X147479000Y-101060000D01*
X147479000Y-101060000D02*
X147447000Y-101092000D01*
%TO.N,PB4*%
X146679000Y-99382000D02*
X145737000Y-99382000D01*
X145737000Y-99382000D02*
X145669000Y-99314000D01*
D38*
%TO.N,+9VD*%
X123076000Y-111366000D02*
X121920000Y-112522000D01*
X123076000Y-111366000D02*
X123076000Y-109220000D01*
X121920000Y-112522000D02*
X121920000Y-114412000D01*
D36*
%TO.N,Net-(C20-Pad2)*%
X134395000Y-121060000D02*
X137186000Y-123851000D01*
X137186000Y-123851000D02*
X137287000Y-123851000D01*
X137287000Y-123851000D02*
X136678000Y-124460000D01*
X132588000Y-121060000D02*
X134395000Y-121060000D01*
X136678000Y-124460000D02*
X132588000Y-124460000D01*
%TO.N,GNDD*%
X155448000Y-105283000D02*
X155448000Y-107696000D01*
X152038000Y-103232000D02*
X152019000Y-103251000D01*
X153729000Y-103232000D02*
X152038000Y-103232000D01*
X154997000Y-104832000D02*
X155448000Y-105283000D01*
X157480000Y-107696000D02*
X157480000Y-118618000D01*
X152076000Y-104832000D02*
X152019000Y-104775000D01*
X153729000Y-104832000D02*
X152076000Y-104832000D01*
X153729000Y-104832000D02*
X154997000Y-104832000D01*
X157480000Y-118618000D02*
X156210000Y-119888000D01*
%TO.N,Net-(D3-A)*%
X127508000Y-102235000D02*
X130466500Y-102235000D01*
X126873000Y-101600000D02*
X127508000Y-102235000D01*
X124231500Y-101600000D02*
X126873000Y-101600000D01*
%TO.N,Net-(D1-A)*%
X130518500Y-104267000D02*
X124231500Y-104267000D01*
%TO.N,Net-(U4-PB6{slash}XTAL1)*%
X155194000Y-101600000D02*
X156464000Y-100330000D01*
X153035000Y-91821000D02*
X151638000Y-90424000D01*
X151638000Y-90424000D02*
X142435000Y-90424000D01*
X156464000Y-100330000D02*
X156464000Y-97917000D01*
X135128000Y-97762000D02*
X134592000Y-97762000D01*
X134592000Y-97762000D02*
X134239000Y-97409000D01*
X156464000Y-97917000D02*
X153035000Y-94488000D01*
X137922000Y-92202000D02*
X140657000Y-92202000D01*
X154436000Y-101600000D02*
X155194000Y-101600000D01*
X153035000Y-94488000D02*
X153035000Y-91821000D01*
X142435000Y-90424000D02*
X140657000Y-92202000D01*
X134239000Y-95885000D02*
X137922000Y-92202000D01*
X134239000Y-97409000D02*
X134239000Y-95885000D01*
X154404000Y-101632000D02*
X154436000Y-101600000D01*
X153729000Y-101632000D02*
X154404000Y-101632000D01*
%TO.N,Net-(U4-PB7{slash}XTAL2)*%
X153729000Y-100832000D02*
X153729000Y-96774000D01*
X143597000Y-97762000D02*
X149157000Y-92202000D01*
X136652000Y-97762000D02*
X143597000Y-97762000D01*
X153729000Y-96774000D02*
X149157000Y-92202000D01*
%TO.N,ADC1*%
X145229000Y-102432000D02*
X147136000Y-102432000D01*
X147136000Y-102432000D02*
X147193000Y-102489000D01*
%TO.N,Net-(U4-AREF)*%
X146793000Y-103232000D02*
X146812000Y-103251000D01*
X159372000Y-104381000D02*
X159372000Y-105029000D01*
X158877000Y-103886000D02*
X159372000Y-104381000D01*
X145229000Y-103232000D02*
X146793000Y-103232000D01*
%TO.N,ADC2*%
X146628000Y-104832000D02*
X146685000Y-104775000D01*
X145229000Y-104832000D02*
X146628000Y-104832000D01*
%TD*%
%TA.AperFunction,Conductor*%
%TO.N,GNDD*%
G36*
X158695705Y-107207685D02*
G01*
X158741460Y-107260489D01*
X158752637Y-107309305D01*
X158823016Y-110546776D01*
X158871093Y-112758303D01*
X158877000Y-113030000D01*
X156718000Y-112903000D01*
X156718000Y-112758302D01*
X156718000Y-110600708D01*
X156732452Y-110546776D01*
X156731426Y-110546351D01*
X156763054Y-110469992D01*
X156795044Y-110392762D01*
X156810500Y-110275361D01*
X156815682Y-110236000D01*
X156811561Y-110204697D01*
X156810500Y-110188512D01*
X156810500Y-107312000D01*
X156830185Y-107244961D01*
X156882989Y-107199206D01*
X156934500Y-107188000D01*
X158628666Y-107188000D01*
X158695705Y-107207685D01*
G37*
%TD.AperFunction*%
%TD*%
%TA.AperFunction,Conductor*%
%TO.N,GNDD*%
G36*
X152375858Y-102762685D02*
G01*
X152421613Y-102815489D01*
X152432108Y-102880255D01*
X152429001Y-102909153D01*
X152429000Y-102909172D01*
X152429000Y-102982000D01*
X152447591Y-102982000D01*
X152514630Y-103001685D01*
X152546855Y-103031686D01*
X152571454Y-103064546D01*
X152571455Y-103064546D01*
X152571456Y-103064548D01*
X152662540Y-103132734D01*
X152704411Y-103188668D01*
X152709395Y-103258359D01*
X152675909Y-103319682D01*
X152662540Y-103331266D01*
X152571456Y-103399451D01*
X152571454Y-103399454D01*
X152546856Y-103432312D01*
X152490924Y-103474182D01*
X152447591Y-103482000D01*
X152429000Y-103482000D01*
X152429000Y-103554844D01*
X152435619Y-103616398D01*
X152435620Y-103642909D01*
X152434909Y-103649514D01*
X152434909Y-103649517D01*
X152428500Y-103709127D01*
X152428500Y-103709134D01*
X152428500Y-103709135D01*
X152428500Y-104354870D01*
X152428501Y-104354876D01*
X152435619Y-104421092D01*
X152435619Y-104447599D01*
X152429000Y-104509169D01*
X152429000Y-104582000D01*
X152447591Y-104582000D01*
X152514630Y-104601685D01*
X152546855Y-104631686D01*
X152571454Y-104664546D01*
X152571455Y-104664546D01*
X152571456Y-104664548D01*
X152662540Y-104732734D01*
X152704411Y-104788668D01*
X152709395Y-104858359D01*
X152675909Y-104919682D01*
X152662540Y-104931266D01*
X152571456Y-104999451D01*
X152571454Y-104999454D01*
X152546856Y-105032312D01*
X152490924Y-105074182D01*
X152447591Y-105082000D01*
X152429000Y-105082000D01*
X152429000Y-105154844D01*
X152435619Y-105216398D01*
X152435620Y-105242909D01*
X152434909Y-105249514D01*
X152434909Y-105249517D01*
X152428500Y-105309127D01*
X152428500Y-105309134D01*
X152428500Y-105309135D01*
X152428500Y-105413000D01*
X152408815Y-105480039D01*
X152356011Y-105525794D01*
X152304500Y-105537000D01*
X150492000Y-105537000D01*
X150424961Y-105517315D01*
X150379206Y-105464511D01*
X150368000Y-105413000D01*
X150368000Y-102867000D01*
X150387685Y-102799961D01*
X150440489Y-102754206D01*
X150492000Y-102743000D01*
X152308819Y-102743000D01*
X152375858Y-102762685D01*
G37*
%TD.AperFunction*%
%TD*%
%TA.AperFunction,Conductor*%
%TO.N,GNDD*%
G36*
X168218039Y-87395685D02*
G01*
X168263794Y-87448489D01*
X168275000Y-87500000D01*
X168275000Y-92078000D01*
X168255315Y-92145039D01*
X168202511Y-92190794D01*
X168151000Y-92202000D01*
X156083000Y-92202000D01*
X156083000Y-93615549D01*
X156063315Y-93682588D01*
X156046682Y-93703230D01*
X155959242Y-93790670D01*
X155876267Y-93927929D01*
X155876265Y-93927933D01*
X155828548Y-94081065D01*
X155822500Y-94147621D01*
X155822500Y-94574388D01*
X155828546Y-94640926D01*
X155828548Y-94640933D01*
X155876265Y-94794066D01*
X155876267Y-94794070D01*
X155959242Y-94931329D01*
X155959246Y-94931334D01*
X156046681Y-95018769D01*
X156080166Y-95080092D01*
X156083000Y-95106450D01*
X156083000Y-95224689D01*
X156063315Y-95291728D01*
X156010511Y-95337483D01*
X155988677Y-95345085D01*
X155959777Y-95352208D01*
X155959774Y-95352209D01*
X155809150Y-95431263D01*
X155681816Y-95544072D01*
X155585182Y-95684068D01*
X155524860Y-95843125D01*
X155524857Y-95843140D01*
X155524642Y-95844912D01*
X155524124Y-95846114D01*
X155523065Y-95850412D01*
X155522349Y-95850235D01*
X155497013Y-95909087D01*
X155439074Y-95948136D01*
X155369221Y-95949663D01*
X155313867Y-95917632D01*
X153671819Y-94275584D01*
X153638334Y-94214261D01*
X153635500Y-94187903D01*
X153635500Y-91868487D01*
X153636561Y-91852301D01*
X153640682Y-91820999D01*
X153640682Y-91820998D01*
X153620044Y-91664239D01*
X153620044Y-91664238D01*
X153559536Y-91518159D01*
X153463282Y-91392718D01*
X153463280Y-91392716D01*
X153463279Y-91392715D01*
X153438228Y-91373493D01*
X153426034Y-91362799D01*
X152096199Y-90032964D01*
X152085504Y-90020769D01*
X152066283Y-89995719D01*
X152066279Y-89995716D01*
X151940841Y-89899464D01*
X151794762Y-89838956D01*
X151794760Y-89838955D01*
X151677361Y-89823500D01*
X151638000Y-89818318D01*
X151606697Y-89822439D01*
X151590513Y-89823500D01*
X142482487Y-89823500D01*
X142466302Y-89822439D01*
X142435000Y-89818318D01*
X142395639Y-89823500D01*
X142278239Y-89838955D01*
X142278237Y-89838956D01*
X142132157Y-89899464D01*
X142006718Y-89995716D01*
X141987489Y-90020775D01*
X141976798Y-90032965D01*
X141344582Y-90665181D01*
X141283259Y-90698666D01*
X141256901Y-90701500D01*
X138359129Y-90701500D01*
X138359123Y-90701501D01*
X138299516Y-90707908D01*
X138164671Y-90758202D01*
X138164664Y-90758206D01*
X138049455Y-90844452D01*
X138049452Y-90844455D01*
X137963206Y-90959664D01*
X137963202Y-90959671D01*
X137912908Y-91094517D01*
X137906501Y-91154116D01*
X137906500Y-91154135D01*
X137906500Y-91489613D01*
X137886815Y-91556652D01*
X137834011Y-91602407D01*
X137798687Y-91612552D01*
X137765238Y-91616956D01*
X137619160Y-91677463D01*
X137493714Y-91773721D01*
X137474495Y-91798769D01*
X137463800Y-91810964D01*
X133847965Y-95426798D01*
X133835775Y-95437489D01*
X133810717Y-95456718D01*
X133755038Y-95529283D01*
X133755036Y-95529285D01*
X133714464Y-95582157D01*
X133714461Y-95582163D01*
X133653957Y-95728234D01*
X133653955Y-95728239D01*
X133633318Y-95884998D01*
X133633318Y-95884999D01*
X133637439Y-95916301D01*
X133638500Y-95932487D01*
X133638500Y-96600292D01*
X133618815Y-96667331D01*
X133566011Y-96713086D01*
X133500527Y-96722501D01*
X133500442Y-96723339D01*
X133497087Y-96722996D01*
X133496853Y-96723030D01*
X133496098Y-96722895D01*
X133394346Y-96712500D01*
X132797662Y-96712500D01*
X132797644Y-96712501D01*
X132698292Y-96722650D01*
X132698289Y-96722651D01*
X132537305Y-96775996D01*
X132537294Y-96776001D01*
X132392959Y-96865029D01*
X132392955Y-96865032D01*
X132273031Y-96984956D01*
X132261535Y-97003596D01*
X132209588Y-97050321D01*
X132155996Y-97062500D01*
X131750004Y-97062500D01*
X131682965Y-97042815D01*
X131644465Y-97003596D01*
X131632968Y-96984956D01*
X131513044Y-96865032D01*
X131513040Y-96865029D01*
X131368705Y-96776001D01*
X131368699Y-96775998D01*
X131368697Y-96775997D01*
X131325494Y-96761681D01*
X131207709Y-96722651D01*
X131108346Y-96712500D01*
X130511662Y-96712500D01*
X130511644Y-96712501D01*
X130412292Y-96722650D01*
X130412289Y-96722651D01*
X130251305Y-96775996D01*
X130251294Y-96776001D01*
X130106959Y-96865029D01*
X130106955Y-96865032D01*
X129987031Y-96984956D01*
X129975535Y-97003596D01*
X129923588Y-97050321D01*
X129869996Y-97062500D01*
X129367004Y-97062500D01*
X129299965Y-97042815D01*
X129261465Y-97003596D01*
X129249968Y-96984956D01*
X129130044Y-96865032D01*
X129130040Y-96865029D01*
X128985705Y-96776001D01*
X128985699Y-96775998D01*
X128985697Y-96775997D01*
X128942494Y-96761681D01*
X128824709Y-96722651D01*
X128725352Y-96712500D01*
X128725345Y-96712500D01*
X128377097Y-96712500D01*
X128310058Y-96692815D01*
X128289416Y-96676181D01*
X127001819Y-95388584D01*
X126968334Y-95327261D01*
X126965500Y-95300903D01*
X126965500Y-93137097D01*
X126985185Y-93070058D01*
X127001819Y-93049416D01*
X128342416Y-91708819D01*
X128403739Y-91675334D01*
X128430097Y-91672500D01*
X129742996Y-91672500D01*
X129810035Y-91692185D01*
X129848535Y-91731404D01*
X129860031Y-91750043D01*
X129979955Y-91869967D01*
X129979959Y-91869970D01*
X130124294Y-91958998D01*
X130124297Y-91958999D01*
X130124303Y-91959003D01*
X130285292Y-92012349D01*
X130384655Y-92022500D01*
X130981344Y-92022499D01*
X130981352Y-92022498D01*
X130981355Y-92022498D01*
X131035760Y-92016940D01*
X131080708Y-92012349D01*
X131241697Y-91959003D01*
X131386044Y-91869968D01*
X131505968Y-91750044D01*
X131517465Y-91731403D01*
X131569412Y-91684679D01*
X131623004Y-91672500D01*
X131774996Y-91672500D01*
X131842035Y-91692185D01*
X131880535Y-91731404D01*
X131892031Y-91750043D01*
X132011955Y-91869967D01*
X132011959Y-91869970D01*
X132156294Y-91958998D01*
X132156297Y-91958999D01*
X132156303Y-91959003D01*
X132317292Y-92012349D01*
X132416655Y-92022500D01*
X133013344Y-92022499D01*
X133013352Y-92022498D01*
X133013355Y-92022498D01*
X133067760Y-92016940D01*
X133112708Y-92012349D01*
X133273697Y-91959003D01*
X133418044Y-91869968D01*
X133537968Y-91750044D01*
X133549465Y-91731403D01*
X133601412Y-91684679D01*
X133655004Y-91672500D01*
X133823243Y-91672500D01*
X133890282Y-91692185D01*
X133920507Y-91719587D01*
X133924029Y-91724041D01*
X134043955Y-91843967D01*
X134043959Y-91843970D01*
X134188294Y-91932998D01*
X134188297Y-91932999D01*
X134188303Y-91933003D01*
X134349292Y-91986349D01*
X134448655Y-91996500D01*
X135045344Y-91996499D01*
X135045352Y-91996498D01*
X135045355Y-91996498D01*
X135099760Y-91990940D01*
X135144708Y-91986349D01*
X135305697Y-91933003D01*
X135450044Y-91843968D01*
X135569968Y-91724044D01*
X135659003Y-91579697D01*
X135712349Y-91418708D01*
X135722500Y-91319345D01*
X135722499Y-90772656D01*
X135715230Y-90701500D01*
X135712349Y-90673292D01*
X135712348Y-90673289D01*
X135670654Y-90547464D01*
X135659003Y-90512303D01*
X135658999Y-90512297D01*
X135658998Y-90512294D01*
X135569970Y-90367959D01*
X135569967Y-90367955D01*
X135450044Y-90248032D01*
X135450040Y-90248029D01*
X135305705Y-90159001D01*
X135305699Y-90158998D01*
X135305697Y-90158997D01*
X135223172Y-90131651D01*
X135144709Y-90105651D01*
X135045346Y-90095500D01*
X134448662Y-90095500D01*
X134448644Y-90095501D01*
X134349292Y-90105650D01*
X134349289Y-90105651D01*
X134188305Y-90158996D01*
X134188294Y-90159001D01*
X134043959Y-90248029D01*
X134043955Y-90248032D01*
X133924031Y-90367956D01*
X133896498Y-90412596D01*
X133844550Y-90459321D01*
X133790959Y-90471500D01*
X133655004Y-90471500D01*
X133587965Y-90451815D01*
X133549465Y-90412596D01*
X133537968Y-90393956D01*
X133418044Y-90274032D01*
X133418040Y-90274029D01*
X133273705Y-90185001D01*
X133273699Y-90184998D01*
X133273697Y-90184997D01*
X133195246Y-90159001D01*
X133112709Y-90131651D01*
X133013346Y-90121500D01*
X132416662Y-90121500D01*
X132416644Y-90121501D01*
X132317292Y-90131650D01*
X132317289Y-90131651D01*
X132156305Y-90184996D01*
X132156294Y-90185001D01*
X132011959Y-90274029D01*
X132011955Y-90274032D01*
X131892031Y-90393956D01*
X131880535Y-90412596D01*
X131828588Y-90459321D01*
X131774996Y-90471500D01*
X131623004Y-90471500D01*
X131555965Y-90451815D01*
X131517465Y-90412596D01*
X131505968Y-90393956D01*
X131386044Y-90274032D01*
X131386040Y-90274029D01*
X131241705Y-90185001D01*
X131241699Y-90184998D01*
X131241697Y-90184997D01*
X131163246Y-90159001D01*
X131080709Y-90131651D01*
X130981346Y-90121500D01*
X130384662Y-90121500D01*
X130384644Y-90121501D01*
X130285292Y-90131650D01*
X130285289Y-90131651D01*
X130124305Y-90184996D01*
X130124294Y-90185001D01*
X129979959Y-90274029D01*
X129979955Y-90274032D01*
X129860031Y-90393956D01*
X129848535Y-90412596D01*
X129796588Y-90459321D01*
X129742996Y-90471500D01*
X128177487Y-90471500D01*
X128161302Y-90470439D01*
X128130000Y-90466318D01*
X128090639Y-90471500D01*
X127973239Y-90486955D01*
X127973237Y-90486956D01*
X127827160Y-90547463D01*
X127701714Y-90643721D01*
X127682495Y-90668769D01*
X127671800Y-90680964D01*
X125973965Y-92378798D01*
X125961775Y-92389489D01*
X125936716Y-92408718D01*
X125840464Y-92534157D01*
X125779956Y-92680237D01*
X125779955Y-92680239D01*
X125759318Y-92836998D01*
X125759318Y-92836999D01*
X125763439Y-92868301D01*
X125764500Y-92884487D01*
X125764500Y-94876500D01*
X125744815Y-94943539D01*
X125692011Y-94989294D01*
X125640500Y-95000500D01*
X123267487Y-95000500D01*
X123251302Y-94999439D01*
X123220000Y-94995318D01*
X123180639Y-95000500D01*
X123063239Y-95015955D01*
X123063237Y-95015956D01*
X122917157Y-95076464D01*
X122791718Y-95172716D01*
X122772489Y-95197775D01*
X122761798Y-95209965D01*
X120691584Y-97280181D01*
X120630261Y-97313666D01*
X120603903Y-97316500D01*
X120034091Y-97316500D01*
X119967052Y-97296815D01*
X119921711Y-97244909D01*
X119919037Y-97239175D01*
X119919034Y-97239170D01*
X119919033Y-97239169D01*
X119829906Y-97111881D01*
X119783496Y-97045600D01*
X119722852Y-96984956D01*
X119661567Y-96923671D01*
X119628084Y-96862351D01*
X119633068Y-96792659D01*
X119674939Y-96736725D01*
X119705915Y-96719810D01*
X119837331Y-96670796D01*
X119952546Y-96584546D01*
X120038796Y-96469331D01*
X120089091Y-96334483D01*
X120095500Y-96274873D01*
X120095499Y-94479128D01*
X120089091Y-94419517D01*
X120038796Y-94284669D01*
X120038795Y-94284668D01*
X120038793Y-94284664D01*
X119952547Y-94169455D01*
X119952544Y-94169452D01*
X119837335Y-94083206D01*
X119837328Y-94083202D01*
X119702482Y-94032908D01*
X119702483Y-94032908D01*
X119642883Y-94026501D01*
X119642881Y-94026500D01*
X119642873Y-94026500D01*
X119642864Y-94026500D01*
X117847129Y-94026500D01*
X117847123Y-94026501D01*
X117787516Y-94032908D01*
X117652671Y-94083202D01*
X117652664Y-94083206D01*
X117537455Y-94169452D01*
X117537452Y-94169455D01*
X117451206Y-94284664D01*
X117451202Y-94284671D01*
X117400908Y-94419517D01*
X117397240Y-94453641D01*
X117394501Y-94479123D01*
X117394500Y-94479135D01*
X117394500Y-96274870D01*
X117394501Y-96274876D01*
X117400908Y-96334483D01*
X117451202Y-96469328D01*
X117451206Y-96469335D01*
X117537452Y-96584544D01*
X117537455Y-96584547D01*
X117652664Y-96670793D01*
X117652671Y-96670797D01*
X117784081Y-96719810D01*
X117840015Y-96761681D01*
X117864432Y-96827145D01*
X117849580Y-96895418D01*
X117828430Y-96923673D01*
X117706503Y-97045600D01*
X117570965Y-97239169D01*
X117570964Y-97239171D01*
X117471098Y-97453335D01*
X117471094Y-97453344D01*
X117409938Y-97681586D01*
X117409936Y-97681596D01*
X117389341Y-97916999D01*
X117389341Y-97917000D01*
X117409936Y-98152403D01*
X117409938Y-98152413D01*
X117471094Y-98380655D01*
X117471096Y-98380659D01*
X117471097Y-98380663D01*
X117550060Y-98550000D01*
X117570965Y-98594830D01*
X117570967Y-98594834D01*
X117706501Y-98788395D01*
X117706506Y-98788402D01*
X117873597Y-98955493D01*
X117873603Y-98955498D01*
X118059158Y-99085425D01*
X118102783Y-99140002D01*
X118109977Y-99209500D01*
X118078454Y-99271855D01*
X118059158Y-99288575D01*
X117873597Y-99418505D01*
X117706505Y-99585597D01*
X117570965Y-99779169D01*
X117570964Y-99779171D01*
X117471098Y-99993335D01*
X117471094Y-99993344D01*
X117409938Y-100221586D01*
X117409936Y-100221596D01*
X117389341Y-100456999D01*
X117389341Y-100457000D01*
X117409936Y-100692403D01*
X117409938Y-100692413D01*
X117471094Y-100920655D01*
X117471096Y-100920659D01*
X117471097Y-100920663D01*
X117558033Y-101107098D01*
X117570965Y-101134830D01*
X117570967Y-101134834D01*
X117706501Y-101328395D01*
X117706506Y-101328402D01*
X117873597Y-101495493D01*
X117873603Y-101495498D01*
X118059158Y-101625425D01*
X118102783Y-101680002D01*
X118109977Y-101749500D01*
X118078454Y-101811855D01*
X118059158Y-101828575D01*
X117873597Y-101958505D01*
X117706505Y-102125597D01*
X117570965Y-102319169D01*
X117570964Y-102319171D01*
X117471098Y-102533335D01*
X117471094Y-102533344D01*
X117409938Y-102761586D01*
X117409936Y-102761596D01*
X117389341Y-102996999D01*
X117389341Y-102997000D01*
X117409936Y-103232403D01*
X117409938Y-103232413D01*
X117471094Y-103460655D01*
X117471096Y-103460659D01*
X117471097Y-103460663D01*
X117554847Y-103640264D01*
X117570965Y-103674830D01*
X117570967Y-103674834D01*
X117706501Y-103868395D01*
X117706506Y-103868402D01*
X117873597Y-104035493D01*
X117873603Y-104035498D01*
X118059158Y-104165425D01*
X118102783Y-104220002D01*
X118109977Y-104289500D01*
X118078454Y-104351855D01*
X118059158Y-104368575D01*
X117873597Y-104498505D01*
X117706505Y-104665597D01*
X117570965Y-104859169D01*
X117570964Y-104859171D01*
X117471098Y-105073335D01*
X117471094Y-105073344D01*
X117409938Y-105301586D01*
X117409936Y-105301596D01*
X117389341Y-105536999D01*
X117389341Y-105537000D01*
X117409936Y-105772403D01*
X117409938Y-105772413D01*
X117471094Y-106000655D01*
X117471096Y-106000659D01*
X117471097Y-106000663D01*
X117534943Y-106137580D01*
X117570965Y-106214830D01*
X117570967Y-106214834D01*
X117642646Y-106317201D01*
X117706505Y-106408401D01*
X117873599Y-106575495D01*
X117950432Y-106629294D01*
X118067165Y-106711032D01*
X118067167Y-106711033D01*
X118067170Y-106711035D01*
X118281337Y-106810903D01*
X118509592Y-106872063D01*
X118697918Y-106888539D01*
X118744999Y-106892659D01*
X118745000Y-106892659D01*
X118745001Y-106892659D01*
X118784234Y-106889226D01*
X118980408Y-106872063D01*
X119208663Y-106810903D01*
X119422830Y-106711035D01*
X119616401Y-106575495D01*
X119783495Y-106408401D01*
X119919035Y-106214830D01*
X119921707Y-106209097D01*
X119967878Y-106156658D01*
X120034091Y-106137500D01*
X128350903Y-106137500D01*
X128417942Y-106157185D01*
X128438584Y-106173819D01*
X136650181Y-114385416D01*
X136683666Y-114446739D01*
X136686500Y-114473097D01*
X136686500Y-118851199D01*
X136666815Y-118918238D01*
X136664551Y-118921638D01*
X136662182Y-118925069D01*
X136601860Y-119084125D01*
X136601859Y-119084130D01*
X136581355Y-119253000D01*
X136601859Y-119421869D01*
X136601860Y-119421874D01*
X136638745Y-119519131D01*
X136662182Y-119580930D01*
X136664549Y-119584360D01*
X136665509Y-119587269D01*
X136665668Y-119587572D01*
X136665617Y-119587598D01*
X136686433Y-119650713D01*
X136686500Y-119654800D01*
X136686500Y-121370574D01*
X136666815Y-121437613D01*
X136627598Y-121476112D01*
X136583957Y-121503030D01*
X136464029Y-121622959D01*
X136375001Y-121767294D01*
X136374996Y-121767305D01*
X136332836Y-121894537D01*
X136293063Y-121951982D01*
X136228547Y-121978805D01*
X136159772Y-121966490D01*
X136127449Y-121943214D01*
X134853199Y-120668964D01*
X134842504Y-120656769D01*
X134823283Y-120631719D01*
X134798515Y-120612714D01*
X134697841Y-120535464D01*
X134642770Y-120512653D01*
X134551762Y-120474956D01*
X134551760Y-120474955D01*
X134434361Y-120459500D01*
X134395000Y-120454318D01*
X134363697Y-120458439D01*
X134347513Y-120459500D01*
X134002141Y-120459500D01*
X133935102Y-120439815D01*
X133889347Y-120387011D01*
X133885969Y-120378859D01*
X133881796Y-120367669D01*
X133881793Y-120367665D01*
X133881793Y-120367664D01*
X133795547Y-120252455D01*
X133795544Y-120252452D01*
X133680335Y-120166206D01*
X133680328Y-120166202D01*
X133545482Y-120115908D01*
X133545483Y-120115908D01*
X133485883Y-120109501D01*
X133485881Y-120109500D01*
X133485873Y-120109500D01*
X133485864Y-120109500D01*
X131690129Y-120109500D01*
X131690123Y-120109501D01*
X131630516Y-120115908D01*
X131495671Y-120166202D01*
X131495664Y-120166206D01*
X131380455Y-120252452D01*
X131380452Y-120252455D01*
X131294206Y-120367664D01*
X131294202Y-120367671D01*
X131243908Y-120502517D01*
X131237501Y-120562116D01*
X131237500Y-120562135D01*
X131237500Y-121557870D01*
X131237501Y-121557876D01*
X131243908Y-121617483D01*
X131294202Y-121752328D01*
X131294206Y-121752335D01*
X131380452Y-121867544D01*
X131380455Y-121867547D01*
X131495664Y-121953793D01*
X131495671Y-121953797D01*
X131630517Y-122004091D01*
X131630516Y-122004091D01*
X131637444Y-122004835D01*
X131690127Y-122010500D01*
X133485872Y-122010499D01*
X133545483Y-122004091D01*
X133680331Y-121953796D01*
X133795546Y-121867546D01*
X133881796Y-121752331D01*
X133885960Y-121741165D01*
X133927829Y-121685234D01*
X133993293Y-121660816D01*
X134002141Y-121660500D01*
X134094903Y-121660500D01*
X134161942Y-121680185D01*
X134182584Y-121696819D01*
X136133584Y-123647819D01*
X136167069Y-123709142D01*
X136162085Y-123778834D01*
X136120213Y-123834767D01*
X136054749Y-123859184D01*
X136045903Y-123859500D01*
X134002141Y-123859500D01*
X133935102Y-123839815D01*
X133889347Y-123787011D01*
X133885969Y-123778859D01*
X133881796Y-123767669D01*
X133881793Y-123767665D01*
X133881793Y-123767664D01*
X133795547Y-123652455D01*
X133795544Y-123652452D01*
X133680335Y-123566206D01*
X133680328Y-123566202D01*
X133545482Y-123515908D01*
X133545483Y-123515908D01*
X133485883Y-123509501D01*
X133485881Y-123509500D01*
X133485873Y-123509500D01*
X133485864Y-123509500D01*
X131690129Y-123509500D01*
X131690123Y-123509501D01*
X131630516Y-123515908D01*
X131495671Y-123566202D01*
X131495664Y-123566206D01*
X131380455Y-123652452D01*
X131380452Y-123652455D01*
X131294206Y-123767664D01*
X131294202Y-123767671D01*
X131243908Y-123902517D01*
X131237501Y-123962116D01*
X131237500Y-123962135D01*
X131237500Y-124957870D01*
X131237501Y-124957876D01*
X131243908Y-125017483D01*
X131294202Y-125152328D01*
X131294206Y-125152335D01*
X131380452Y-125267544D01*
X131380455Y-125267547D01*
X131495664Y-125353793D01*
X131495671Y-125353797D01*
X131630517Y-125404091D01*
X131630516Y-125404091D01*
X131637444Y-125404835D01*
X131690127Y-125410500D01*
X133485872Y-125410499D01*
X133545483Y-125404091D01*
X133680331Y-125353796D01*
X133795546Y-125267546D01*
X133881796Y-125152331D01*
X133885960Y-125141165D01*
X133927829Y-125085234D01*
X133993293Y-125060816D01*
X134002141Y-125060500D01*
X136630513Y-125060500D01*
X136646697Y-125061560D01*
X136678000Y-125065682D01*
X136678001Y-125065682D01*
X136751793Y-125055967D01*
X136834762Y-125045044D01*
X136980841Y-124984536D01*
X137023941Y-124951464D01*
X137106282Y-124888282D01*
X137125509Y-124863223D01*
X137136186Y-124851047D01*
X137149421Y-124837812D01*
X137210743Y-124804332D01*
X137237097Y-124801499D01*
X137585338Y-124801499D01*
X137585344Y-124801499D01*
X137585352Y-124801498D01*
X137585355Y-124801498D01*
X137639760Y-124795940D01*
X137684708Y-124791349D01*
X137845697Y-124738003D01*
X137990044Y-124648968D01*
X138109968Y-124529044D01*
X138199003Y-124384697D01*
X138252349Y-124223708D01*
X138262500Y-124124345D01*
X138262499Y-123577656D01*
X138261329Y-123566206D01*
X138252349Y-123478292D01*
X138252348Y-123478289D01*
X138209300Y-123348378D01*
X138199003Y-123317303D01*
X138198999Y-123317297D01*
X138198998Y-123317294D01*
X138109970Y-123172959D01*
X138109967Y-123172955D01*
X138100693Y-123163681D01*
X138067208Y-123102358D01*
X138072192Y-123032666D01*
X138100693Y-122988319D01*
X138109968Y-122979044D01*
X138199003Y-122834697D01*
X138252349Y-122673708D01*
X138262500Y-122574345D01*
X138262499Y-122027656D01*
X138260746Y-122010499D01*
X138252349Y-121928292D01*
X138252348Y-121928289D01*
X138229450Y-121859187D01*
X138199003Y-121767303D01*
X138198999Y-121767297D01*
X138198998Y-121767294D01*
X138109970Y-121622959D01*
X138109969Y-121622958D01*
X138109968Y-121622956D01*
X137990044Y-121503032D01*
X137990043Y-121503031D01*
X137990042Y-121503030D01*
X137946402Y-121476112D01*
X137899678Y-121424163D01*
X137887500Y-121370574D01*
X137887500Y-119654800D01*
X137907185Y-119587761D01*
X137909429Y-119584389D01*
X137911818Y-119580930D01*
X137972140Y-119421872D01*
X137992645Y-119253000D01*
X137972140Y-119084128D01*
X137911818Y-118925070D01*
X137909448Y-118921637D01*
X137908489Y-118918727D01*
X137908331Y-118918426D01*
X137908381Y-118918399D01*
X137887567Y-118855283D01*
X137887500Y-118851199D01*
X137887500Y-114220487D01*
X137888561Y-114204301D01*
X137892682Y-114172999D01*
X137892682Y-114172998D01*
X137872044Y-114016239D01*
X137872042Y-114016234D01*
X137811538Y-113870163D01*
X137811535Y-113870158D01*
X137776628Y-113824666D01*
X137715281Y-113744717D01*
X137690228Y-113725493D01*
X137678034Y-113714799D01*
X135672416Y-111709181D01*
X135638931Y-111647858D01*
X135643915Y-111578166D01*
X135685787Y-111522233D01*
X135751251Y-111497816D01*
X135760097Y-111497500D01*
X136315770Y-111497500D01*
X136382809Y-111517185D01*
X136403451Y-111533819D01*
X139564181Y-114694548D01*
X139597666Y-114755871D01*
X139600500Y-114782229D01*
X139600500Y-120070019D01*
X139611001Y-120172801D01*
X139666184Y-120339333D01*
X139666189Y-120339344D01*
X139758285Y-120488653D01*
X139758288Y-120488657D01*
X139882342Y-120612711D01*
X139882346Y-120612714D01*
X140031655Y-120704810D01*
X140031658Y-120704811D01*
X140031664Y-120704815D01*
X140198200Y-120759999D01*
X140300988Y-120770500D01*
X140300991Y-120770500D01*
X142126500Y-120770500D01*
X142193539Y-120790185D01*
X142239294Y-120842989D01*
X142250500Y-120894500D01*
X142250500Y-121816042D01*
X142230815Y-121883081D01*
X142191598Y-121921580D01*
X142182344Y-121927287D01*
X142058289Y-122051342D01*
X141966187Y-122200663D01*
X141966185Y-122200668D01*
X141947174Y-122258041D01*
X141911001Y-122367203D01*
X141911001Y-122367204D01*
X141911000Y-122367204D01*
X141900500Y-122469983D01*
X141900500Y-124270001D01*
X141900501Y-124270018D01*
X141911000Y-124372796D01*
X141911001Y-124372799D01*
X141966185Y-124539331D01*
X141966187Y-124539336D01*
X141980472Y-124562495D01*
X142033808Y-124648968D01*
X142058289Y-124688657D01*
X142182344Y-124812712D01*
X142278409Y-124871965D01*
X142321667Y-124919169D01*
X142321796Y-124919085D01*
X142322318Y-124919878D01*
X142324119Y-124921844D01*
X142325762Y-124925116D01*
X142366979Y-124987784D01*
X142368889Y-124990782D01*
X142399972Y-125041174D01*
X142408289Y-125054658D01*
X142412766Y-125060319D01*
X142412719Y-125060356D01*
X142417482Y-125066202D01*
X142417528Y-125066164D01*
X142422173Y-125071699D01*
X142476707Y-125123149D01*
X142479295Y-125125663D01*
X143125951Y-125772319D01*
X143159436Y-125833642D01*
X143154452Y-125903334D01*
X143112580Y-125959267D01*
X143047116Y-125983684D01*
X143038270Y-125984000D01*
X116327782Y-125984000D01*
X116260743Y-125964315D01*
X116214988Y-125911511D01*
X116203788Y-125861224D01*
X116199277Y-125404091D01*
X116178990Y-123348378D01*
X116198012Y-123281150D01*
X116250362Y-123234876D01*
X116319419Y-123224251D01*
X116383258Y-123252647D01*
X116394213Y-123263174D01*
X116400256Y-123269738D01*
X116596491Y-123422474D01*
X116815190Y-123540828D01*
X117050386Y-123621571D01*
X117295665Y-123662500D01*
X117544335Y-123662500D01*
X117789614Y-123621571D01*
X118024810Y-123540828D01*
X118243509Y-123422474D01*
X118256966Y-123412000D01*
X120864417Y-123412000D01*
X120884699Y-123617932D01*
X120898219Y-123662500D01*
X120944768Y-123815954D01*
X121042315Y-123998450D01*
X121042317Y-123998452D01*
X121173589Y-124158410D01*
X121270209Y-124237702D01*
X121333550Y-124289685D01*
X121516046Y-124387232D01*
X121714066Y-124447300D01*
X121714065Y-124447300D01*
X121752647Y-124451100D01*
X121868392Y-124462500D01*
X121868395Y-124462500D01*
X121971605Y-124462500D01*
X121971608Y-124462500D01*
X122125934Y-124447300D01*
X122323954Y-124387232D01*
X122506450Y-124289685D01*
X122666410Y-124158410D01*
X122797685Y-123998450D01*
X122895232Y-123815954D01*
X122955300Y-123617934D01*
X122975583Y-123412000D01*
X122955300Y-123206066D01*
X122895232Y-123008046D01*
X122797685Y-122825550D01*
X122745702Y-122762209D01*
X122666410Y-122665589D01*
X122506452Y-122534317D01*
X122506453Y-122534317D01*
X122506450Y-122534315D01*
X122323954Y-122436768D01*
X122125934Y-122376700D01*
X122125932Y-122376699D01*
X122125934Y-122376699D01*
X122006805Y-122364966D01*
X121971608Y-122361500D01*
X121868392Y-122361500D01*
X121830298Y-122365251D01*
X121714067Y-122376699D01*
X121516043Y-122436769D01*
X121409009Y-122493981D01*
X121333550Y-122534315D01*
X121333548Y-122534316D01*
X121333547Y-122534317D01*
X121173589Y-122665589D01*
X121046158Y-122820867D01*
X121042315Y-122825550D01*
X121037426Y-122834697D01*
X120944769Y-123008043D01*
X120884699Y-123206067D01*
X120864417Y-123412000D01*
X118256966Y-123412000D01*
X118439744Y-123269738D01*
X118608164Y-123086785D01*
X118744173Y-122878607D01*
X118844063Y-122650881D01*
X118905108Y-122409821D01*
X118907853Y-122376700D01*
X118920450Y-122224666D01*
X118920499Y-122224077D01*
X124919500Y-122224077D01*
X124934890Y-122409813D01*
X124934892Y-122409824D01*
X124995936Y-122650881D01*
X125095826Y-122878606D01*
X125231833Y-123086782D01*
X125231836Y-123086785D01*
X125400256Y-123269738D01*
X125596491Y-123422474D01*
X125815190Y-123540828D01*
X126050386Y-123621571D01*
X126295665Y-123662500D01*
X126544335Y-123662500D01*
X126789614Y-123621571D01*
X127024810Y-123540828D01*
X127243509Y-123422474D01*
X127439744Y-123269738D01*
X127608164Y-123086785D01*
X127744173Y-122878607D01*
X127844063Y-122650881D01*
X127905108Y-122409821D01*
X127907853Y-122376700D01*
X127920450Y-122224666D01*
X127920500Y-122224067D01*
X127920500Y-120599933D01*
X127912428Y-120502517D01*
X127905109Y-120414186D01*
X127905107Y-120414175D01*
X127844063Y-120173118D01*
X127744173Y-119945393D01*
X127608166Y-119737217D01*
X127586557Y-119713744D01*
X127439744Y-119554262D01*
X127243509Y-119401526D01*
X127243507Y-119401525D01*
X127243506Y-119401524D01*
X127024811Y-119283172D01*
X127024802Y-119283169D01*
X126789616Y-119202429D01*
X126544335Y-119161500D01*
X126295665Y-119161500D01*
X126050383Y-119202429D01*
X125815197Y-119283169D01*
X125815188Y-119283172D01*
X125596493Y-119401524D01*
X125400257Y-119554261D01*
X125231833Y-119737217D01*
X125095826Y-119945393D01*
X124995936Y-120173118D01*
X124934892Y-120414175D01*
X124934890Y-120414186D01*
X124919500Y-120599922D01*
X124919500Y-122224077D01*
X118920499Y-122224077D01*
X118920500Y-122224067D01*
X118920500Y-120599933D01*
X118912428Y-120502517D01*
X118905109Y-120414186D01*
X118905107Y-120414175D01*
X118844063Y-120173118D01*
X118744173Y-119945393D01*
X118608166Y-119737217D01*
X118586557Y-119713744D01*
X118439744Y-119554262D01*
X118243509Y-119401526D01*
X118243507Y-119401525D01*
X118243506Y-119401524D01*
X118024811Y-119283172D01*
X118024802Y-119283169D01*
X117789616Y-119202429D01*
X117544335Y-119161500D01*
X117295665Y-119161500D01*
X117050383Y-119202429D01*
X116815197Y-119283169D01*
X116815188Y-119283172D01*
X116596493Y-119401524D01*
X116400256Y-119554261D01*
X116356424Y-119601876D01*
X116296537Y-119637866D01*
X116226699Y-119635765D01*
X116169083Y-119596240D01*
X116141982Y-119531841D01*
X116141201Y-119519131D01*
X116101143Y-115459870D01*
X119419500Y-115459870D01*
X119419501Y-115459876D01*
X119425908Y-115519483D01*
X119476202Y-115654328D01*
X119476206Y-115654335D01*
X119562452Y-115769544D01*
X119562455Y-115769547D01*
X119677664Y-115855793D01*
X119677671Y-115855797D01*
X119812517Y-115906091D01*
X119812516Y-115906091D01*
X119819444Y-115906835D01*
X119872127Y-115912500D01*
X123967872Y-115912499D01*
X124027483Y-115906091D01*
X124162331Y-115855796D01*
X124277546Y-115769546D01*
X124363796Y-115654331D01*
X124414091Y-115519483D01*
X124420500Y-115459873D01*
X124420499Y-113364128D01*
X124414091Y-113304517D01*
X124411291Y-113297011D01*
X124363797Y-113169671D01*
X124363793Y-113169664D01*
X124277547Y-113054455D01*
X124277544Y-113054452D01*
X124162335Y-112968206D01*
X124162328Y-112968202D01*
X124027482Y-112917908D01*
X124027483Y-112917908D01*
X123967883Y-112911501D01*
X123967881Y-112911500D01*
X123967873Y-112911500D01*
X123967865Y-112911500D01*
X122961940Y-112911500D01*
X122894901Y-112891815D01*
X122849146Y-112839011D01*
X122839202Y-112769853D01*
X122868227Y-112706297D01*
X122874259Y-112699819D01*
X123280809Y-112293269D01*
X123673826Y-111900252D01*
X123705816Y-111868262D01*
X123726186Y-111835841D01*
X123734211Y-111824530D01*
X123758092Y-111794587D01*
X123774699Y-111760101D01*
X123781427Y-111747928D01*
X123791914Y-111731236D01*
X123801789Y-111715522D01*
X123814432Y-111679385D01*
X123819751Y-111666548D01*
X123828752Y-111647858D01*
X123836360Y-111632061D01*
X123844879Y-111594733D01*
X123848728Y-111581376D01*
X123861368Y-111545255D01*
X123865654Y-111507211D01*
X123867982Y-111493512D01*
X123876500Y-111456194D01*
X123876500Y-111379002D01*
X131070751Y-111379002D01*
X131089685Y-111547056D01*
X131145545Y-111706694D01*
X131145547Y-111706697D01*
X131235518Y-111849884D01*
X131235523Y-111849890D01*
X131355109Y-111969476D01*
X131355115Y-111969481D01*
X131498302Y-112059452D01*
X131498305Y-112059454D01*
X131498309Y-112059455D01*
X131498310Y-112059456D01*
X131509833Y-112063488D01*
X131657943Y-112115314D01*
X131825997Y-112134249D01*
X131826000Y-112134249D01*
X131826003Y-112134249D01*
X131994056Y-112115314D01*
X132006979Y-112110792D01*
X132153690Y-112059456D01*
X132153692Y-112059454D01*
X132153694Y-112059454D01*
X132153697Y-112059452D01*
X132296884Y-111969481D01*
X132296885Y-111969480D01*
X132296890Y-111969477D01*
X132416477Y-111849890D01*
X132432424Y-111824511D01*
X132506452Y-111706697D01*
X132506454Y-111706694D01*
X132506454Y-111706692D01*
X132506456Y-111706690D01*
X132562313Y-111547059D01*
X132562313Y-111547058D01*
X132562314Y-111547056D01*
X132581249Y-111379002D01*
X132581249Y-111378997D01*
X132562314Y-111210943D01*
X132506454Y-111051305D01*
X132506452Y-111051302D01*
X132416481Y-110908115D01*
X132416476Y-110908109D01*
X132296890Y-110788523D01*
X132296884Y-110788518D01*
X132153697Y-110698547D01*
X132153694Y-110698545D01*
X131994056Y-110642685D01*
X131826003Y-110623751D01*
X131825997Y-110623751D01*
X131657943Y-110642685D01*
X131498305Y-110698545D01*
X131498302Y-110698547D01*
X131355115Y-110788518D01*
X131355109Y-110788523D01*
X131235523Y-110908109D01*
X131235518Y-110908115D01*
X131145547Y-111051302D01*
X131145545Y-111051305D01*
X131089685Y-111210943D01*
X131070751Y-111378997D01*
X131070751Y-111379002D01*
X123876500Y-111379002D01*
X123876500Y-111275806D01*
X123876500Y-111085638D01*
X123896185Y-111018599D01*
X123935401Y-110980100D01*
X124044656Y-110912712D01*
X124168712Y-110788656D01*
X124260814Y-110639334D01*
X124315999Y-110472797D01*
X124326500Y-110370009D01*
X124326500Y-110370001D01*
X126625500Y-110370001D01*
X126625501Y-110370018D01*
X126636000Y-110472796D01*
X126636001Y-110472799D01*
X126668117Y-110569718D01*
X126691186Y-110639334D01*
X126783288Y-110788656D01*
X126907344Y-110912712D01*
X127056666Y-111004814D01*
X127223203Y-111059999D01*
X127325991Y-111070500D01*
X128426008Y-111070499D01*
X128426016Y-111070498D01*
X128426019Y-111070498D01*
X128482302Y-111064748D01*
X128528797Y-111059999D01*
X128695334Y-111004814D01*
X128844656Y-110912712D01*
X128968712Y-110788656D01*
X129060814Y-110639334D01*
X129115999Y-110472797D01*
X129126500Y-110370009D01*
X129126500Y-109944500D01*
X129146185Y-109877461D01*
X129198989Y-109831706D01*
X129250500Y-109820500D01*
X129654246Y-109820500D01*
X129711871Y-109834703D01*
X129797775Y-109879790D01*
X129962944Y-109920500D01*
X130133056Y-109920500D01*
X130298225Y-109879790D01*
X130384128Y-109834704D01*
X130448849Y-109800736D01*
X130448850Y-109800734D01*
X130448852Y-109800734D01*
X130576183Y-109687929D01*
X130672818Y-109547930D01*
X130733140Y-109388872D01*
X130753645Y-109220000D01*
X130733140Y-109051128D01*
X130672818Y-108892070D01*
X130576183Y-108752071D01*
X130448852Y-108639266D01*
X130448849Y-108639263D01*
X130298226Y-108560210D01*
X130133056Y-108519500D01*
X129962944Y-108519500D01*
X129797775Y-108560209D01*
X129750542Y-108585000D01*
X129711871Y-108605296D01*
X129654246Y-108619500D01*
X129250499Y-108619500D01*
X129183460Y-108599815D01*
X129137705Y-108547011D01*
X129126499Y-108495500D01*
X129126499Y-108069998D01*
X129126498Y-108069981D01*
X129115999Y-107967203D01*
X129115998Y-107967200D01*
X129090761Y-107891040D01*
X129060814Y-107800666D01*
X128968712Y-107651344D01*
X128844656Y-107527288D01*
X128695334Y-107435186D01*
X128528797Y-107380001D01*
X128528795Y-107380000D01*
X128426010Y-107369500D01*
X127325998Y-107369500D01*
X127325980Y-107369501D01*
X127223203Y-107380000D01*
X127223200Y-107380001D01*
X127056668Y-107435185D01*
X127056663Y-107435187D01*
X126907342Y-107527289D01*
X126783289Y-107651342D01*
X126691187Y-107800663D01*
X126691186Y-107800666D01*
X126636001Y-107967203D01*
X126636001Y-107967204D01*
X126636000Y-107967204D01*
X126625500Y-108069983D01*
X126625500Y-110370001D01*
X124326500Y-110370001D01*
X124326499Y-108069992D01*
X124315999Y-107967203D01*
X124260814Y-107800666D01*
X124168712Y-107651344D01*
X124044656Y-107527288D01*
X123895334Y-107435186D01*
X123728797Y-107380001D01*
X123728795Y-107380000D01*
X123626010Y-107369500D01*
X122525998Y-107369500D01*
X122525980Y-107369501D01*
X122423203Y-107380000D01*
X122423200Y-107380001D01*
X122256668Y-107435185D01*
X122256663Y-107435187D01*
X122107342Y-107527289D01*
X121983289Y-107651342D01*
X121891187Y-107800663D01*
X121891186Y-107800666D01*
X121836001Y-107967203D01*
X121836001Y-107967204D01*
X121836000Y-107967204D01*
X121825500Y-108069983D01*
X121825500Y-110370001D01*
X121825501Y-110370018D01*
X121836000Y-110472796D01*
X121836001Y-110472799D01*
X121868117Y-110569718D01*
X121891186Y-110639334D01*
X121981393Y-110785584D01*
X121983289Y-110788657D01*
X122107344Y-110912712D01*
X122153152Y-110940967D01*
X122199876Y-110992915D01*
X122211097Y-111061878D01*
X122183254Y-111125960D01*
X122175735Y-111134186D01*
X121417738Y-111892184D01*
X121290186Y-112019735D01*
X121290183Y-112019739D01*
X121269816Y-112052152D01*
X121261772Y-112063488D01*
X121237910Y-112093410D01*
X121221300Y-112127900D01*
X121214577Y-112140064D01*
X121194212Y-112172476D01*
X121194208Y-112172483D01*
X121181565Y-112208613D01*
X121176247Y-112221452D01*
X121159639Y-112255939D01*
X121151118Y-112293269D01*
X121147271Y-112306622D01*
X121134632Y-112342743D01*
X121130345Y-112380781D01*
X121128018Y-112394478D01*
X121119500Y-112431807D01*
X121119500Y-112787500D01*
X121099815Y-112854539D01*
X121047011Y-112900294D01*
X120995500Y-112911500D01*
X119872129Y-112911500D01*
X119872123Y-112911501D01*
X119812516Y-112917908D01*
X119677671Y-112968202D01*
X119677664Y-112968206D01*
X119562455Y-113054452D01*
X119562452Y-113054455D01*
X119476206Y-113169664D01*
X119476202Y-113169671D01*
X119425908Y-113304517D01*
X119420247Y-113357181D01*
X119419501Y-113364123D01*
X119419500Y-113364135D01*
X119419500Y-115459870D01*
X116101143Y-115459870D01*
X116070506Y-112355274D01*
X116070500Y-112354050D01*
X116070500Y-87500000D01*
X116090185Y-87432961D01*
X116142989Y-87387206D01*
X116194500Y-87376000D01*
X168151000Y-87376000D01*
X168218039Y-87395685D01*
G37*
%TD.AperFunction*%
%TA.AperFunction,Conductor*%
G36*
X156718000Y-112758302D02*
G01*
X156718000Y-112903000D01*
X158877000Y-113030000D01*
X158872039Y-112801823D01*
X158874907Y-112806991D01*
X158877905Y-112832162D01*
X159004000Y-120650000D01*
X168405000Y-120650000D01*
X168472039Y-120669685D01*
X168517794Y-120722489D01*
X168529000Y-120774000D01*
X168529000Y-125860000D01*
X168509315Y-125927039D01*
X168456511Y-125972794D01*
X168405000Y-125984000D01*
X154649729Y-125984000D01*
X154582690Y-125964315D01*
X154536935Y-125911511D01*
X154526991Y-125842353D01*
X154556016Y-125778797D01*
X154562048Y-125772319D01*
X155178142Y-125156224D01*
X155191757Y-125144458D01*
X155211030Y-125130110D01*
X155242883Y-125092148D01*
X155250171Y-125084194D01*
X155254090Y-125080277D01*
X155260873Y-125071699D01*
X155273311Y-125055967D01*
X155275594Y-125053164D01*
X155282410Y-125045042D01*
X155323802Y-124995714D01*
X155323803Y-124995711D01*
X155327772Y-124989679D01*
X155327823Y-124989712D01*
X155331869Y-124983360D01*
X155331817Y-124983328D01*
X155335605Y-124977183D01*
X155335611Y-124977177D01*
X155340992Y-124965636D01*
X155387163Y-124913199D01*
X155388278Y-124912503D01*
X155399901Y-124905334D01*
X155511156Y-124836712D01*
X155635212Y-124712656D01*
X155727314Y-124563334D01*
X155782499Y-124396797D01*
X155793000Y-124294009D01*
X155792999Y-122493992D01*
X155790546Y-122469983D01*
X155782499Y-122391203D01*
X155782498Y-122391200D01*
X155777693Y-122376699D01*
X155727314Y-122224666D01*
X155635212Y-122075344D01*
X155511156Y-121951288D01*
X155378770Y-121869632D01*
X155361836Y-121859187D01*
X155361831Y-121859185D01*
X155360362Y-121858698D01*
X155195297Y-121804001D01*
X155195295Y-121804000D01*
X155092510Y-121793500D01*
X154292498Y-121793500D01*
X154292480Y-121793501D01*
X154189703Y-121804000D01*
X154189700Y-121804001D01*
X154023168Y-121859185D01*
X154023163Y-121859187D01*
X153873842Y-121951289D01*
X153749789Y-122075342D01*
X153749788Y-122075344D01*
X153658056Y-122224067D01*
X153658039Y-122224094D01*
X153606091Y-122270818D01*
X153537128Y-122282041D01*
X153473046Y-122254197D01*
X153446961Y-122224094D01*
X153446951Y-122224077D01*
X153355212Y-122075344D01*
X153231156Y-121951288D01*
X153081834Y-121859186D01*
X153081832Y-121859185D01*
X153075687Y-121855395D01*
X153076790Y-121853605D01*
X153032149Y-121814290D01*
X153013000Y-121748091D01*
X153013000Y-120918500D01*
X153032685Y-120851461D01*
X153085489Y-120805706D01*
X153137000Y-120794500D01*
X155112507Y-120794500D01*
X155112512Y-120794500D01*
X155215300Y-120783999D01*
X155381836Y-120728815D01*
X155531157Y-120636712D01*
X155655212Y-120512657D01*
X155747315Y-120363336D01*
X155802499Y-120196800D01*
X155813000Y-120094012D01*
X155813000Y-114093988D01*
X155802499Y-113991200D01*
X155747315Y-113824664D01*
X155747311Y-113824658D01*
X155747310Y-113824655D01*
X155655214Y-113675346D01*
X155655211Y-113675342D01*
X155531157Y-113551288D01*
X155531153Y-113551285D01*
X155381844Y-113459189D01*
X155381838Y-113459186D01*
X155381836Y-113459185D01*
X155381833Y-113459184D01*
X155215301Y-113404001D01*
X155112519Y-113393500D01*
X155112512Y-113393500D01*
X154201096Y-113393500D01*
X154134057Y-113373815D01*
X154088302Y-113321011D01*
X154078358Y-113251853D01*
X154107383Y-113188297D01*
X154113402Y-113181832D01*
X154517928Y-112777306D01*
X154579245Y-112743825D01*
X154606602Y-112740996D01*
X156718000Y-112758302D01*
G37*
%TD.AperFunction*%
%TA.AperFunction,Conductor*%
G36*
X143328526Y-112253184D02*
G01*
X143374281Y-112305988D01*
X143385482Y-112358559D01*
X143383707Y-112566275D01*
X143383000Y-112649000D01*
X147249612Y-112680693D01*
X147316483Y-112700926D01*
X147336272Y-112717007D01*
X148975681Y-114356416D01*
X149009166Y-114417739D01*
X149012000Y-114444097D01*
X149012000Y-120094019D01*
X149022501Y-120196801D01*
X149077684Y-120363333D01*
X149077689Y-120363344D01*
X149169785Y-120512653D01*
X149169788Y-120512657D01*
X149293842Y-120636711D01*
X149293846Y-120636714D01*
X149443155Y-120728810D01*
X149443158Y-120728811D01*
X149443164Y-120728815D01*
X149609700Y-120783999D01*
X149712488Y-120794500D01*
X149712491Y-120794500D01*
X151688000Y-120794500D01*
X151755039Y-120814185D01*
X151800794Y-120866989D01*
X151812000Y-120918500D01*
X151812000Y-121748091D01*
X151792315Y-121815130D01*
X151748231Y-121853641D01*
X151749313Y-121855395D01*
X151743167Y-121859185D01*
X151743166Y-121859186D01*
X151704426Y-121883081D01*
X151593842Y-121951289D01*
X151469789Y-122075342D01*
X151377687Y-122224663D01*
X151377685Y-122224668D01*
X151362393Y-122270818D01*
X151322501Y-122391203D01*
X151322501Y-122391204D01*
X151322500Y-122391204D01*
X151312000Y-122493983D01*
X151312000Y-124294001D01*
X151312001Y-124294018D01*
X151322500Y-124396796D01*
X151339236Y-124447300D01*
X151377409Y-124562498D01*
X151379811Y-124632324D01*
X151344080Y-124692366D01*
X151281559Y-124723559D01*
X151259703Y-124725500D01*
X146423160Y-124725500D01*
X146356121Y-124705815D01*
X146310366Y-124653011D01*
X146300422Y-124583853D01*
X146313981Y-124546451D01*
X146312760Y-124545882D01*
X146315808Y-124539343D01*
X146315814Y-124539334D01*
X146370999Y-124372797D01*
X146381500Y-124270009D01*
X146381500Y-124094500D01*
X146401185Y-124027461D01*
X146453989Y-123981706D01*
X146505500Y-123970500D01*
X146649465Y-123970500D01*
X146681167Y-123976309D01*
X146681492Y-123974995D01*
X146688775Y-123976790D01*
X146853944Y-124017500D01*
X147024056Y-124017500D01*
X147189225Y-123976790D01*
X147268692Y-123935081D01*
X147339849Y-123897736D01*
X147339850Y-123897734D01*
X147339852Y-123897734D01*
X147467183Y-123784929D01*
X147563818Y-123644930D01*
X147624140Y-123485872D01*
X147644645Y-123317000D01*
X147624140Y-123148128D01*
X147563818Y-122989070D01*
X147467183Y-122849071D01*
X147372316Y-122765026D01*
X147339849Y-122736263D01*
X147189226Y-122657210D01*
X147024056Y-122616500D01*
X146853944Y-122616500D01*
X146688773Y-122657210D01*
X146563125Y-122723156D01*
X146494617Y-122736882D01*
X146429563Y-122711389D01*
X146388619Y-122654774D01*
X146381499Y-122613360D01*
X146381499Y-122469998D01*
X146381498Y-122469981D01*
X146370999Y-122367203D01*
X146370998Y-122367200D01*
X146331107Y-122246818D01*
X146315814Y-122200666D01*
X146223712Y-122051344D01*
X146099656Y-121927288D01*
X145989246Y-121859187D01*
X145950336Y-121835187D01*
X145950331Y-121835185D01*
X145892561Y-121816042D01*
X145783797Y-121780001D01*
X145783795Y-121780000D01*
X145681010Y-121769500D01*
X144880998Y-121769500D01*
X144880980Y-121769501D01*
X144778203Y-121780000D01*
X144778200Y-121780001D01*
X144611668Y-121835185D01*
X144611663Y-121835187D01*
X144462342Y-121927289D01*
X144338289Y-122051342D01*
X144246539Y-122200094D01*
X144194591Y-122246818D01*
X144125628Y-122258041D01*
X144061546Y-122230197D01*
X144035461Y-122200094D01*
X143958515Y-122075344D01*
X143943712Y-122051344D01*
X143819656Y-121927288D01*
X143819655Y-121927287D01*
X143810402Y-121921580D01*
X143763678Y-121869632D01*
X143751500Y-121816042D01*
X143751500Y-120894500D01*
X143771185Y-120827461D01*
X143823989Y-120781706D01*
X143875500Y-120770500D01*
X145701007Y-120770500D01*
X145701012Y-120770500D01*
X145803800Y-120759999D01*
X145970336Y-120704815D01*
X146119657Y-120612712D01*
X146243712Y-120488657D01*
X146335815Y-120339336D01*
X146390999Y-120172800D01*
X146401500Y-120070012D01*
X146401500Y-114069988D01*
X146390999Y-113967200D01*
X146335815Y-113800664D01*
X146335811Y-113800658D01*
X146335810Y-113800655D01*
X146243714Y-113651346D01*
X146243711Y-113651342D01*
X146119657Y-113527288D01*
X146119653Y-113527285D01*
X145970344Y-113435189D01*
X145970338Y-113435186D01*
X145970336Y-113435185D01*
X145965236Y-113433495D01*
X145803801Y-113380001D01*
X145701019Y-113369500D01*
X145701012Y-113369500D01*
X142414097Y-113369500D01*
X142347058Y-113349815D01*
X142301303Y-113297011D01*
X142291359Y-113227853D01*
X142320384Y-113164297D01*
X142326416Y-113157819D01*
X142452665Y-113031569D01*
X142969044Y-112515189D01*
X142981222Y-112504510D01*
X143006282Y-112485282D01*
X143102536Y-112359841D01*
X143123162Y-112310044D01*
X143167001Y-112255644D01*
X143233295Y-112233578D01*
X143237722Y-112233499D01*
X143261487Y-112233499D01*
X143328526Y-112253184D01*
G37*
%TD.AperFunction*%
%TA.AperFunction,Conductor*%
G36*
X132451095Y-98496829D02*
G01*
X132537303Y-98550003D01*
X132698292Y-98603349D01*
X132797655Y-98613500D01*
X133145902Y-98613499D01*
X133212941Y-98633183D01*
X133233583Y-98649818D01*
X133907799Y-99324034D01*
X133918493Y-99336228D01*
X133937717Y-99361281D01*
X134011630Y-99417996D01*
X134011631Y-99417998D01*
X134053432Y-99450072D01*
X134063159Y-99457536D01*
X134063161Y-99457536D01*
X134063163Y-99457538D01*
X134124325Y-99482872D01*
X134209238Y-99518044D01*
X134287619Y-99528363D01*
X134365999Y-99538682D01*
X134366000Y-99538682D01*
X134397302Y-99534560D01*
X134413487Y-99533500D01*
X135702501Y-99533500D01*
X135769540Y-99553185D01*
X135815295Y-99605989D01*
X135825239Y-99675147D01*
X135808039Y-99722597D01*
X135778001Y-99771294D01*
X135777996Y-99771305D01*
X135724651Y-99932290D01*
X135714500Y-100031647D01*
X135714500Y-100628337D01*
X135714501Y-100628355D01*
X135724650Y-100727707D01*
X135724651Y-100727710D01*
X135777996Y-100888694D01*
X135778001Y-100888705D01*
X135867029Y-101033040D01*
X135867032Y-101033044D01*
X135891181Y-101057193D01*
X135924666Y-101118516D01*
X135927500Y-101144874D01*
X135927500Y-101241095D01*
X135923277Y-101273182D01*
X135922136Y-101277438D01*
X135913111Y-101339050D01*
X135911859Y-101346150D01*
X135899267Y-101407133D01*
X135899266Y-101407143D01*
X135899592Y-101418365D01*
X135898335Y-101439929D01*
X135896711Y-101451014D01*
X135896711Y-101451025D01*
X135902136Y-101513048D01*
X135902555Y-101520242D01*
X135904368Y-101582509D01*
X135904369Y-101582514D01*
X135907270Y-101593340D01*
X135911023Y-101614625D01*
X135912000Y-101625794D01*
X135921206Y-101653575D01*
X135927500Y-101692580D01*
X135927500Y-101747126D01*
X135907815Y-101814165D01*
X135891181Y-101834807D01*
X135880032Y-101845955D01*
X135880029Y-101845959D01*
X135791001Y-101990294D01*
X135790996Y-101990305D01*
X135737651Y-102151290D01*
X135727500Y-102250647D01*
X135727500Y-102847337D01*
X135727501Y-102847355D01*
X135737650Y-102946707D01*
X135737651Y-102946710D01*
X135790996Y-103107694D01*
X135791001Y-103107705D01*
X135880029Y-103252040D01*
X135880032Y-103252044D01*
X135891181Y-103263193D01*
X135924666Y-103324516D01*
X135927500Y-103350874D01*
X135927500Y-103400095D01*
X135923277Y-103432182D01*
X135922136Y-103436438D01*
X135913111Y-103498050D01*
X135911859Y-103505150D01*
X135899267Y-103566133D01*
X135899266Y-103566143D01*
X135899592Y-103577365D01*
X135898335Y-103598929D01*
X135896711Y-103610014D01*
X135896711Y-103610025D01*
X135902136Y-103672048D01*
X135902555Y-103679242D01*
X135904368Y-103741509D01*
X135904369Y-103741514D01*
X135907270Y-103752340D01*
X135911023Y-103773625D01*
X135912000Y-103784794D01*
X135921206Y-103812575D01*
X135927500Y-103851580D01*
X135927500Y-103973126D01*
X135907815Y-104040165D01*
X135891181Y-104060807D01*
X135880032Y-104071955D01*
X135880029Y-104071959D01*
X135791001Y-104216294D01*
X135790996Y-104216305D01*
X135737651Y-104377290D01*
X135727500Y-104476647D01*
X135727500Y-105073337D01*
X135727501Y-105073355D01*
X135737650Y-105172707D01*
X135737651Y-105172710D01*
X135790996Y-105333694D01*
X135791001Y-105333705D01*
X135880029Y-105478040D01*
X135880032Y-105478044D01*
X135891181Y-105489193D01*
X135924666Y-105550516D01*
X135927500Y-105576874D01*
X135927500Y-105686095D01*
X135923277Y-105718182D01*
X135922136Y-105722438D01*
X135913111Y-105784050D01*
X135911859Y-105791150D01*
X135899267Y-105852133D01*
X135899266Y-105852143D01*
X135899592Y-105863365D01*
X135898335Y-105884929D01*
X135896711Y-105896014D01*
X135896711Y-105896025D01*
X135902136Y-105958048D01*
X135902555Y-105965242D01*
X135904368Y-106027509D01*
X135904369Y-106027514D01*
X135907270Y-106038340D01*
X135911023Y-106059625D01*
X135912000Y-106070794D01*
X135921206Y-106098575D01*
X135927500Y-106137580D01*
X135927500Y-106386126D01*
X135907815Y-106453165D01*
X135891181Y-106473807D01*
X135880032Y-106484955D01*
X135880029Y-106484959D01*
X135791001Y-106629294D01*
X135790996Y-106629305D01*
X135737651Y-106790290D01*
X135727500Y-106889647D01*
X135727500Y-107486337D01*
X135727501Y-107486355D01*
X135737650Y-107585707D01*
X135737651Y-107585710D01*
X135790996Y-107746694D01*
X135791001Y-107746705D01*
X135880029Y-107891040D01*
X135880032Y-107891044D01*
X135891181Y-107902193D01*
X135924666Y-107963516D01*
X135927500Y-107989874D01*
X135927500Y-109872500D01*
X135907815Y-109939539D01*
X135855011Y-109985294D01*
X135803500Y-109996500D01*
X135747230Y-109996500D01*
X135680191Y-109976815D01*
X135659549Y-109960181D01*
X132487700Y-106788332D01*
X132454215Y-106727009D01*
X132451383Y-106700011D01*
X132461100Y-104827675D01*
X132478982Y-104764170D01*
X132517733Y-104700069D01*
X132565452Y-104546933D01*
X132571500Y-104480381D01*
X132571499Y-104053620D01*
X132571499Y-104053611D01*
X132565453Y-103987073D01*
X132565452Y-103987070D01*
X132565452Y-103987067D01*
X132528474Y-103868401D01*
X132517734Y-103833933D01*
X132517732Y-103833929D01*
X132434757Y-103696670D01*
X132434753Y-103696665D01*
X132321334Y-103583246D01*
X132321329Y-103583242D01*
X132184070Y-103500267D01*
X132184066Y-103500265D01*
X132030933Y-103452548D01*
X132030935Y-103452548D01*
X132004312Y-103450128D01*
X131964381Y-103446500D01*
X131964378Y-103446500D01*
X131462611Y-103446500D01*
X131396073Y-103452546D01*
X131396066Y-103452548D01*
X131242933Y-103500265D01*
X131242929Y-103500267D01*
X131180149Y-103538219D01*
X131112594Y-103556055D01*
X131051851Y-103538219D01*
X130989070Y-103500267D01*
X130989066Y-103500265D01*
X130835933Y-103452548D01*
X130835935Y-103452548D01*
X130809312Y-103450128D01*
X130769381Y-103446500D01*
X130769378Y-103446500D01*
X130267611Y-103446500D01*
X130201073Y-103452546D01*
X130201066Y-103452548D01*
X130047933Y-103500265D01*
X130047929Y-103500267D01*
X129910670Y-103583242D01*
X129910665Y-103583246D01*
X129863731Y-103630181D01*
X129802408Y-103663666D01*
X129776050Y-103666500D01*
X125152185Y-103666500D01*
X125085146Y-103646815D01*
X125046648Y-103607599D01*
X125018281Y-103561609D01*
X124899391Y-103442719D01*
X124899387Y-103442716D01*
X124756295Y-103354455D01*
X124756289Y-103354452D01*
X124756287Y-103354451D01*
X124596685Y-103301564D01*
X124596683Y-103301563D01*
X124498181Y-103291500D01*
X124498174Y-103291500D01*
X123964826Y-103291500D01*
X123964818Y-103291500D01*
X123866316Y-103301563D01*
X123866315Y-103301564D01*
X123831188Y-103313204D01*
X123706715Y-103354450D01*
X123706704Y-103354455D01*
X123563612Y-103442716D01*
X123563608Y-103442719D01*
X123444719Y-103561608D01*
X123444716Y-103561612D01*
X123356455Y-103704704D01*
X123356450Y-103704715D01*
X123333616Y-103773625D01*
X123303564Y-103864315D01*
X123303564Y-103864316D01*
X123303563Y-103864316D01*
X123293500Y-103962818D01*
X123293500Y-104571181D01*
X123303563Y-104669683D01*
X123313631Y-104700066D01*
X123334873Y-104764170D01*
X123337964Y-104773496D01*
X123340366Y-104843324D01*
X123304634Y-104903366D01*
X123242114Y-104934559D01*
X123220258Y-104936500D01*
X121567450Y-104936500D01*
X121500411Y-104916815D01*
X121454656Y-104864011D01*
X121444712Y-104794853D01*
X121452889Y-104765047D01*
X121489044Y-104677762D01*
X121502249Y-104577460D01*
X121509682Y-104521000D01*
X121505561Y-104489697D01*
X121504500Y-104473512D01*
X121504500Y-101519097D01*
X121524185Y-101452058D01*
X121540819Y-101431416D01*
X122005416Y-100966819D01*
X122066739Y-100933334D01*
X122093097Y-100930500D01*
X123220258Y-100930500D01*
X123287297Y-100950185D01*
X123333052Y-101002989D01*
X123342996Y-101072147D01*
X123337964Y-101093500D01*
X123303564Y-101197315D01*
X123303564Y-101197316D01*
X123303563Y-101197316D01*
X123293500Y-101295818D01*
X123293500Y-101904181D01*
X123303563Y-102002683D01*
X123356450Y-102162284D01*
X123356455Y-102162295D01*
X123444716Y-102305387D01*
X123444719Y-102305391D01*
X123563608Y-102424280D01*
X123563612Y-102424283D01*
X123706704Y-102512544D01*
X123706707Y-102512545D01*
X123706713Y-102512549D01*
X123866315Y-102565436D01*
X123964826Y-102575500D01*
X123964831Y-102575500D01*
X124498169Y-102575500D01*
X124498174Y-102575500D01*
X124596685Y-102565436D01*
X124756287Y-102512549D01*
X124899391Y-102424281D01*
X125018281Y-102305391D01*
X125046648Y-102259401D01*
X125098594Y-102212679D01*
X125152185Y-102200500D01*
X126572903Y-102200500D01*
X126639942Y-102220185D01*
X126660584Y-102236819D01*
X127049799Y-102626034D01*
X127060493Y-102638228D01*
X127079715Y-102663279D01*
X127079716Y-102663280D01*
X127079718Y-102663282D01*
X127146687Y-102714669D01*
X127205159Y-102759536D01*
X127351238Y-102820044D01*
X127392658Y-102825497D01*
X127507999Y-102840682D01*
X127508000Y-102840682D01*
X127539302Y-102836560D01*
X127555487Y-102835500D01*
X129724050Y-102835500D01*
X129791089Y-102855185D01*
X129811731Y-102871819D01*
X129858665Y-102918753D01*
X129858670Y-102918757D01*
X129995929Y-103001732D01*
X129995933Y-103001734D01*
X130045066Y-103017044D01*
X130149067Y-103049452D01*
X130215619Y-103055500D01*
X130717380Y-103055499D01*
X130717388Y-103055499D01*
X130783926Y-103049453D01*
X130783927Y-103049452D01*
X130783933Y-103049452D01*
X130937069Y-103001733D01*
X130999850Y-102963779D01*
X131067405Y-102945944D01*
X131128149Y-102963779D01*
X131190931Y-103001733D01*
X131190934Y-103001734D01*
X131190933Y-103001734D01*
X131240066Y-103017044D01*
X131344067Y-103049452D01*
X131410619Y-103055500D01*
X131912380Y-103055499D01*
X131912388Y-103055499D01*
X131978926Y-103049453D01*
X131978927Y-103049452D01*
X131978933Y-103049452D01*
X132132069Y-103001733D01*
X132218753Y-102949331D01*
X132269329Y-102918757D01*
X132269330Y-102918755D01*
X132269335Y-102918753D01*
X132382753Y-102805335D01*
X132410336Y-102759708D01*
X132465732Y-102668070D01*
X132465733Y-102668069D01*
X132513452Y-102514933D01*
X132519500Y-102448381D01*
X132519499Y-102021620D01*
X132519499Y-102021611D01*
X132513453Y-101955073D01*
X132513452Y-101955070D01*
X132513452Y-101955067D01*
X132474947Y-101831500D01*
X132465734Y-101801933D01*
X132465732Y-101801929D01*
X132382757Y-101664670D01*
X132382753Y-101664665D01*
X132298319Y-101580231D01*
X132264834Y-101518908D01*
X132262000Y-101492550D01*
X132262000Y-101072450D01*
X132281685Y-101005411D01*
X132298319Y-100984769D01*
X132332903Y-100950185D01*
X132382753Y-100900335D01*
X132389789Y-100888697D01*
X132436153Y-100812000D01*
X132465733Y-100763069D01*
X132513452Y-100609933D01*
X132519500Y-100543381D01*
X132519499Y-100116620D01*
X132519499Y-100116611D01*
X132513453Y-100050073D01*
X132513452Y-100050070D01*
X132513452Y-100050067D01*
X132465733Y-99896931D01*
X132451083Y-99872697D01*
X132382757Y-99759670D01*
X132382753Y-99759665D01*
X132298319Y-99675231D01*
X132264834Y-99613908D01*
X132262000Y-99587550D01*
X132262000Y-98602368D01*
X132281685Y-98535329D01*
X132334489Y-98489574D01*
X132403647Y-98479630D01*
X132451095Y-98496829D01*
G37*
%TD.AperFunction*%
%TA.AperFunction,Conductor*%
G36*
X141003331Y-104633185D02*
G01*
X141049086Y-104685989D01*
X141058501Y-104751472D01*
X141059339Y-104751558D01*
X141058996Y-104754912D01*
X141059030Y-104755147D01*
X141058895Y-104755901D01*
X141048500Y-104857647D01*
X141048500Y-105454337D01*
X141048501Y-105454355D01*
X141058650Y-105553707D01*
X141058651Y-105553710D01*
X141111996Y-105714694D01*
X141112001Y-105714705D01*
X141201029Y-105859040D01*
X141201032Y-105859044D01*
X141320956Y-105978968D01*
X141339596Y-105990465D01*
X141386321Y-106042412D01*
X141398500Y-106096004D01*
X141398500Y-106247995D01*
X141378815Y-106315034D01*
X141339600Y-106353532D01*
X141320954Y-106365033D01*
X141201029Y-106484959D01*
X141112001Y-106629294D01*
X141111996Y-106629305D01*
X141058651Y-106790290D01*
X141048500Y-106889647D01*
X141048500Y-107486337D01*
X141048501Y-107486355D01*
X141058650Y-107585707D01*
X141058651Y-107585710D01*
X141111996Y-107746694D01*
X141112001Y-107746705D01*
X141201029Y-107891040D01*
X141201032Y-107891044D01*
X141320955Y-108010967D01*
X141320954Y-108010967D01*
X141320956Y-108010968D01*
X141326592Y-108014444D01*
X141373318Y-108066388D01*
X141385500Y-108119985D01*
X141385500Y-108437199D01*
X141365815Y-108504238D01*
X141363551Y-108507638D01*
X141361182Y-108511069D01*
X141300860Y-108670125D01*
X141300859Y-108670130D01*
X141280355Y-108839000D01*
X141300859Y-109007869D01*
X141300860Y-109007874D01*
X141361182Y-109166931D01*
X141371929Y-109182500D01*
X141457817Y-109306929D01*
X141550312Y-109388872D01*
X141585150Y-109419736D01*
X141735774Y-109498790D01*
X141735773Y-109498790D01*
X141813417Y-109517927D01*
X141843446Y-109525328D01*
X141903827Y-109560484D01*
X141935616Y-109622703D01*
X141928720Y-109692232D01*
X141885329Y-109746995D01*
X141835278Y-109765900D01*
X141835568Y-109767124D01*
X141828020Y-109768907D01*
X141693171Y-109819202D01*
X141693168Y-109819204D01*
X141679311Y-109829578D01*
X141613846Y-109853995D01*
X141545573Y-109839143D01*
X141530689Y-109829578D01*
X141516831Y-109819204D01*
X141516828Y-109819202D01*
X141381982Y-109768908D01*
X141381983Y-109768908D01*
X141322383Y-109762501D01*
X141322381Y-109762500D01*
X141322373Y-109762500D01*
X141322365Y-109762500D01*
X141308705Y-109762500D01*
X141241666Y-109742815D01*
X141195911Y-109690011D01*
X141194144Y-109685953D01*
X141156536Y-109595159D01*
X141156535Y-109595158D01*
X141156535Y-109595157D01*
X141141997Y-109576211D01*
X141141996Y-109576210D01*
X141060281Y-109469717D01*
X141035228Y-109450493D01*
X141023034Y-109439799D01*
X139320819Y-107737584D01*
X139287334Y-107676261D01*
X139284500Y-107649903D01*
X139284500Y-104948097D01*
X139304185Y-104881058D01*
X139320819Y-104860416D01*
X139531416Y-104649819D01*
X139592739Y-104616334D01*
X139619097Y-104613500D01*
X140936292Y-104613500D01*
X141003331Y-104633185D01*
G37*
%TD.AperFunction*%
%TA.AperFunction,Conductor*%
G36*
X140368942Y-99553185D02*
G01*
X140389584Y-99569819D01*
X141012181Y-100192416D01*
X141045666Y-100253739D01*
X141048500Y-100280097D01*
X141048500Y-100628337D01*
X141048501Y-100628355D01*
X141058650Y-100727707D01*
X141058651Y-100727710D01*
X141111996Y-100888694D01*
X141112001Y-100888705D01*
X141201029Y-101033040D01*
X141201032Y-101033044D01*
X141320956Y-101152968D01*
X141339596Y-101164465D01*
X141386321Y-101216412D01*
X141398500Y-101270004D01*
X141398500Y-101421995D01*
X141378815Y-101489034D01*
X141339600Y-101527532D01*
X141320954Y-101539033D01*
X141201029Y-101658959D01*
X141112001Y-101803294D01*
X141111996Y-101803305D01*
X141058651Y-101964290D01*
X141048500Y-102063647D01*
X141048500Y-102660337D01*
X141048501Y-102660355D01*
X141058354Y-102756804D01*
X141045584Y-102825497D01*
X141022681Y-102857082D01*
X141011587Y-102868177D01*
X140950266Y-102901665D01*
X140923902Y-102904500D01*
X138858487Y-102904500D01*
X138842302Y-102903439D01*
X138811000Y-102899318D01*
X138810999Y-102899318D01*
X138708366Y-102912830D01*
X138654239Y-102919955D01*
X138654237Y-102919956D01*
X138508160Y-102980463D01*
X138382714Y-103076721D01*
X138363495Y-103101769D01*
X138352800Y-103113964D01*
X137657965Y-103808798D01*
X137645773Y-103819491D01*
X137627989Y-103833138D01*
X137562821Y-103858334D01*
X137494376Y-103844297D01*
X137444385Y-103795485D01*
X137428500Y-103734764D01*
X137428500Y-103721706D01*
X137429809Y-103703734D01*
X137429851Y-103703451D01*
X137433289Y-103679977D01*
X137430128Y-103643855D01*
X137429709Y-103636661D01*
X137429573Y-103632000D01*
X137428552Y-103596869D01*
X137428500Y-103593265D01*
X137428500Y-103350874D01*
X137448185Y-103283835D01*
X137464819Y-103263193D01*
X137465103Y-103262909D01*
X137475968Y-103252044D01*
X137565003Y-103107697D01*
X137618349Y-102946708D01*
X137628500Y-102847345D01*
X137628499Y-102250656D01*
X137625386Y-102220185D01*
X137618349Y-102151292D01*
X137618348Y-102151289D01*
X137609835Y-102125599D01*
X137565003Y-101990303D01*
X137564999Y-101990297D01*
X137564998Y-101990294D01*
X137475970Y-101845959D01*
X137475967Y-101845955D01*
X137464819Y-101834807D01*
X137431334Y-101773484D01*
X137428500Y-101747126D01*
X137428500Y-101562706D01*
X137429809Y-101544734D01*
X137433289Y-101520977D01*
X137433289Y-101520975D01*
X137432255Y-101509168D01*
X137430128Y-101484855D01*
X137429709Y-101477661D01*
X137429573Y-101473000D01*
X137428552Y-101437869D01*
X137428500Y-101434265D01*
X137428500Y-101118874D01*
X137448185Y-101051835D01*
X137458657Y-101038839D01*
X137458490Y-101038707D01*
X137462962Y-101033049D01*
X137462968Y-101033044D01*
X137552003Y-100888697D01*
X137605349Y-100727708D01*
X137615500Y-100628345D01*
X137615499Y-100031656D01*
X137614006Y-100017044D01*
X137605349Y-99932292D01*
X137605348Y-99932289D01*
X137593632Y-99896933D01*
X137552003Y-99771303D01*
X137551999Y-99771297D01*
X137551998Y-99771294D01*
X137521961Y-99722597D01*
X137503520Y-99655205D01*
X137524442Y-99588541D01*
X137578084Y-99543772D01*
X137627499Y-99533500D01*
X140301903Y-99533500D01*
X140368942Y-99553185D01*
G37*
%TD.AperFunction*%
%TA.AperFunction,Conductor*%
G36*
X146349663Y-91044185D02*
G01*
X146395418Y-91096989D01*
X146405620Y-91150806D01*
X146406500Y-91150806D01*
X146406500Y-93249870D01*
X146406501Y-93249876D01*
X146412908Y-93309483D01*
X146463202Y-93444328D01*
X146463206Y-93444335D01*
X146532358Y-93536709D01*
X146549454Y-93559546D01*
X146664086Y-93645360D01*
X146705957Y-93701293D01*
X146710941Y-93770985D01*
X146677456Y-93832307D01*
X143384584Y-97125181D01*
X143323261Y-97158666D01*
X143296903Y-97161500D01*
X137318667Y-97161500D01*
X137251628Y-97141815D01*
X137230986Y-97125181D01*
X137217692Y-97111887D01*
X137217684Y-97111881D01*
X137078393Y-97029505D01*
X137078390Y-97029504D01*
X136922997Y-96984357D01*
X136922991Y-96984356D01*
X136886697Y-96981500D01*
X136886690Y-96981500D01*
X136417310Y-96981500D01*
X136417302Y-96981500D01*
X136381008Y-96984356D01*
X136381002Y-96984357D01*
X136225609Y-97029504D01*
X136225606Y-97029505D01*
X136086315Y-97111881D01*
X136086307Y-97111887D01*
X135977681Y-97220514D01*
X135916358Y-97253999D01*
X135846666Y-97249015D01*
X135802319Y-97220514D01*
X135693692Y-97111887D01*
X135693684Y-97111881D01*
X135554393Y-97029505D01*
X135554390Y-97029504D01*
X135398997Y-96984357D01*
X135398991Y-96984356D01*
X135362697Y-96981500D01*
X135362690Y-96981500D01*
X134963500Y-96981500D01*
X134896461Y-96961815D01*
X134850706Y-96909011D01*
X134839500Y-96857500D01*
X134839500Y-96185096D01*
X134859185Y-96118057D01*
X134875814Y-96097420D01*
X137708790Y-93264443D01*
X137770111Y-93230960D01*
X137839803Y-93235944D01*
X137895736Y-93277816D01*
X137912651Y-93308793D01*
X137963202Y-93444328D01*
X137963206Y-93444335D01*
X138049452Y-93559544D01*
X138049455Y-93559547D01*
X138164664Y-93645793D01*
X138164671Y-93645797D01*
X138299517Y-93696091D01*
X138299516Y-93696091D01*
X138306444Y-93696835D01*
X138359127Y-93702500D01*
X142954872Y-93702499D01*
X143014483Y-93696091D01*
X143149331Y-93645796D01*
X143264546Y-93559546D01*
X143350796Y-93444331D01*
X143401091Y-93309483D01*
X143407500Y-93249873D01*
X143407499Y-91154128D01*
X143407499Y-91154127D01*
X143407499Y-91150808D01*
X143408580Y-91150808D01*
X143423613Y-91087153D01*
X143473886Y-91038632D01*
X143531375Y-91024500D01*
X146282624Y-91024500D01*
X146349663Y-91044185D01*
G37*
%TD.AperFunction*%
%TD*%
M02*
