%TF.GenerationSoftware,KiCad,Pcbnew,7.0.11-7.0.11~ubuntu22.04.1*%
%TF.CreationDate,2025-04-19T23:19:54+01:00*%
%TF.ProjectId,Mixed_Signal_Design,4d697865-645f-4536-9967-6e616c5f4465,rev?*%
%TF.SameCoordinates,Original*%
%TF.FileFunction,Other,User*%
%FSLAX46Y46*%
G04 Gerber Fmt 4.6, Leading zero omitted, Abs format (unit mm)*
G04 Created by KiCad (PCBNEW 7.0.11-7.0.11~ubuntu22.04.1) date 2025-04-19 23:19:54*
%MOMM*%
%LPD*%
G01*
G04 APERTURE LIST*
%ADD10C,0.050000*%
G04 APERTURE END LIST*
D10*
%TO.C,FID1*%
X125206000Y-98171000D02*
G75*
G03*
X123206000Y-98171000I-1000000J0D01*
G01*
X123206000Y-98171000D02*
G75*
G03*
X125206000Y-98171000I1000000J0D01*
G01*
%TO.C,C5*%
X137383000Y-107918000D02*
X134423000Y-107918000D01*
X137383000Y-106458000D02*
X137383000Y-107918000D01*
X134423000Y-107918000D02*
X134423000Y-106458000D01*
X134423000Y-106458000D02*
X137383000Y-106458000D01*
%TO.C,C16*%
X135477000Y-90341000D02*
X135477000Y-93301000D01*
X134017000Y-90341000D02*
X135477000Y-90341000D01*
X135477000Y-93301000D02*
X134017000Y-93301000D01*
X134017000Y-93301000D02*
X134017000Y-90341000D01*
%TO.C,D3*%
X121964000Y-100870000D02*
X124924000Y-100870000D01*
X121964000Y-102330000D02*
X121964000Y-100870000D01*
X124924000Y-100870000D02*
X124924000Y-102330000D01*
X124924000Y-102330000D02*
X121964000Y-102330000D01*
%TO.C,C14*%
X135588000Y-96372000D02*
X135588000Y-98192000D01*
X134668000Y-96372000D02*
X135588000Y-96372000D01*
X135588000Y-98192000D02*
X134668000Y-98192000D01*
X134668000Y-98192000D02*
X134668000Y-96372000D01*
%TO.C,R2*%
X132164000Y-102705000D02*
X129964000Y-102705000D01*
X132164000Y-101765000D02*
X132164000Y-102705000D01*
X129964000Y-102705000D02*
X129964000Y-101765000D01*
X129964000Y-101765000D02*
X132164000Y-101765000D01*
%TO.C,J4*%
X163046000Y-97895000D02*
X166596000Y-97895000D01*
X163046000Y-119245000D02*
X163046000Y-97895000D01*
X166596000Y-97895000D02*
X166596000Y-119245000D01*
X166596000Y-119245000D02*
X163046000Y-119245000D01*
%TO.C,C18*%
X131413000Y-90367000D02*
X131413000Y-93327000D01*
X129953000Y-90367000D02*
X131413000Y-90367000D01*
X131413000Y-93327000D02*
X129953000Y-93327000D01*
X129953000Y-93327000D02*
X129953000Y-90367000D01*
%TO.C,C8*%
X142704000Y-101060000D02*
X139744000Y-101060000D01*
X142704000Y-99600000D02*
X142704000Y-101060000D01*
X139744000Y-101060000D02*
X139744000Y-99600000D01*
X139744000Y-99600000D02*
X142704000Y-99600000D01*
%TO.C,H1*%
X167735000Y-123317000D02*
G75*
G03*
X163735000Y-123317000I-2000000J0D01*
G01*
X163735000Y-123317000D02*
G75*
G03*
X167735000Y-123317000I2000000J0D01*
G01*
%TO.C,C12*%
X130080000Y-98368000D02*
X130080000Y-95408000D01*
X131540000Y-98368000D02*
X130080000Y-98368000D01*
X130080000Y-95408000D02*
X131540000Y-95408000D01*
X131540000Y-95408000D02*
X131540000Y-98368000D01*
%TO.C,Y1*%
X138107000Y-89602000D02*
X138107000Y-94802000D01*
X138107000Y-94802000D02*
X151707000Y-94802000D01*
X151707000Y-89602000D02*
X138107000Y-89602000D01*
X151707000Y-94802000D02*
X151707000Y-89602000D01*
%TO.C,C7*%
X142704000Y-103092000D02*
X139744000Y-103092000D01*
X142704000Y-101632000D02*
X142704000Y-103092000D01*
X139744000Y-103092000D02*
X139744000Y-101632000D01*
X139744000Y-101632000D02*
X142704000Y-101632000D01*
%TO.C,SW1*%
X130938000Y-125160000D02*
X134238000Y-125160000D01*
X134238000Y-125160000D02*
X134238000Y-120360000D01*
X130938000Y-120360000D02*
X130938000Y-125160000D01*
X134238000Y-120360000D02*
X130938000Y-120360000D01*
%TO.C,FB1*%
X139740000Y-110013000D02*
X139740000Y-111983000D01*
X139740000Y-111983000D02*
X143470000Y-111983000D01*
X143470000Y-110013000D02*
X139740000Y-110013000D01*
X143470000Y-111983000D02*
X143470000Y-110013000D01*
%TO.C,J2*%
X116945000Y-93577000D02*
X116945000Y-109877000D01*
X116945000Y-109877000D02*
X120545000Y-109877000D01*
X120545000Y-93577000D02*
X116945000Y-93577000D01*
X120545000Y-109877000D02*
X120545000Y-93577000D01*
%TO.C,H3*%
X121126000Y-89789000D02*
G75*
G03*
X117126000Y-89789000I-2000000J0D01*
G01*
X117126000Y-89789000D02*
G75*
G03*
X121126000Y-89789000I2000000J0D01*
G01*
%TO.C,U4*%
X154779000Y-108932000D02*
X154779000Y-98332000D01*
X154779000Y-108932000D02*
X144179000Y-108932000D01*
X154779000Y-98332000D02*
X144179000Y-98332000D01*
X144179000Y-108932000D02*
X144179000Y-98332000D01*
%TO.C,FID3*%
X132826000Y-111379000D02*
G75*
G03*
X130826000Y-111379000I-1000000J0D01*
G01*
X130826000Y-111379000D02*
G75*
G03*
X132826000Y-111379000I1000000J0D01*
G01*
%TO.C,C6*%
X137383000Y-105505000D02*
X134423000Y-105505000D01*
X137383000Y-104045000D02*
X137383000Y-105505000D01*
X134423000Y-105505000D02*
X134423000Y-104045000D01*
X134423000Y-104045000D02*
X137383000Y-104045000D01*
%TO.C,U1*%
X139501000Y-124720000D02*
X146501000Y-124720000D01*
X146501000Y-124720000D02*
X146501000Y-113620000D01*
X139501000Y-113620000D02*
X139501000Y-124720000D01*
X146501000Y-113620000D02*
X139501000Y-113620000D01*
%TO.C,C9*%
X158680000Y-98584000D02*
X161640000Y-98584000D01*
X158680000Y-100044000D02*
X158680000Y-98584000D01*
X161640000Y-98584000D02*
X161640000Y-100044000D01*
X161640000Y-100044000D02*
X158680000Y-100044000D01*
%TO.C,R3*%
X132164000Y-100800000D02*
X129964000Y-100800000D01*
X132164000Y-99860000D02*
X132164000Y-100800000D01*
X129964000Y-100800000D02*
X129964000Y-99860000D01*
X129964000Y-99860000D02*
X132164000Y-99860000D01*
%TO.C,R1*%
X132216000Y-104737000D02*
X130016000Y-104737000D01*
X132216000Y-103797000D02*
X132216000Y-104737000D01*
X130016000Y-104737000D02*
X130016000Y-103797000D01*
X130016000Y-103797000D02*
X132216000Y-103797000D01*
%TO.C,C20*%
X138017000Y-121596000D02*
X138017000Y-124556000D01*
X136557000Y-121596000D02*
X138017000Y-121596000D01*
X138017000Y-124556000D02*
X136557000Y-124556000D01*
X136557000Y-124556000D02*
X136557000Y-121596000D01*
%TO.C,C11*%
X127697000Y-98368000D02*
X127697000Y-95408000D01*
X129157000Y-98368000D02*
X127697000Y-98368000D01*
X127697000Y-95408000D02*
X129157000Y-95408000D01*
X129157000Y-95408000D02*
X129157000Y-98368000D01*
%TO.C,C10*%
X158654000Y-101632000D02*
X161614000Y-101632000D01*
X158654000Y-103092000D02*
X158654000Y-101632000D01*
X161614000Y-101632000D02*
X161614000Y-103092000D01*
X161614000Y-103092000D02*
X158654000Y-103092000D01*
%TO.C,J1*%
X115920000Y-112912000D02*
X115920000Y-126912000D01*
X115920000Y-126912000D02*
X127920000Y-126912000D01*
X127920000Y-112912000D02*
X115920000Y-112912000D01*
X127920000Y-126912000D02*
X127920000Y-112912000D01*
%TO.C,R4*%
X154983000Y-93891000D02*
X157183000Y-93891000D01*
X154983000Y-94831000D02*
X154983000Y-93891000D01*
X157183000Y-93891000D02*
X157183000Y-94831000D01*
X157183000Y-94831000D02*
X154983000Y-94831000D01*
%TO.C,H4*%
X134588000Y-116459000D02*
G75*
G03*
X130588000Y-116459000I-2000000J0D01*
G01*
X130588000Y-116459000D02*
G75*
G03*
X134588000Y-116459000I2000000J0D01*
G01*
%TO.C,C17*%
X133445000Y-90367000D02*
X133445000Y-93327000D01*
X131985000Y-90367000D02*
X133445000Y-90367000D01*
X133445000Y-93327000D02*
X131985000Y-93327000D01*
X131985000Y-93327000D02*
X131985000Y-90367000D01*
%TO.C,C2*%
X142704000Y-105886000D02*
X139744000Y-105886000D01*
X142704000Y-104426000D02*
X142704000Y-105886000D01*
X139744000Y-105886000D02*
X139744000Y-104426000D01*
X139744000Y-104426000D02*
X142704000Y-104426000D01*
%TO.C,U2*%
X148912500Y-124744000D02*
X155912500Y-124744000D01*
X155912500Y-124744000D02*
X155912500Y-113644000D01*
X148912500Y-113644000D02*
X148912500Y-124744000D01*
X155912500Y-113644000D02*
X148912500Y-113644000D01*
%TO.C,FID2*%
X161147000Y-107569000D02*
G75*
G03*
X159147000Y-107569000I-1000000J0D01*
G01*
X159147000Y-107569000D02*
G75*
G03*
X161147000Y-107569000I1000000J0D01*
G01*
%TO.C,D1*%
X121964000Y-103537000D02*
X124924000Y-103537000D01*
X121964000Y-104997000D02*
X121964000Y-103537000D01*
X124924000Y-103537000D02*
X124924000Y-104997000D01*
X124924000Y-104997000D02*
X121964000Y-104997000D01*
%TO.C,H2*%
X167735000Y-89662000D02*
G75*
G03*
X163735000Y-89662000I-2000000J0D01*
G01*
X163735000Y-89662000D02*
G75*
G03*
X167735000Y-89662000I2000000J0D01*
G01*
%TO.C,C4*%
X137370000Y-101060000D02*
X134410000Y-101060000D01*
X137370000Y-99600000D02*
X137370000Y-101060000D01*
X134410000Y-101060000D02*
X134410000Y-99600000D01*
X134410000Y-99600000D02*
X137370000Y-99600000D01*
%TO.C,C19*%
X161627000Y-105759000D02*
X158667000Y-105759000D01*
X161627000Y-104299000D02*
X161627000Y-105759000D01*
X158667000Y-105759000D02*
X158667000Y-104299000D01*
X158667000Y-104299000D02*
X161627000Y-104299000D01*
%TO.C,C15*%
X136192000Y-98192000D02*
X136192000Y-96372000D01*
X137112000Y-98192000D02*
X136192000Y-98192000D01*
X136192000Y-96372000D02*
X137112000Y-96372000D01*
X137112000Y-96372000D02*
X137112000Y-98192000D01*
%TO.C,C13*%
X132366000Y-98368000D02*
X132366000Y-95408000D01*
X133826000Y-98368000D02*
X132366000Y-98368000D01*
X132366000Y-95408000D02*
X133826000Y-95408000D01*
X133826000Y-95408000D02*
X133826000Y-98368000D01*
%TO.C,C3*%
X137383000Y-103279000D02*
X134423000Y-103279000D01*
X137383000Y-101819000D02*
X137383000Y-103279000D01*
X134423000Y-103279000D02*
X134423000Y-101819000D01*
X134423000Y-101819000D02*
X137383000Y-101819000D01*
%TO.C,D2*%
X128876000Y-110820000D02*
X122076000Y-110820000D01*
X128876000Y-107620000D02*
X128876000Y-110820000D01*
X122076000Y-110820000D02*
X122076000Y-107620000D01*
X122076000Y-107620000D02*
X128876000Y-107620000D01*
%TO.C,C1*%
X142704000Y-107918000D02*
X139744000Y-107918000D01*
X142704000Y-106458000D02*
X142704000Y-107918000D01*
X139744000Y-107918000D02*
X139744000Y-106458000D01*
X139744000Y-106458000D02*
X142704000Y-106458000D01*
%TD*%
M02*
